<svg version="1.2" xmlns="http://www.w3.org/2000/svg" viewBox="0 0 737 737" width="737" height="737">
	<title>flowchart-pdf</title>
	<defs>
		<clipPath clipPathUnits="userSpaceOnUse" id="cp1">
			<path d="m0-0.04h737.04v737.04h-737.04"/>
		</clipPath>
		<clipPath clipPathUnits="userSpaceOnUse" id="cp2">
			<path d="m0-0.04h737.04v737.04h-737.04"/>
		</clipPath>
		<clipPath clipPathUnits="userSpaceOnUse" id="cp3">
			<path d="m0-0.04h737.04v737.04h-737.04"/>
		</clipPath>
	</defs>
	<style>
		.s0 { fill: none;stroke: #7f7f7f;stroke-width: 1.9 } 
		.s1 { fill: #000000 } 
		.s2 { fill: #ffffff;stroke: #7f7f7f;stroke-width: 1.9 } 
		.s3 { fill: #7f7f7f } 
	</style>
	<path id="Path 2" class="s0" d="m489.8 468.1l73.1-34.7 73.1 34.7-73.1 34.7z"/>
	<path id="Prev. received = RH? copy" class="s1" aria-label="Prev. received
= RH?"  d="m517.8 461.9h-1.7v3.9h1.7q1 0 1.5-0.5 0.5-0.5 0.5-1.5 0-0.9-0.5-1.4-0.5-0.5-1.5-0.5zm-3.1 9.1v-10.2h3.1q1.7 0 2.6 0.8 0.9 0.7 0.9 2.2 0 1.6-0.9 2.3-0.9 0.8-2.6 0.8h-1.7v4.1zm12.5-7.8v1.3q-0.2-0.1-0.4-0.2-0.3 0-0.6 0-1 0-1.6 0.7-0.6 0.7-0.6 2v4h-1.3v-7.7h1.3v1.2q0.4-0.7 1-1 0.7-0.3 1.6-0.3 0.1 0 0.3 0 0.1 0 0.3 0zm7.6 3.7v0.6h-5.8q0.1 1.3 0.8 2 0.7 0.6 1.9 0.6 0.8 0 1.4-0.1 0.7-0.2 1.4-0.6v1.2q-0.7 0.3-1.4 0.4-0.7 0.2-1.4 0.2-1.9 0-2.9-1.1-1.1-1-1.1-2.9 0-1.8 1-2.9 1-1.1 2.7-1.1 1.6 0 2.5 1 0.9 0.9 0.9 2.7zm-5.8-0.4h4.5q0-1-0.5-1.7-0.6-0.6-1.5-0.6-1.1 0-1.7 0.6-0.7 0.6-0.8 1.7zm9.8 4.5l-2.8-7.7h1.3l2.4 6.5 2.4-6.5h1.3l-2.9 7.7zm5.4 0v-1.7h1.5v1.7zm13.1-7.8v1.3q-0.2-0.1-0.4-0.2-0.3 0-0.6 0-1 0-1.6 0.7-0.6 0.7-0.6 2v4h-1.2v-7.7h1.2v1.2q0.4-0.7 1.1-1 0.6-0.3 1.5-0.3 0.1 0 0.3 0 0.1 0 0.3 0zm7.6 3.7v0.6h-5.8q0.1 1.3 0.8 2 0.7 0.6 2 0.6 0.7 0 1.4-0.1 0.6-0.2 1.3-0.6v1.2q-0.7 0.3-1.4 0.4-0.7 0.2-1.4 0.2-1.9 0-2.9-1.1-1.1-1-1.1-2.9 0-1.8 1-2.9 1-1.1 2.8-1.1 1.5 0 2.4 1 0.9 0.9 0.9 2.7zm-5.7-0.4h4.4q0-1-0.5-1.7-0.6-0.6-1.5-0.6-1.1 0-1.7 0.6-0.6 0.6-0.7 1.7zm13.3-2.9v1.2q-0.6-0.3-1.1-0.4-0.5-0.2-1.1-0.2-1.2 0-1.9 0.8-0.7 0.8-0.7 2.2 0 1.4 0.7 2.2 0.7 0.7 1.9 0.7 0.6 0 1.1-0.1 0.5-0.2 1.1-0.5v1.2q-0.5 0.3-1.1 0.4-0.6 0.1-1.2 0.1-1.7 0-2.8-1.1-1-1.1-1-2.9 0-1.9 1-3 1.1-1 2.9-1 0.6 0 1.1 0.1 0.6 0.1 1.1 0.3zm8.7 3.3v0.6h-5.8q0.1 1.3 0.8 2 0.7 0.6 2 0.6 0.7 0 1.4-0.1 0.7-0.2 1.3-0.6v1.2q-0.7 0.3-1.4 0.4-0.7 0.2-1.4 0.2-1.8 0-2.9-1.1-1.1-1-1.1-2.9 0-1.8 1-2.9 1-1.1 2.8-1.1 1.5 0 2.4 1 0.9 0.9 0.9 2.7zm-5.7-0.4h4.5q-0.1-1-0.6-1.7-0.6-0.6-1.5-0.6-1.1 0-1.7 0.6-0.6 0.6-0.7 1.7zm7.8 4.5v-7.7h1.2v7.7zm0-9v-1.6h1.3v1.6zm5.9 9l-2.9-7.7h1.3l2.4 6.5 2.4-6.5h1.3l-2.8 7.7zm12.8-4.1v0.6h-5.8q0.1 1.3 0.8 2 0.7 0.6 2 0.6 0.7 0 1.4-0.1 0.7-0.2 1.3-0.6v1.2q-0.6 0.3-1.4 0.4-0.7 0.2-1.4 0.2-1.8 0-2.9-1.1-1.1-1-1.1-2.9 0-1.8 1-2.9 1.1-1.1 2.8-1.1 1.5 0 2.4 1 0.9 0.9 0.9 2.7zm-5.7-0.4h4.5q0-1-0.6-1.7-0.6-0.6-1.5-0.6-1.1 0-1.7 0.6-0.6 0.6-0.7 1.7zm12.8-2v-4.1h1.3v10.6h-1.3v-1.1q-0.4 0.6-1 1-0.6 0.3-1.4 0.3-1.4 0-2.3-1.1-0.9-1.1-0.9-2.9 0-1.8 0.9-2.9 0.9-1.1 2.3-1.1 0.8 0 1.4 0.3 0.6 0.3 1 1zm-4.3 2.7q0 1.4 0.6 2.2 0.6 0.7 1.6 0.7 1 0 1.6-0.7 0.5-0.8 0.5-2.2 0-1.4-0.5-2.2-0.6-0.8-1.6-0.8-1 0-1.6 0.8-0.6 0.8-0.6 2.2zm-62.8 15.6v-1.2h8.8v1.2zm0 2.8v-1.2h8.7v1.2zm20.9-2.4q0.5 0.2 0.9 0.7 0.4 0.4 0.9 1.3l1.4 2.8h-1.5l-1.3-2.6q-0.5-1-1-1.4-0.5-0.3-1.3-0.3h-1.5v4.3h-1.4v-10.2h3.1q1.8 0 2.6 0.7 0.9 0.8 0.9 2.2 0 1-0.5 1.6-0.4 0.7-1.3 0.9zm-1.7-4.3h-1.7v3.7h1.7q1 0 1.5-0.5 0.5-0.5 0.5-1.4 0-0.9-0.5-1.3-0.5-0.5-1.5-0.5zm6.6 9.1v-10.2h1.4v4.2h5v-4.2h1.4v10.2h-1.4v-4.9h-5v4.9zm11.8 0v-1.7h1.4v1.7zm1.4-3.6v0.9h-1.3v-1.1q0-0.7 0.2-1.1 0.2-0.5 0.8-1.1l0.6-0.6q0.4-0.3 0.5-0.7 0.2-0.3 0.2-0.6 0-0.6-0.4-1-0.5-0.4-1.2-0.4-0.6 0-1.2 0.3-0.6 0.2-1.2 0.7v-1.3q0.6-0.4 1.3-0.6 0.6-0.2 1.3-0.2 1.3 0 2 0.7 0.8 0.6 0.8 1.7 0 0.5-0.2 1-0.3 0.5-0.9 1.1l-0.6 0.6q-0.3 0.3-0.5 0.5-0.1 0.1-0.1 0.3-0.1 0.2-0.1 0.4 0 0.2 0 0.5z"/>
	<path id="PP" class="s1" aria-label="PP"  d="m188.8 409.2h-1.5v3.3h1.5q0.8 0 1.3-0.4 0.4-0.4 0.4-1.2 0-0.8-0.4-1.2-0.5-0.5-1.3-0.5zm-2.7 7.8v-8.7h2.7q1.5 0 2.2 0.6 0.8 0.7 0.8 2 0 1.3-0.8 1.9-0.7 0.7-2.2 0.7h-1.5v3.5zm9.9-7.8h-1.5v3.3h1.5q0.8 0 1.3-0.4 0.4-0.4 0.4-1.2 0-0.8-0.4-1.2-0.5-0.5-1.3-0.5zm-2.7 7.8v-8.7h2.7q1.5 0 2.2 0.6 0.8 0.7 0.8 2 0 1.3-0.8 1.9-0.7 0.7-2.2 0.7h-1.5v3.5z"/>
	<path id="Path 5" class="s2" d="m335.9 33.6h68.4c8.9 0 16.2 6.5 16.2 14.6 0 8.1-7.3 14.6-16.2 14.6h-68.4c-9 0-16.2-6.5-16.2-14.6 0-8.1 7.2-14.6 16.2-14.6z"/>
	<path id="Start RAS" class="s1" aria-label="Start RAS"  d="m347 44.1v1.4q-0.8-0.4-1.5-0.6-0.7-0.2-1.3-0.2-1.1 0-1.8 0.5-0.6 0.4-0.6 1.2 0 0.7 0.4 1 0.4 0.4 1.6 0.6l0.8 0.2q1.6 0.3 2.3 1 0.7 0.7 0.7 2 0 1.5-1 2.2-1 0.8-2.9 0.8-0.7 0-1.5-0.2-0.8-0.1-1.7-0.5v-1.4q0.8 0.5 1.6 0.7 0.8 0.3 1.6 0.3 1.2 0 1.8-0.5 0.7-0.5 0.7-1.3 0-0.8-0.5-1.2-0.4-0.4-1.5-0.6l-0.8-0.2q-1.6-0.3-2.3-1-0.7-0.6-0.7-1.8 0-1.3 1-2.1 1-0.8 2.6-0.8 0.7 0 1.5 0.1 0.7 0.2 1.5 0.4zm2.7 0.1h1.3v2.1h2.6v1h-2.6v4.2q0 0.9 0.2 1.2 0.3 0.2 1.1 0.2h1.3v1.1h-1.3q-1.5 0-2-0.5-0.6-0.6-0.6-2v-4.2h-0.9v-1h0.9zm10.2 6h-1.2q-1.5 0-2.1 0.4-0.6 0.3-0.6 1.2 0 0.6 0.4 1 0.5 0.4 1.2 0.4 1.1 0 1.7-0.7 0.6-0.8 0.6-2zm1.3-0.5v4.4h-1.3v-1.2q-0.4 0.7-1 1-0.7 0.4-1.6 0.4-1.2 0-1.9-0.7-0.7-0.7-0.7-1.8 0-1.3 0.9-1.9 0.9-0.7 2.6-0.7h1.7v-0.1q0-0.9-0.5-1.3-0.6-0.5-1.6-0.5-0.7 0-1.3 0.1-0.6 0.2-1.2 0.5v-1.2q0.7-0.2 1.3-0.4 0.7-0.1 1.3-0.1 1.7 0 2.5 0.9 0.8 0.8 0.8 2.6zm7-3.4v1.3q-0.2-0.1-0.4-0.2-0.3-0.1-0.6-0.1-1 0-1.6 0.7-0.6 0.7-0.6 2v4.1h-1.3v-7.7h1.3v1.2q0.4-0.7 1-1 0.7-0.4 1.6-0.4 0.1 0 0.3 0 0.1 0 0.3 0.1zm1.3-2.1h1.3v2.2h2.6v1h-2.6v4.1q0 1 0.2 1.2 0.3 0.3 1.1 0.3h1.3v1.1h-1.3q-1.5 0-2-0.6-0.6-0.5-0.6-2v-4.1h-0.9v-1h0.9zm14.9 5q0.4 0.2 0.8 0.7 0.5 0.5 0.9 1.3l1.4 2.8h-1.5l-1.3-2.6q-0.5-1-1-1.4-0.5-0.3-1.3-0.3h-1.5v4.3h-1.4v-10.2h3.2q1.7 0 2.6 0.8 0.8 0.7 0.8 2.2 0 0.9-0.4 1.6-0.5 0.6-1.3 0.8zm-1.7-4.2h-1.8v3.6h1.8q1 0 1.5-0.5 0.5-0.4 0.5-1.3 0-0.9-0.5-1.4-0.5-0.4-1.5-0.4zm11.3 5.3l-1.9-5.1-1.9 5.1zm-6.5 3.7l3.9-10.2h1.5l3.9 10.2h-1.4l-0.9-2.6h-4.6l-1 2.6zm17-9.8v1.3q-0.8-0.4-1.5-0.6-0.7-0.1-1.3-0.1-1.2 0-1.8 0.4-0.6 0.4-0.6 1.2 0 0.7 0.4 1.1 0.4 0.3 1.6 0.5l0.8 0.2q1.5 0.3 2.3 1 0.7 0.8 0.7 2 0 1.5-1 2.3-1 0.7-2.9 0.7-0.7 0-1.5-0.1-0.9-0.2-1.7-0.5v-1.4q0.8 0.4 1.6 0.7 0.8 0.2 1.6 0.2 1.2 0 1.8-0.5 0.7-0.4 0.7-1.3 0-0.7-0.5-1.2-0.4-0.4-1.5-0.6l-0.8-0.2q-1.6-0.3-2.3-0.9-0.7-0.7-0.7-1.9 0-1.3 1-2.1 0.9-0.8 2.6-0.8 0.7 0 1.5 0.2 0.7 0.1 1.5 0.4z"/>
	<path id="Path 7" class="s2" d="m293.5 81.3h153.9v48.3h-153.9z"/>
	<path id="Establish BLE  connection with T" class="s1" aria-label="Establish BLE 
connection with TIS"  d="m325.4 101v-10.2h6.4v1.2h-5v3h4.8v1.1h-4.8v3.7h5.2v1.2zm13.6-7.4v1.2q-0.5-0.3-1.1-0.5-0.6-0.1-1.2-0.1-0.9 0-1.4 0.3-0.4 0.3-0.4 0.9 0 0.4 0.3 0.7 0.3 0.2 1.3 0.4l0.5 0.1q1.3 0.3 1.9 0.8 0.5 0.6 0.5 1.5 0 1.1-0.8 1.7-0.9 0.6-2.3 0.6-0.6 0-1.3-0.1-0.7-0.1-1.4-0.4v-1.3q0.7 0.4 1.4 0.6 0.6 0.1 1.3 0.1 0.9 0 1.4-0.3 0.4-0.3 0.4-0.8 0-0.5-0.3-0.8-0.4-0.3-1.5-0.5l-0.5-0.1q-1.1-0.3-1.6-0.8-0.6-0.5-0.6-1.4 0-1.1 0.8-1.7 0.8-0.5 2.2-0.5 0.7 0 1.3 0.1 0.6 0.1 1.1 0.3zm2.4-2.4h1.3v2.1h2.6v1h-2.6v4.2q0 0.9 0.2 1.2 0.3 0.2 1.1 0.2h1.3v1.1h-1.3q-1.5 0-2-0.5-0.6-0.6-0.6-2v-4.2h-0.9v-1h0.9zm10.3 6h-1.3q-1.5 0-2.1 0.4-0.6 0.3-0.6 1.2 0 0.6 0.4 1 0.5 0.4 1.2 0.4 1.1 0 1.7-0.7 0.7-0.8 0.7-2zm1.2-0.5v4.4h-1.2v-1.2q-0.5 0.7-1.1 1-0.7 0.4-1.6 0.4-1.2 0-1.9-0.7-0.7-0.7-0.7-1.8 0-1.3 0.9-1.9 0.9-0.7 2.6-0.7h1.8v-0.1q0-0.9-0.6-1.3-0.6-0.5-1.6-0.5-0.7 0-1.3 0.1-0.6 0.2-1.2 0.5v-1.2q0.7-0.2 1.3-0.4 0.7-0.1 1.3-0.1 1.7 0 2.5 0.9 0.8 0.8 0.8 2.6zm8.1 0.5q0-1.4-0.6-2.1-0.5-0.8-1.5-0.8-1 0-1.6 0.8-0.6 0.7-0.6 2.1 0 1.4 0.6 2.2 0.6 0.8 1.6 0.8 1 0 1.5-0.8 0.6-0.8 0.6-2.2zm-4.3-6.8v4.2q0.4-0.7 1-1.1 0.6-0.3 1.5-0.3 1.4 0 2.2 1.1 0.9 1.1 0.9 2.9 0 1.8-0.9 2.9-0.8 1.2-2.2 1.2-0.9 0-1.5-0.4-0.6-0.3-1-1v1.2h-1.2v-10.7zm7.6 10.7v-10.7h1.3v10.7zm3.9 0v-7.7h1.2v7.7zm0-9.1v-1.6h1.3v1.6zm8.8 1.6v1.2q-0.6-0.3-1.1-0.4-0.6-0.1-1.2-0.1-1 0-1.4 0.3-0.5 0.2-0.5 0.8 0 0.5 0.3 0.7 0.4 0.3 1.4 0.5l0.4 0.1q1.3 0.3 1.9 0.8 0.6 0.5 0.6 1.4 0 1.1-0.9 1.7-0.8 0.7-2.3 0.7-0.6 0-1.3-0.2-0.6-0.1-1.4-0.3v-1.3q0.7 0.3 1.4 0.5 0.7 0.2 1.3 0.2 0.9 0 1.4-0.3 0.5-0.3 0.5-0.9 0-0.5-0.4-0.7-0.3-0.3-1.5-0.6l-0.4-0.1q-1.2-0.2-1.7-0.7-0.5-0.5-0.5-1.4 0-1.1 0.7-1.7 0.8-0.6 2.2-0.6 0.7 0 1.3 0.1 0.6 0.1 1.2 0.3zm8.7 2.8v4.7h-1.2v-4.6q0-1.1-0.4-1.7-0.5-0.5-1.3-0.5-1 0-1.6 0.7-0.6 0.6-0.6 1.7v4.4h-1.3v-10.7h1.3v4.2q0.4-0.7 1-1 0.7-0.4 1.5-0.4 1.3 0 2 0.8 0.6 0.8 0.6 2.4zm10.6-0.2h-2.2v3.7h2.2q1.2 0 1.7-0.4 0.5-0.5 0.5-1.5 0-0.9-0.5-1.4-0.5-0.4-1.7-0.4zm-0.1-4.2h-2.1v3.1h2.1q1 0 1.5-0.4 0.5-0.4 0.5-1.2 0-0.8-0.5-1.1-0.5-0.4-1.5-0.4zm-3.4 9.1v-10.3h3.5q1.6 0 2.4 0.7 0.9 0.7 0.9 1.9 0 0.9-0.5 1.5-0.4 0.5-1.3 0.7 1.1 0.2 1.6 0.9 0.6 0.7 0.6 1.7 0 1.4-0.9 2.1-1 0.8-2.7 0.8zm9.6 0v-10.3h1.4v9.1h5v1.2zm7.8 0v-10.3h6.4v1.2h-5v3h4.8v1.2h-4.8v3.7h5.1v1.2zm-100.4 9.6v1.2q-0.5-0.3-1.1-0.5-0.5-0.1-1-0.1-1.3 0-1.9 0.8-0.7 0.7-0.7 2.1 0 1.4 0.7 2.2 0.6 0.8 1.9 0.8 0.5 0 1-0.2 0.6-0.1 1.1-0.4v1.2q-0.5 0.2-1.1 0.3-0.5 0.2-1.2 0.2-1.7 0-2.7-1.1-1.1-1.1-1.1-3 0-1.8 1.1-2.9 1-1.1 2.8-1.1 0.6 0 1.1 0.1 0.6 0.2 1.1 0.4zm5.2 0.6q-1.1 0-1.6 0.8-0.6 0.8-0.6 2.1 0 1.4 0.6 2.2 0.5 0.8 1.6 0.8 1 0 1.6-0.8 0.5-0.8 0.5-2.2 0-1.3-0.5-2.1-0.6-0.8-1.6-0.8zm0-1.1q1.6 0 2.5 1.1 1 1 1 2.9 0 1.9-1 3-0.9 1.1-2.5 1.1-1.7 0-2.6-1.1-1-1.1-1-3 0-1.9 1-2.9 0.9-1.1 2.6-1.1zm11.9 3.2v4.7h-1.2v-4.6q0-1.1-0.5-1.7-0.4-0.5-1.2-0.5-1 0-1.6 0.7-0.6 0.6-0.6 1.7v4.4h-1.3v-7.7h1.3v1.2q0.4-0.7 1-1 0.6-0.4 1.4-0.4 1.4 0 2 0.8 0.7 0.8 0.7 2.4zm8.9 0v4.7h-1.3v-4.6q0-1.1-0.4-1.7-0.4-0.5-1.3-0.5-1 0-1.6 0.7-0.6 0.6-0.6 1.7v4.4h-1.2v-7.7h1.2v1.2q0.5-0.7 1.1-1 0.6-0.4 1.4-0.4 1.3 0 2 0.8 0.7 0.8 0.7 2.4zm9.1 0.5v0.6h-5.8q0.1 1.3 0.7 2 0.8 0.7 2 0.7 0.7 0 1.4-0.2 0.7-0.2 1.4-0.5v1.2q-0.7 0.3-1.4 0.4-0.7 0.2-1.5 0.2-1.8 0-2.9-1.1-1-1.1-1-2.9 0-1.9 1-3 1-1.1 2.7-1.1 1.6 0 2.5 1 0.9 1 0.9 2.7zm-5.8-0.4h4.5q0-1-0.6-1.6-0.5-0.6-1.5-0.6-1 0-1.7 0.6-0.6 0.6-0.7 1.6zm13.3-2.8v1.2q-0.5-0.3-1-0.5-0.6-0.1-1.1-0.1-1.2 0-1.9 0.8-0.7 0.7-0.7 2.1 0 1.4 0.7 2.2 0.7 0.8 1.9 0.8 0.5 0 1.1-0.2 0.5-0.1 1-0.4v1.2q-0.5 0.2-1.1 0.3-0.5 0.2-1.2 0.2-1.7 0-2.7-1.1-1-1.1-1-3 0-1.8 1-2.9 1-1.1 2.8-1.1 0.6 0 1.2 0.1 0.5 0.2 1 0.4zm2.2-2.5h1.3v2.2h2.5v1h-2.5v4.1q0 1 0.2 1.2 0.3 0.3 1.1 0.3h1.2v1.1h-1.2q-1.5 0-2.1-0.6-0.5-0.5-0.5-2v-4.1h-0.9v-1h0.9zm5.5 9.8v-7.6h1.3v7.6zm0-9v-1.6h1.2v1.6zm6.9 2.3q-1 0-1.6 0.7-0.6 0.8-0.6 2.2 0 1.4 0.6 2.2 0.6 0.8 1.6 0.8 1 0 1.6-0.8 0.6-0.8 0.6-2.2 0-1.4-0.6-2.1-0.6-0.8-1.6-0.8zm0-1.1q1.6 0 2.6 1.1 0.9 1 0.9 2.9 0 1.9-0.9 3-1 1-2.6 1-1.7 0-2.6-1-0.9-1.1-0.9-3 0-1.9 0.9-2.9 0.9-1.1 2.6-1.1zm11.9 3.2v4.6h-1.2v-4.6q0-1-0.4-1.6-0.5-0.5-1.3-0.5-1 0-1.6 0.6-0.6 0.7-0.6 1.8v4.3h-1.3v-7.6h1.3v1.2q0.4-0.7 1.1-1.1 0.6-0.3 1.4-0.3 1.3 0 2 0.8 0.6 0.8 0.6 2.4zm8.3 4.6l-2-7.6h1.2l1.6 5.9 1.6-5.9h1.4l1.6 5.9 1.6-5.9h1.2l-2 7.6h-1.4l-1.7-6.2-1.6 6.2zm10.1 0v-7.6h1.3v7.6zm0-9v-1.6h1.2v1.6zm3.9-0.8h1.3v2.2h2.6v0.9h-2.6v4.2q0 0.9 0.2 1.2 0.3 0.3 1.1 0.3h1.3v1h-1.3q-1.5 0-2-0.5-0.6-0.6-0.6-2v-4.2h-0.9v-0.9h0.9zm11.9 5.2v4.6h-1.3v-4.6q0-1.1-0.4-1.6-0.4-0.5-1.3-0.5-1 0-1.6 0.6-0.6 0.7-0.6 1.8v4.3h-1.2v-10.6h1.2v4.1q0.5-0.7 1.1-1 0.6-0.3 1.4-0.3 1.3 0 2 0.8 0.7 0.8 0.7 2.4zm5.4-4.4v-1.2h8.7v1.2h-3.6v9h-1.4v-9zm9.9 9v-10.2h1.3v10.2zm10.2-9.9v1.4q-0.8-0.4-1.5-0.6-0.7-0.2-1.3-0.2-1.1 0-1.7 0.5-0.7 0.4-0.7 1.2 0 0.7 0.4 1 0.5 0.4 1.6 0.6l0.8 0.2q1.6 0.3 2.3 1 0.7 0.7 0.7 2 0 1.5-1 2.2-0.9 0.8-2.9 0.8-0.7 0-1.5-0.2-0.8-0.1-1.7-0.4v-1.5q0.8 0.5 1.6 0.7 0.9 0.3 1.6 0.3 1.2 0 1.9-0.5 0.6-0.5 0.6-1.3 0-0.8-0.5-1.2-0.4-0.4-1.5-0.6l-0.8-0.2q-1.6-0.3-2.3-1-0.6-0.6-0.6-1.8 0-1.3 0.9-2.1 1-0.8 2.6-0.8 0.8 0 1.5 0.1 0.7 0.2 1.5 0.4z"/>
	<path id="Path 9" class="s2" d="m308.6 146.8h122.9v48.3h-122.9z"/>
	<path id="Rotate motors" class="s1" aria-label="Rotate motors"  d="m326.5 162.2q0.4 0.2 0.8 0.7 0.5 0.4 0.9 1.3l1.4 2.8h-1.5l-1.3-2.6q-0.5-1-1-1.4-0.5-0.3-1.3-0.3h-1.5v4.3h-1.4v-10.2h3.2q1.7 0 2.6 0.7 0.8 0.8 0.8 2.2 0 1-0.4 1.6-0.5 0.7-1.3 0.9zm-1.7-4.3h-1.8v3.7h1.8q0.9 0 1.5-0.5 0.5-0.5 0.5-1.4 0-0.9-0.5-1.3-0.6-0.5-1.5-0.5zm8.8 2.3q-1 0-1.6 0.8-0.5 0.8-0.5 2.2 0 1.4 0.5 2.1 0.6 0.8 1.6 0.8 1 0 1.6-0.8 0.6-0.8 0.6-2.1 0-1.4-0.6-2.2-0.6-0.8-1.6-0.8zm0-1q1.7 0 2.6 1 1 1.1 1 3 0 1.9-1 2.9-0.9 1.1-2.6 1.1-1.6 0-2.5-1.1-1-1-1-2.9 0-1.9 1-3 0.9-1 2.5-1zm5.6-2h1.3v2.1h2.6v1h-2.6v4.2q0 0.9 0.2 1.2 0.3 0.2 1.1 0.2h1.3v1.1h-1.3q-1.5 0-2-0.5-0.6-0.6-0.6-2v-4.2h-0.9v-1h0.9zm10.3 6h-1.3q-1.5 0-2.1 0.4-0.6 0.3-0.6 1.2 0 0.6 0.4 1 0.5 0.4 1.3 0.4 1 0 1.6-0.7 0.7-0.8 0.7-2zm1.2-0.5v4.4h-1.2v-1.2q-0.5 0.7-1.1 1-0.7 0.4-1.6 0.4-1.2 0-1.9-0.7-0.6-0.7-0.6-1.8 0-1.3 0.8-1.9 0.9-0.7 2.6-0.7h1.8v-0.1q0-0.9-0.6-1.3-0.6-0.5-1.6-0.5-0.7 0-1.3 0.1-0.6 0.2-1.2 0.5v-1.2q0.7-0.2 1.4-0.3 0.6-0.2 1.2-0.2 1.7 0 2.5 0.9 0.8 0.8 0.8 2.6zm2.6-5.5h1.3v2.2h2.5v1h-2.5v4.1q0 1 0.2 1.2 0.3 0.3 1.1 0.3h1.2v1.1h-1.2q-1.5 0-2.1-0.6-0.5-0.5-0.5-2v-4.1h-0.9v-1h0.9zm12 5.7v0.6h-5.7q0 1.3 0.7 2 0.8 0.7 2 0.7 0.7 0 1.4-0.2 0.7-0.2 1.4-0.6v1.2q-0.7 0.3-1.4 0.5-0.7 0.1-1.5 0.1-1.8 0-2.9-1-1-1.1-1-2.9 0-1.9 1-3 1-1.1 2.7-1.1 1.6 0 2.4 1 0.9 1 0.9 2.7zm-5.7-0.4h4.5q0-1-0.6-1.6-0.5-0.6-1.5-0.6-1 0-1.7 0.5-0.6 0.6-0.7 1.7zm18.2-1.7q0.5-0.8 1.2-1.2 0.6-0.4 1.5-0.4 1.2 0 1.8 0.8 0.7 0.9 0.7 2.4v4.6h-1.3v-4.6q0-1.1-0.4-1.6-0.4-0.5-1.2-0.5-0.9 0-1.5 0.6-0.6 0.7-0.6 1.8v4.3h-1.2v-4.6q0-1.1-0.4-1.6-0.4-0.5-1.2-0.5-1 0-1.6 0.6-0.5 0.7-0.5 1.8v4.3h-1.3v-7.6h1.3v1.2q0.4-0.7 1-1.1 0.6-0.3 1.4-0.3 0.9 0 1.5 0.4 0.5 0.4 0.8 1.2zm10.7-0.5q-1 0-1.6 0.7-0.6 0.8-0.6 2.2 0 1.4 0.6 2.2 0.6 0.8 1.6 0.8 1 0 1.6-0.8 0.5-0.8 0.5-2.2 0-1.4-0.5-2.1-0.6-0.8-1.6-0.8zm0-1.1q1.6 0 2.5 1.1 1 1 1 2.9 0 1.9-1 3-0.9 1-2.5 1-1.7 0-2.6-1-0.9-1.1-0.9-3 0-1.9 0.9-2.9 0.9-1.1 2.6-1.1zm5.5-2h1.3v2.2h2.6v0.9h-2.6v4.2q0 0.9 0.3 1.2 0.2 0.3 1 0.3h1.3v1h-1.3q-1.4 0-2-0.5-0.6-0.6-0.6-2v-4.2h-0.9v-0.9h0.9zm8.5 3q-1 0-1.6 0.8-0.6 0.8-0.6 2.2 0 1.4 0.6 2.1 0.6 0.8 1.6 0.8 1 0 1.6-0.8 0.6-0.8 0.6-2.1 0-1.4-0.6-2.2-0.6-0.8-1.6-0.8zm0-1q1.7 0 2.6 1 0.9 1.1 0.9 3 0 1.9-0.9 2.9-0.9 1.1-2.6 1.1-1.6 0-2.6-1.1-0.9-1-0.9-2.9 0-1.9 0.9-3 1-1 2.6-1zm10.1 0v1.3q-0.3-0.1-0.5-0.2-0.3 0-0.6 0-1 0-1.6 0.7-0.6 0.7-0.6 2v4h-1.2v-7.7h1.2v1.2q0.4-0.7 1.1-1 0.6-0.3 1.5-0.3 0.1 0 0.3 0 0.2 0 0.4 0zm6.2 0.4v1.2q-0.6-0.3-1.1-0.4-0.6-0.2-1.2-0.2-1 0-1.4 0.3-0.5 0.3-0.5 0.9 0 0.4 0.3 0.7 0.4 0.2 1.4 0.4l0.4 0.1q1.3 0.3 1.9 0.8 0.6 0.6 0.6 1.5 0 1.1-0.9 1.7-0.8 0.6-2.3 0.6-0.6 0-1.3-0.1-0.6-0.1-1.4-0.4v-1.3q0.7 0.4 1.4 0.6 0.7 0.1 1.3 0.1 0.9 0 1.4-0.3 0.5-0.3 0.5-0.8 0-0.5-0.4-0.8-0.3-0.3-1.5-0.5l-0.4-0.1q-1.2-0.3-1.7-0.8-0.5-0.5-0.5-1.4 0-1.1 0.7-1.7 0.8-0.5 2.2-0.5 0.7 0 1.3 0.1 0.6 0.1 1.2 0.3z"/>
	<path id="to RH position" class="s1" aria-label="to RH position"  d="m323.1 174.2h1.2v2.1h2.6v1h-2.6v4.2q0 0.9 0.3 1.2 0.3 0.2 1 0.2h1.3v1.1h-1.3q-1.4 0-2-0.5-0.5-0.6-0.5-2v-4.2h-0.9v-1h0.9zm8.5 3.1q-1 0-1.6 0.8-0.6 0.8-0.6 2.2 0 1.3 0.6 2.1 0.6 0.8 1.6 0.8 1 0 1.6-0.8 0.6-0.8 0.6-2.1 0-1.4-0.6-2.2-0.6-0.8-1.6-0.8zm0-1.1q1.7 0 2.6 1.1 0.9 1.1 0.9 3 0 1.8-0.9 2.9-0.9 1.1-2.6 1.1-1.6 0-2.6-1.1-0.9-1.1-0.9-2.9 0-1.9 0.9-3 1-1.1 2.6-1.1zm15 3.1q0.4 0.1 0.8 0.6 0.4 0.5 0.9 1.4l1.4 2.8h-1.5l-1.3-2.6q-0.5-1.1-1-1.4-0.5-0.3-1.3-0.3h-1.5v4.3h-1.4v-10.2h3.1q1.8 0 2.6 0.7 0.9 0.7 0.9 2.2 0 1-0.4 1.6-0.5 0.6-1.3 0.9zm-1.8-4.3h-1.7v3.6h1.7q1 0 1.5-0.4 0.5-0.5 0.5-1.4 0-0.9-0.5-1.3-0.5-0.5-1.5-0.5zm6.6 9.1v-10.2h1.4v4.2h5v-4.2h1.4v10.2h-1.4v-4.9h-5v4.9zm16.2-1.2v4.1h-1.3v-10.6h1.3v1.2q0.4-0.7 1-1 0.6-0.4 1.4-0.4 1.4 0 2.3 1.1 0.8 1.1 0.8 3 0 1.8-0.8 2.9-0.9 1.1-2.3 1.1-0.8 0-1.4-0.4-0.6-0.3-1-1zm4.2-2.6q0-1.4-0.5-2.2-0.6-0.8-1.6-0.8-1 0-1.6 0.8-0.5 0.8-0.5 2.2 0 1.3 0.5 2.1 0.6 0.8 1.6 0.8 1 0 1.6-0.8 0.5-0.8 0.5-2.1zm6.4-3q-1 0-1.6 0.8-0.6 0.8-0.6 2.2 0 1.3 0.6 2.1 0.6 0.8 1.6 0.8 1 0 1.6-0.8 0.6-0.8 0.6-2.1 0-1.4-0.6-2.2-0.6-0.8-1.6-0.8zm0-1.1q1.6 0 2.6 1.1 0.9 1.1 0.9 3 0 1.8-0.9 2.9-1 1.1-2.6 1.1-1.6 0-2.6-1.1-0.9-1.1-0.9-2.9 0-1.9 0.9-3 1-1.1 2.6-1.1zm10.5 0.4v1.2q-0.6-0.2-1.1-0.4-0.6-0.1-1.2-0.1-1 0-1.4 0.3-0.5 0.3-0.5 0.8 0 0.5 0.3 0.7 0.4 0.3 1.4 0.5l0.4 0.1q1.4 0.3 1.9 0.8 0.6 0.5 0.6 1.5 0 1-0.9 1.7-0.8 0.6-2.3 0.6-0.6 0-1.3-0.1-0.6-0.2-1.4-0.4v-1.3q0.7 0.4 1.4 0.5 0.7 0.2 1.4 0.2 0.8 0 1.3-0.3 0.5-0.3 0.5-0.8 0-0.6-0.4-0.8-0.3-0.3-1.5-0.6l-0.4-0.1q-1.2-0.2-1.7-0.7-0.5-0.5-0.5-1.4 0-1.1 0.8-1.7 0.7-0.6 2.1-0.6 0.7 0 1.3 0.1 0.7 0.1 1.2 0.3zm2.4 7.5v-7.7h1.3v7.7zm0-9.1v-1.6h1.2v1.6zm3.9-0.8h1.2v2.2h2.6v1h-2.6v4.2q0 0.9 0.3 1.2 0.3 0.2 1 0.2h1.3v1.1h-1.3q-1.4 0-2-0.6-0.5-0.5-0.5-1.9v-4.2h-0.9v-1h0.9zm5.5 9.8v-7.6h1.2v7.6zm0-9v-1.6h1.3v1.6zm6.9 2.3q-1.1 0-1.6 0.8-0.6 0.8-0.6 2.1 0 1.4 0.6 2.2 0.5 0.8 1.6 0.8 1 0 1.6-0.8 0.5-0.8 0.5-2.2 0-1.3-0.5-2.1-0.6-0.8-1.6-0.8zm0-1.1q1.6 0 2.5 1.1 1 1 1 2.9 0 1.9-1 3-0.9 1-2.5 1-1.7 0-2.6-1-1-1.1-1-3 0-1.9 1-2.9 0.9-1.1 2.6-1.1zm11.9 3.2v4.6h-1.2v-4.5q0-1.1-0.5-1.7-0.4-0.5-1.2-0.5-1 0-1.6 0.7-0.6 0.6-0.6 1.7v4.3h-1.3v-7.6h1.3v1.2q0.4-0.7 1-1.1 0.6-0.3 1.4-0.3 1.4 0 2 0.8 0.7 0.8 0.7 2.4z"/>
	<path id="Path 12" class="s2" d="m281.3 215.5h177.3v45.6h-177.3z"/>
	<path id="Await for class sent via  BLE by" class="s1" aria-label="Await for class sent via 
BLE by TIS module"  d="m298.7 231.2l-1.9-5-1.9 5zm-6.5 3.8l3.9-10.2h1.5l3.9 10.2h-1.4l-1-2.6h-4.6l-0.9 2.6zm11.5 0l-2-7.7h1.3l1.5 6 1.6-6h1.5l1.6 6 1.5-6h1.3l-2 7.7h-1.5l-1.7-6.3-1.6 6.3zm14.9-3.8h-1.3q-1.5 0-2.1 0.3-0.6 0.3-0.6 1.2 0 0.7 0.5 1.1 0.4 0.3 1.2 0.3 1 0 1.7-0.7 0.6-0.7 0.6-2zm1.3-0.5v4.4h-1.3v-1.2q-0.4 0.7-1.1 1.1-0.6 0.3-1.5 0.3-1.2 0-1.9-0.7-0.7-0.6-0.7-1.7 0-1.3 0.8-2 0.9-0.7 2.6-0.7h1.8v-0.1q0-0.8-0.6-1.3-0.5-0.5-1.6-0.5-0.6 0-1.3 0.2-0.6 0.1-1.2 0.4v-1.1q0.7-0.3 1.4-0.4 0.6-0.2 1.3-0.2 1.6 0 2.4 0.9 0.9 0.9 0.9 2.6zm2.5 4.4v-7.7h1.3v7.7zm0-9.1v-1.6h1.3v1.6zm3.8-0.7h1.3v2.1h2.6v1h-2.6v4.2q0 0.9 0.2 1.2 0.3 0.2 1.1 0.2h1.3v1.1h-1.3q-1.5 0-2-0.6-0.6-0.5-0.6-1.9v-4.2h-0.9v-1h0.9zm12.7-0.8h1.2v1.1h-1.2q-0.7 0-1 0.2-0.2 0.3-0.2 1v0.7h2v1h-2v6.7h-1.3v-6.7h-1.2v-1h1.2v-0.5q0-1.3 0.6-1.9 0.6-0.6 1.9-0.6zm5.2 3.9q-1 0-1.6 0.8-0.6 0.8-0.6 2.1 0 1.4 0.6 2.2 0.6 0.8 1.6 0.8 1 0 1.6-0.8 0.6-0.8 0.6-2.2 0-1.3-0.6-2.1-0.6-0.8-1.6-0.8zm0-1.1q1.6 0 2.6 1.1 0.9 1 0.9 2.9 0 1.9-0.9 3-1 1.1-2.6 1.1-1.7 0-2.6-1.1-0.9-1.1-0.9-3 0-1.9 0.9-2.9 0.9-1.1 2.6-1.1zm10 0.1v1.3q-0.2-0.1-0.4-0.2-0.3-0.1-0.6-0.1-1.1 0-1.6 0.7-0.6 0.7-0.6 2v4.1h-1.3v-7.7h1.3v1.2q0.4-0.7 1-1 0.7-0.4 1.6-0.4 0.1 0 0.3 0 0.1 0 0.3 0.1zm11.3 0.4v1.2q-0.5-0.3-1.1-0.5-0.5-0.1-1.1-0.1-1.2 0-1.9 0.8-0.6 0.7-0.6 2.1 0 1.4 0.6 2.2 0.7 0.8 1.9 0.8 0.6 0 1.1-0.2 0.6-0.1 1.1-0.4v1.2q-0.5 0.2-1.1 0.3-0.6 0.2-1.2 0.2-1.7 0-2.7-1.1-1.1-1.1-1.1-3 0-1.8 1.1-2.9 1-1.1 2.8-1.1 0.6 0 1.1 0.1 0.6 0.2 1.1 0.4zm2.2 7.4v-10.7h1.2v10.7zm8.7-3.9h-1.3q-1.5 0-2.1 0.4-0.6 0.3-0.6 1.1 0 0.7 0.5 1.1 0.4 0.4 1.2 0.4 1 0 1.6-0.7 0.7-0.8 0.7-2zm1.2-0.5v4.3h-1.2v-1.1q-0.5 0.7-1.1 1-0.7 0.3-1.6 0.3-1.2 0-1.9-0.6-0.6-0.7-0.6-1.8 0-1.3 0.8-1.9 0.9-0.7 2.6-0.7h1.8v-0.1q0-0.9-0.6-1.4-0.6-0.4-1.6-0.4-0.7 0-1.3 0.1-0.6 0.2-1.2 0.5v-1.2q0.7-0.2 1.4-0.4 0.6-0.1 1.2-0.1 1.7 0 2.5 0.9 0.8 0.8 0.8 2.6zm7.5-3.1v1.2q-0.5-0.3-1.1-0.4-0.6-0.2-1.2-0.2-0.9 0-1.4 0.3-0.5 0.3-0.5 0.9 0 0.4 0.4 0.7 0.3 0.2 1.3 0.5l0.4 0.1q1.4 0.2 1.9 0.8 0.6 0.5 0.6 1.4 0 1.1-0.8 1.7-0.9 0.6-2.4 0.6-0.6 0-1.2-0.1-0.7-0.1-1.4-0.3v-1.3q0.7 0.3 1.3 0.5 0.7 0.2 1.4 0.2 0.9 0 1.3-0.3 0.5-0.3 0.5-0.9 0-0.5-0.3-0.8-0.4-0.2-1.5-0.5l-0.5-0.1q-1.2-0.2-1.7-0.7-0.5-0.6-0.5-1.5 0-1 0.8-1.6 0.7-0.6 2.1-0.6 0.7 0 1.4 0.1 0.6 0.1 1.1 0.3zm7.3 0v1.2q-0.5-0.3-1.1-0.4-0.6-0.2-1.2-0.2-0.9 0-1.4 0.3-0.5 0.3-0.5 0.9 0 0.4 0.4 0.7 0.3 0.2 1.3 0.5l0.4 0.1q1.4 0.2 1.9 0.8 0.6 0.5 0.6 1.4 0 1.1-0.8 1.7-0.9 0.6-2.4 0.6-0.6 0-1.3-0.1-0.6-0.1-1.4-0.3v-1.3q0.7 0.3 1.4 0.5 0.7 0.2 1.4 0.2 0.8 0 1.3-0.3 0.5-0.3 0.5-0.9 0-0.5-0.3-0.8-0.4-0.2-1.6-0.5l-0.4-0.1q-1.2-0.2-1.7-0.7-0.5-0.6-0.5-1.5 0-1 0.8-1.6 0.7-0.6 2.1-0.6 0.7 0 1.4 0.1 0.6 0.1 1.1 0.3zm11.7 0v1.2q-0.5-0.3-1.1-0.4-0.5-0.2-1.2-0.2-0.9 0-1.4 0.3-0.4 0.3-0.4 0.9 0 0.4 0.3 0.7 0.3 0.2 1.3 0.5l0.5 0.1q1.3 0.2 1.9 0.8 0.5 0.5 0.5 1.4 0 1.1-0.8 1.7-0.8 0.6-2.3 0.6-0.6 0-1.3-0.1-0.7-0.1-1.4-0.3v-1.3q0.7 0.3 1.4 0.5 0.6 0.2 1.3 0.2 0.9 0 1.4-0.3 0.5-0.3 0.5-0.9 0-0.5-0.4-0.8-0.3-0.2-1.5-0.5l-0.4-0.1q-1.2-0.2-1.7-0.7-0.6-0.6-0.6-1.5 0-1 0.8-1.6 0.8-0.6 2.2-0.6 0.7 0 1.3 0.1 0.6 0.1 1.1 0.3zm9 3.3v0.6h-5.8q0.1 1.3 0.8 2 0.7 0.7 1.9 0.7 0.8 0 1.4-0.2 0.7-0.2 1.4-0.5v1.1q-0.7 0.3-1.4 0.5-0.7 0.1-1.4 0.1-1.9 0-2.9-1-1.1-1.1-1.1-2.9 0-1.9 1-3 1-1.1 2.8-1.1 1.5 0 2.4 1 0.9 1 0.9 2.7zm-5.7-0.4h4.4q0-1-0.5-1.6-0.6-0.6-1.5-0.6-1.1 0-1.7 0.6-0.7 0.5-0.7 1.6zm14.1-0.1v4.6h-1.2v-4.5q0-1.1-0.5-1.7-0.4-0.5-1.2-0.5-1 0-1.6 0.6-0.6 0.7-0.6 1.8v4.3h-1.3v-7.6h1.3v1.2q0.4-0.7 1-1.1 0.7-0.3 1.5-0.3 1.3 0 1.9 0.8 0.7 0.8 0.7 2.4zm2.5-5.2h1.3v2.2h2.6v1h-2.6v4.1q0 0.9 0.2 1.2 0.3 0.3 1.1 0.3h1.3v1h-1.3q-1.5 0-2-0.5-0.6-0.6-0.6-2v-4.1h-0.9v-1h0.9zm11.9 9.8l-2.8-7.6h1.3l2.4 6.4 2.4-6.4h1.3l-2.9 7.6zm6.4 0v-7.6h1.2v7.6zm0-9v-1.6h1.3v1.6zm8.6 5.2h-1.2q-1.6 0-2.2 0.3-0.5 0.4-0.5 1.2 0 0.7 0.4 1.1 0.4 0.4 1.2 0.4 1 0 1.7-0.8 0.6-0.7 0.6-2zm1.3-0.5v4.4h-1.3v-1.2q-0.4 0.7-1.1 1.1-0.6 0.3-1.5 0.3-1.2 0-1.9-0.7-0.7-0.6-0.7-1.7 0-1.3 0.9-2 0.8-0.6 2.5-0.6h1.8v-0.2q0-0.8-0.6-1.3-0.5-0.5-1.6-0.5-0.6 0-1.3 0.2-0.6 0.1-1.1 0.4v-1.1q0.6-0.3 1.3-0.4 0.6-0.2 1.3-0.2 1.6 0 2.4 0.9 0.9 0.9 0.9 2.6zm-142 16.5h-2.3v3.8h2.3q1.1 0 1.6-0.5 0.5-0.5 0.5-1.4 0-1-0.5-1.4-0.5-0.5-1.6-0.5zm-0.2-4.2h-2.1v3.1h2.1q1 0 1.5-0.4 0.5-0.4 0.5-1.1 0-0.8-0.5-1.2-0.5-0.4-1.5-0.4zm-3.4 9.1v-10.2h3.5q1.6 0 2.4 0.6 0.9 0.7 0.9 1.9 0 0.9-0.5 1.5-0.4 0.5-1.2 0.7 1 0.2 1.5 0.9 0.6 0.7 0.6 1.7 0 1.4-0.9 2.1-1 0.8-2.7 0.8zm9.6 0v-10.2h1.4v9h5v1.2zm7.8 0v-10.2h6.4v1.1h-5v3.1h4.8v1.1h-4.8v3.7h5.2v1.2zm18.7-3.8q0-1.4-0.6-2.2-0.6-0.8-1.5-0.8-1 0-1.6 0.8-0.6 0.8-0.6 2.2 0 1.4 0.6 2.1 0.6 0.8 1.6 0.8 0.9 0 1.5-0.8 0.6-0.7 0.6-2.1zm-4.3-6.8v4.1q0.4-0.7 1-1 0.6-0.4 1.5-0.4 1.4 0 2.2 1.2 0.9 1.1 0.9 2.9 0 1.8-0.9 2.9-0.8 1.1-2.2 1.1-0.9 0-1.5-0.3-0.6-0.4-1-1.1v1.2h-1.3v-10.6zm14.3 2.9l-3.4 8.4q-0.5 1.4-1.1 1.8-0.5 0.4-1.3 0.4h-1v-1.1h0.7q0.5 0 0.8-0.2 0.3-0.2 0.7-1.2l0.2-0.5-3.1-7.6h1.3l2.4 6 2.4-6zm4.8-1.4v-1.1h8.7v1.1h-3.6v9.1h-1.4v-9.1zm9.9 9.1v-10.2h1.4v10.2zm10.3-9.9v1.4q-0.8-0.4-1.5-0.6-0.7-0.2-1.4-0.2-1.1 0-1.7 0.5-0.6 0.4-0.6 1.2 0 0.7 0.4 1 0.4 0.4 1.5 0.6l0.9 0.2q1.5 0.2 2.2 1 0.8 0.7 0.8 2 0 1.5-1 2.2-1 0.8-2.9 0.8-0.8 0-1.6-0.2-0.8-0.1-1.7-0.5v-1.4q0.9 0.5 1.7 0.7 0.8 0.3 1.6 0.3 1.2 0 1.8-0.5 0.6-0.5 0.6-1.3 0-0.8-0.4-1.2-0.5-0.4-1.5-0.6l-0.9-0.2q-1.5-0.3-2.2-1-0.7-0.6-0.7-1.8 0-1.3 0.9-2.1 1-0.8 2.7-0.8 0.7 0 1.4 0.1 0.8 0.2 1.6 0.4zm13.1 3.7q0.5-0.8 1.1-1.2 0.7-0.5 1.6-0.5 1.2 0 1.8 0.9 0.7 0.8 0.7 2.4v4.6h-1.3v-4.6q0-1.1-0.4-1.6-0.4-0.6-1.2-0.6-1 0-1.5 0.7-0.6 0.6-0.6 1.8v4.3h-1.3v-4.6q0-1.1-0.4-1.6-0.3-0.6-1.2-0.6-0.9 0-1.5 0.7-0.6 0.6-0.6 1.8v4.3h-1.2v-7.7h1.2v1.2q0.5-0.7 1.1-1 0.6-0.4 1.4-0.4 0.8 0 1.4 0.5 0.6 0.4 0.9 1.2zm10.6-0.6q-1 0-1.6 0.8-0.6 0.8-0.6 2.2 0 1.3 0.6 2.1 0.6 0.8 1.6 0.8 1 0 1.6-0.8 0.6-0.8 0.6-2.1 0-1.4-0.6-2.2-0.6-0.8-1.6-0.8zm0-1.1q1.7 0 2.6 1.1 0.9 1.1 0.9 3 0 1.8-0.9 2.9-0.9 1.1-2.6 1.1-1.6 0-2.6-1.1-0.9-1.1-0.9-2.9 0-1.9 0.9-3 1-1.1 2.6-1.1zm10.7 1.4v-4.1h1.2v10.6h-1.2v-1.2q-0.4 0.7-1 1.1-0.6 0.3-1.5 0.3-1.4 0-2.2-1.1-0.9-1.1-0.9-2.9 0-1.8 0.9-2.9 0.8-1.2 2.2-1.2 0.9 0 1.5 0.4 0.6 0.3 1 1zm-4.3 2.7q0 1.4 0.5 2.1 0.6 0.8 1.6 0.8 1 0 1.6-0.8 0.6-0.7 0.6-2.1 0-1.4-0.6-2.2-0.6-0.8-1.6-0.8-1 0-1.6 0.8-0.5 0.8-0.5 2.2zm8 0.8v-4.7h1.2v4.6q0 1.1 0.5 1.7 0.4 0.5 1.2 0.5 1.1 0 1.6-0.7 0.6-0.6 0.6-1.7v-4.4h1.3v7.7h-1.3v-1.2q-0.4 0.7-1 1.1-0.6 0.3-1.4 0.3-1.3 0-2-0.8-0.7-0.9-0.7-2.4zm3.2-4.9zm5.8 7.9v-10.6h1.2v10.6zm10.5-4.2v0.7h-5.8q0.1 1.3 0.8 1.9 0.7 0.7 1.9 0.7 0.8 0 1.4-0.2 0.7-0.1 1.4-0.5v1.2q-0.7 0.3-1.4 0.4-0.7 0.2-1.4 0.2-1.9 0-2.9-1.1-1.1-1-1.1-2.9 0-1.8 1-2.9 1-1.2 2.7-1.2 1.6 0 2.5 1 0.9 1 0.9 2.7zm-5.8-0.3h4.5q0-1.1-0.6-1.7-0.5-0.6-1.4-0.6-1.1 0-1.7 0.6-0.7 0.6-0.8 1.7z"/>
	<path id="Path 14" class="s3" d="m371.1 62.8l0.2 8.3h-2l-0.2-8.2zm5.1 6.1l-5.7 12.2-6.3-11.9zm-4.7 60.6l-0.2 7.4h-2l0.2-7.5zm4.8 5.6l-6.2 11.9-5.7-12.2zm-5.3 60v10.2h-2v-10.2zm5 8.2l-6 12-6-12zm-95.2 114.7h-102.6l1-1v11.6h-2v-12.6h103.6zm-96.6 8.6l-6 12-6-12zm275.1-10.6h104.6v12.9h-2v-11.9l1 1h-103.6zm109.6 10.9l-6 12-6-12zm-197.9-65.8v12.7h-2v-12.7zm5 10.7l-6 12-6-12z"/>
	<path id="CG PP" class="s1" aria-label="CG
PP"  d="m468.1 303.9v1.3q-0.6-0.6-1.3-0.9-0.7-0.2-1.5-0.2-1.5 0-2.3 0.9-0.8 0.9-0.8 2.6 0 1.8 0.8 2.7 0.8 0.9 2.3 0.9 0.8 0 1.5-0.3 0.7-0.3 1.3-0.8v1.2q-0.7 0.4-1.4 0.7-0.7 0.2-1.4 0.2-2 0-3.2-1.2-1.1-1.3-1.1-3.4 0-2.1 1.1-3.3 1.2-1.2 3.2-1.2 0.8 0 1.4 0.2 0.7 0.2 1.4 0.6zm7.7 6.9v-2.4h-1.9v-1h3.1v3.8q-0.7 0.5-1.5 0.7-0.8 0.3-1.8 0.3-2 0-3.2-1.2-1.1-1.2-1.1-3.4 0-2.1 1.1-3.3 1.2-1.2 3.2-1.2 0.9 0 1.7 0.2 0.7 0.2 1.4 0.6v1.3q-0.7-0.6-1.4-0.9-0.7-0.2-1.6-0.2-1.6 0-2.4 0.9-0.8 0.9-0.8 2.6 0 1.8 0.8 2.7 0.8 0.9 2.4 0.9 0.7 0 1.2-0.1 0.5-0.1 0.8-0.3zm-217-5.6h-1.4v3.3h1.4q0.9 0 1.3-0.4 0.5-0.4 0.5-1.2 0-0.8-0.5-1.2-0.4-0.5-1.3-0.5zm-2.6 7.8v-8.7h2.6q1.5 0 2.3 0.6 0.7 0.7 0.7 2 0 1.3-0.7 1.9-0.8 0.7-2.3 0.7h-1.4v3.5zm9.9-7.8h-1.5v3.3h1.5q0.8 0 1.2-0.4 0.5-0.4 0.5-1.2 0-0.8-0.5-1.2-0.4-0.5-1.2-0.5zm-2.7 7.8v-8.7h2.7q1.4 0 2.2 0.6 0.7 0.7 0.7 2 0 1.3-0.7 1.9-0.8 0.7-2.2 0.7h-1.5v3.5z"/>
	<path id="RH" class="s1" aria-label="RH"  d="m386.3 359.9q0.4 0.1 0.7 0.5 0.4 0.5 0.8 1.2l1.2 2.4h-1.3l-1.1-2.2q-0.5-0.9-0.9-1.2-0.4-0.3-1.1-0.3h-1.3v3.7h-1.1v-8.7h2.6q1.5 0 2.3 0.6 0.7 0.6 0.7 1.9 0 0.8-0.4 1.3-0.4 0.6-1.1 0.8zm-1.5-3.7h-1.5v3.1h1.5q0.9 0 1.3-0.4 0.5-0.4 0.5-1.1 0-0.8-0.5-1.2-0.4-0.4-1.3-0.4zm5.7 7.8v-8.7h1.2v3.5h4.3v-3.5h1.2v8.7h-1.2v-4.2h-4.3v4.2z"/>
	<path id="Path 17" class="s2" d="m280.8 316.9l89.3-33.3 89.3 33.3-89.3 33.2z"/>
	<path id="Current state" class="s1" aria-label="Current
state"  d="m354.2 305.6v1.4q-0.7-0.6-1.5-0.9-0.8-0.4-1.6-0.4-1.8 0-2.7 1.1-0.9 1.1-0.9 3.1 0 2 0.9 3.1 0.9 1.1 2.7 1.1 0.8 0 1.6-0.4 0.8-0.3 1.5-0.9v1.4q-0.7 0.5-1.5 0.8-0.8 0.2-1.7 0.2-2.3 0-3.7-1.4-1.3-1.4-1.3-3.9 0-2.5 1.3-3.9 1.4-1.4 3.7-1.4 0.9 0 1.7 0.3 0.8 0.2 1.5 0.7zm2 6.4v-4.7h1.2v4.6q0 1.1 0.5 1.7 0.4 0.5 1.2 0.5 1 0 1.6-0.6 0.6-0.7 0.6-1.8v-4.4h1.3v7.7h-1.3v-1.2q-0.4 0.7-1 1.1-0.6 0.3-1.4 0.3-1.4 0-2-0.8-0.7-0.8-0.7-2.4zm3.1-4.8zm10.3 0v1.3q-0.2-0.1-0.5-0.2-0.2 0-0.5 0-1.1 0-1.6 0.7-0.6 0.7-0.6 2v4h-1.3v-7.7h1.3v1.2q0.4-0.7 1-1 0.7-0.3 1.6-0.3 0.1 0 0.3 0 0.1 0 0.3 0zm5.5 0v1.3q-0.2-0.1-0.4-0.2-0.3 0-0.6 0-1.1 0-1.6 0.7-0.6 0.7-0.6 2v4h-1.3v-7.7h1.3v1.2q0.4-0.7 1-1 0.7-0.3 1.6-0.3 0.1 0 0.3 0 0.1 0 0.3 0zm7.6 3.7v0.6h-5.8q0.1 1.3 0.8 2 0.7 0.6 1.9 0.6 0.8 0 1.4-0.1 0.7-0.2 1.4-0.6v1.2q-0.7 0.3-1.4 0.4-0.7 0.2-1.4 0.2-1.9 0-2.9-1.1-1.1-1-1.1-2.9 0-1.8 1-2.9 1-1.1 2.7-1.1 1.6 0 2.5 1 0.9 0.9 0.9 2.7zm-5.8-0.4h4.5q0-1-0.6-1.7-0.5-0.6-1.4-0.6-1.1 0-1.7 0.6-0.7 0.6-0.8 1.7zm14.2-0.1v4.6h-1.2v-4.6q0-1.1-0.5-1.6-0.4-0.5-1.2-0.5-1.1 0-1.6 0.6-0.6 0.7-0.6 1.8v4.3h-1.3v-7.7h1.3v1.2q0.4-0.7 1-1 0.6-0.3 1.4-0.3 1.4 0 2 0.8 0.7 0.8 0.7 2.4zm2.5-5.2h1.3v2.1h2.6v1h-2.6v4.2q0 0.9 0.2 1.2 0.3 0.2 1.1 0.2h1.3v1.1h-1.3q-1.5 0-2-0.5-0.6-0.6-0.6-2v-4.2h-0.9v-1h0.9zm-33.8 19.4v1.2q-0.5-0.2-1.1-0.4-0.6-0.1-1.2-0.1-0.9 0-1.4 0.3-0.4 0.3-0.4 0.8 0 0.5 0.3 0.7 0.3 0.3 1.3 0.5l0.5 0.1q1.3 0.3 1.9 0.8 0.5 0.5 0.5 1.5 0 1-0.8 1.6-0.9 0.7-2.3 0.7-0.6 0-1.3-0.1-0.7-0.2-1.4-0.4v-1.3q0.7 0.4 1.4 0.5 0.6 0.2 1.3 0.2 0.9 0 1.4-0.3 0.4-0.3 0.4-0.8 0-0.6-0.3-0.8-0.3-0.3-1.5-0.6l-0.5-0.1q-1.1-0.2-1.6-0.7-0.6-0.5-0.6-1.4 0-1.1 0.8-1.7 0.8-0.6 2.2-0.6 0.7 0 1.3 0.1 0.6 0.1 1.1 0.3zm2.5-2.4h1.3v2.2h2.5v1h-2.5v4.2q0 0.9 0.2 1.2 0.3 0.2 1.1 0.2h1.2v1.1h-1.2q-1.5 0-2.1-0.6-0.5-0.5-0.5-1.9v-4.2h-0.9v-1h0.9zm10.3 6h-1.3q-1.5 0-2.1 0.3-0.6 0.4-0.6 1.2 0 0.7 0.5 1.1 0.4 0.4 1.2 0.4 1 0 1.7-0.7 0.6-0.8 0.6-2zm1.3-0.5v4.3h-1.3v-1.1q-0.4 0.7-1.1 1-0.6 0.3-1.5 0.3-1.2 0-1.9-0.6-0.7-0.7-0.7-1.8 0-1.3 0.9-1.9 0.8-0.7 2.5-0.7h1.8v-0.1q0-0.9-0.6-1.4-0.5-0.4-1.6-0.4-0.6 0-1.3 0.1-0.6 0.2-1.1 0.5v-1.2q0.6-0.2 1.3-0.4 0.6-0.1 1.3-0.1 1.6 0 2.4 0.8 0.9 0.9 0.9 2.7zm2.6-5.5h1.3v2.2h2.6v0.9h-2.6v4.2q0 0.9 0.2 1.2 0.3 0.3 1.1 0.3h1.3v1h-1.3q-1.5 0-2-0.5-0.6-0.6-0.6-2v-4.2h-0.9v-0.9h0.9zm12.1 5.7v0.6h-5.8q0.1 1.3 0.8 2 0.7 0.6 2 0.6 0.7 0 1.4-0.1 0.7-0.2 1.3-0.6v1.2q-0.6 0.3-1.4 0.4-0.7 0.2-1.4 0.2-1.8 0-2.9-1.1-1.1-1-1.1-2.9 0-1.8 1-2.9 1.1-1.1 2.8-1.1 1.5 0 2.4 1 0.9 1 0.9 2.7zm-5.7-0.4h4.5q0-1-0.6-1.7-0.6-0.6-1.5-0.6-1.1 0-1.7 0.6-0.6 0.6-0.7 1.7z"/>
	<path id="Path 19" class="s2" d="m254.6 526.8h103.5v48.2h-103.5z"/>
	<path id="Rotate to PP position" class="s1" aria-label="Rotate to
PP position"  d="m281.2 542.2q0.5 0.2 0.9 0.7 0.4 0.4 0.8 1.3l1.4 2.8h-1.5l-1.3-2.6q-0.5-1-0.9-1.4-0.5-0.3-1.3-0.3h-1.5v4.3h-1.4v-10.2h3.1q1.7 0 2.6 0.7 0.9 0.8 0.9 2.2 0 1-0.5 1.6-0.4 0.7-1.3 0.9zm-1.7-4.3h-1.7v3.7h1.7q1 0 1.5-0.5 0.5-0.5 0.5-1.4 0-0.9-0.5-1.3-0.5-0.5-1.5-0.5zm8.9 2.3q-1 0-1.6 0.8-0.6 0.8-0.6 2.2 0 1.4 0.6 2.1 0.6 0.8 1.6 0.8 1 0 1.6-0.8 0.6-0.8 0.6-2.1 0-1.4-0.6-2.2-0.6-0.8-1.6-0.8zm0-1q1.6 0 2.6 1 0.9 1.1 0.9 3 0 1.9-0.9 2.9-1 1.1-2.6 1.1-1.7 0-2.6-1.1-0.9-1-0.9-2.9 0-1.9 0.9-3 0.9-1 2.6-1zm5.6-2h1.2v2.1h2.6v1h-2.6v4.2q0 0.9 0.3 1.2 0.2 0.2 1 0.2h1.3v1.1h-1.3q-1.4 0-2-0.5-0.5-0.6-0.5-2v-4.2h-1v-1h1zm10.2 6h-1.2q-1.6 0-2.2 0.4-0.5 0.3-0.5 1.2 0 0.6 0.4 1 0.4 0.4 1.2 0.4 1 0 1.7-0.7 0.6-0.8 0.6-2zm1.3-0.5v4.4h-1.3v-1.2q-0.4 0.7-1.1 1-0.6 0.4-1.5 0.4-1.2 0-1.9-0.7-0.7-0.7-0.7-1.8 0-1.3 0.9-1.9 0.8-0.7 2.5-0.7h1.8v-0.1q0-0.9-0.6-1.3-0.5-0.5-1.6-0.5-0.6 0-1.2 0.1-0.7 0.2-1.2 0.5v-1.2q0.6-0.2 1.3-0.4 0.6-0.1 1.3-0.1 1.6 0 2.4 0.9 0.9 0.8 0.9 2.6zm2.5-5.5h1.3v2.2h2.6v1h-2.6v4.1q0 1 0.2 1.2 0.3 0.3 1.1 0.3h1.3v1.1h-1.3q-1.5 0-2-0.6-0.6-0.5-0.6-2v-4.1h-0.9v-1h0.9zm12.1 5.7v0.6h-5.8q0.1 1.3 0.8 2 0.7 0.7 1.9 0.7 0.8 0 1.4-0.2 0.7-0.2 1.4-0.6v1.2q-0.7 0.3-1.4 0.5-0.7 0.1-1.4 0.1-1.9 0-2.9-1-1.1-1.1-1.1-2.9 0-1.9 1-3 1-1.1 2.7-1.1 1.6 0 2.5 1 0.9 1 0.9 2.7zm-5.8-0.4h4.5q0-1-0.5-1.6-0.6-0.6-1.5-0.6-1.1 0-1.7 0.5-0.7 0.6-0.8 1.7zm12.4-5.3h1.3v2.2h2.6v0.9h-2.6v4.2q0 0.9 0.2 1.2 0.3 0.3 1.1 0.3h1.3v1h-1.3q-1.5 0-2.1-0.5-0.5-0.6-0.5-2v-4.2h-0.9v-0.9h0.9zm8.5 3q-1 0-1.6 0.8-0.6 0.8-0.6 2.2 0 1.4 0.6 2.1 0.6 0.8 1.6 0.8 1 0 1.6-0.8 0.6-0.8 0.6-2.1 0-1.4-0.6-2.2-0.6-0.8-1.6-0.8zm0-1q1.7 0 2.6 1 0.9 1.1 0.9 3 0 1.9-0.9 2.9-0.9 1.1-2.6 1.1-1.6 0-2.6-1.1-0.9-1-0.9-2.9 0-1.9 0.9-3 1-1 2.6-1zm-61.7 15.7h-1.7v3.9h1.7q1 0 1.5-0.5 0.5-0.5 0.5-1.5 0-0.9-0.5-1.4-0.5-0.5-1.5-0.5zm-3.1 9.1v-10.2h3.1q1.7 0 2.6 0.8 0.9 0.7 0.9 2.2 0 1.6-0.9 2.3-0.9 0.8-2.6 0.8h-1.7v4.1zm11.5-9.1h-1.7v3.9h1.7q1 0 1.5-0.5 0.5-0.5 0.5-1.5 0-0.9-0.5-1.4-0.5-0.5-1.5-0.5zm-3.1 9.1v-10.2h3.1q1.7 0 2.6 0.8 0.9 0.7 0.9 2.2 0 1.6-0.9 2.3-0.9 0.8-2.6 0.8h-1.7v4.1zm14-1.1v4h-1.2v-10.6h1.2v1.2q0.4-0.7 1-1 0.6-0.3 1.5-0.3 1.4 0 2.2 1.1 0.9 1.1 0.9 2.9 0 1.8-0.9 2.9-0.8 1.1-2.2 1.1-0.9 0-1.5-0.3-0.6-0.4-1-1zm4.3-2.7q0-1.4-0.6-2.2-0.5-0.8-1.5-0.8-1 0-1.6 0.8-0.6 0.8-0.6 2.2 0 1.4 0.6 2.2 0.6 0.7 1.6 0.7 1 0 1.5-0.7 0.6-0.8 0.6-2.2zm6.4-3q-1 0-1.6 0.8-0.6 0.8-0.6 2.2 0 1.4 0.6 2.1 0.6 0.8 1.6 0.8 1 0 1.6-0.8 0.6-0.8 0.6-2.1 0-1.4-0.6-2.2-0.6-0.8-1.6-0.8zm0-1q1.6 0 2.5 1 1 1.1 1 3 0 1.9-1 2.9-0.9 1.1-2.5 1.1-1.7 0-2.6-1.1-0.9-1-0.9-2.9 0-1.9 0.9-3 0.9-1 2.6-1zm10.4 0.4v1.2q-0.5-0.3-1.1-0.4-0.5-0.2-1.1-0.2-1 0-1.5 0.3-0.4 0.3-0.4 0.9 0 0.4 0.3 0.7 0.3 0.2 1.4 0.4l0.4 0.1q1.3 0.3 1.9 0.8 0.6 0.6 0.6 1.5 0 1.1-0.9 1.7-0.8 0.6-2.3 0.6-0.6 0-1.3-0.1-0.7-0.1-1.4-0.4v-1.3q0.7 0.4 1.4 0.6 0.7 0.1 1.3 0.1 0.9 0 1.4-0.3 0.5-0.3 0.5-0.8 0-0.5-0.4-0.8-0.3-0.3-1.5-0.5l-0.4-0.1q-1.2-0.3-1.7-0.8-0.5-0.5-0.5-1.4 0-1.1 0.7-1.7 0.8-0.5 2.2-0.5 0.7 0 1.3 0.1 0.6 0.1 1.1 0.3zm2.5 7.4v-7.7h1.2v7.7zm0-9v-1.6h1.3v1.6zm3.8-0.8h1.3v2.1h2.6v1h-2.6v4.2q0 0.9 0.3 1.2 0.2 0.2 1 0.2h1.3v1.1h-1.3q-1.4 0-2-0.5-0.6-0.6-0.6-2v-4.2h-0.9v-1h0.9zm5.6 9.9v-7.7h1.2v7.7zm0-9.1v-1.6h1.3v1.6zm6.8 2.3q-1 0-1.6 0.8-0.6 0.8-0.6 2.2 0 1.3 0.6 2.1 0.6 0.8 1.6 0.8 1 0 1.6-0.8 0.6-0.8 0.6-2.1 0-1.4-0.6-2.2-0.6-0.8-1.6-0.8zm0-1.1q1.7 0 2.6 1.1 0.9 1.1 0.9 3 0 1.8-0.9 2.9-0.9 1.1-2.6 1.1-1.6 0-2.6-1.1-0.9-1.1-0.9-2.9 0-1.9 0.9-3 1-1.1 2.6-1.1zm12 3.3v4.6h-1.3v-4.6q0-1.1-0.4-1.6-0.4-0.6-1.3-0.6-1 0-1.6 0.7-0.6 0.6-0.6 1.7v4.4h-1.2v-7.7h1.2v1.2q0.5-0.7 1.1-1 0.6-0.4 1.4-0.4 1.3 0 2 0.9 0.7 0.8 0.7 2.4z"/>
	<path id="Path 21" class="s2" d="m126.5 526.8h103.4v48.2h-103.4z"/>
	<path id="Rotate to RH position" class="s1" aria-label="Rotate to
RH position"  d="m151.2 542.2q0.5 0.2 0.9 0.7 0.4 0.4 0.8 1.3l1.4 2.8h-1.5l-1.3-2.6q-0.5-1-0.9-1.4-0.5-0.3-1.3-0.3h-1.5v4.3h-1.4v-10.2h3.1q1.7 0 2.6 0.7 0.9 0.8 0.9 2.2 0 1-0.5 1.6-0.4 0.7-1.3 0.9zm-1.7-4.3h-1.7v3.7h1.7q1 0 1.5-0.5 0.5-0.5 0.5-1.4 0-0.9-0.5-1.3-0.5-0.5-1.5-0.5zm8.9 2.3q-1 0-1.6 0.8-0.6 0.8-0.6 2.2 0 1.4 0.6 2.1 0.6 0.8 1.6 0.8 1 0 1.6-0.8 0.6-0.8 0.6-2.1 0-1.4-0.6-2.2-0.6-0.8-1.6-0.8zm0-1q1.6 0 2.6 1 0.9 1.1 0.9 3 0 1.9-0.9 2.9-1 1.1-2.6 1.1-1.7 0-2.6-1.1-0.9-1-0.9-2.9 0-1.9 0.9-3 0.9-1 2.6-1zm5.6-2h1.2v2.1h2.6v1h-2.6v4.2q0 0.9 0.3 1.2 0.2 0.2 1 0.2h1.3v1.1h-1.3q-1.4 0-2-0.5-0.5-0.6-0.5-2v-4.2h-1v-1h1zm10.2 6h-1.2q-1.6 0-2.2 0.4-0.5 0.3-0.5 1.2 0 0.6 0.4 1 0.4 0.4 1.2 0.4 1 0 1.7-0.7 0.6-0.8 0.6-2zm1.3-0.5v4.4h-1.3v-1.2q-0.4 0.7-1.1 1-0.6 0.4-1.5 0.4-1.2 0-1.9-0.7-0.7-0.7-0.7-1.8 0-1.3 0.9-1.9 0.8-0.7 2.5-0.7h1.8v-0.1q0-0.9-0.6-1.3-0.5-0.5-1.6-0.5-0.6 0-1.2 0.1-0.7 0.2-1.2 0.5v-1.2q0.6-0.2 1.3-0.4 0.6-0.1 1.3-0.1 1.6 0 2.4 0.9 0.9 0.8 0.9 2.6zm2.5-5.5h1.3v2.2h2.6v1h-2.6v4.1q0 1 0.2 1.2 0.3 0.3 1.1 0.3h1.3v1.1h-1.3q-1.5 0-2-0.6-0.6-0.5-0.6-2v-4.1h-0.9v-1h0.9zm12.1 5.7v0.6h-5.8q0.1 1.3 0.8 2 0.7 0.7 1.9 0.7 0.8 0 1.4-0.2 0.7-0.2 1.4-0.6v1.2q-0.7 0.3-1.4 0.5-0.7 0.1-1.4 0.1-1.9 0-2.9-1-1.1-1.1-1.1-2.9 0-1.9 1-3 1-1.1 2.7-1.1 1.6 0 2.5 1 0.9 1 0.9 2.7zm-5.8-0.4h4.5q0-1-0.5-1.6-0.6-0.6-1.5-0.6-1.1 0-1.7 0.5-0.7 0.6-0.8 1.7zm12.4-5.3h1.3v2.2h2.6v0.9h-2.6v4.2q0 0.9 0.2 1.2 0.3 0.3 1.1 0.3h1.3v1h-1.3q-1.5 0-2.1-0.5-0.5-0.6-0.5-2v-4.2h-0.9v-0.9h0.9zm8.5 3q-1 0-1.6 0.8-0.6 0.8-0.6 2.2 0 1.4 0.6 2.1 0.6 0.8 1.6 0.8 1 0 1.6-0.8 0.6-0.8 0.6-2.1 0-1.4-0.6-2.2-0.6-0.8-1.6-0.8zm0-1q1.7 0 2.6 1 0.9 1.1 0.9 3 0 1.9-0.9 2.9-0.9 1.1-2.6 1.1-1.6 0-2.6-1.1-0.9-1-0.9-2.9 0-1.9 0.9-3 1-1 2.6-1zm-61 20q0.5 0.2 0.9 0.7 0.4 0.5 0.8 1.3l1.4 2.8h-1.5l-1.3-2.6q-0.5-1-0.9-1.4-0.5-0.3-1.3-0.3h-1.5v4.3h-1.4v-10.2h3.1q1.7 0 2.6 0.7 0.9 0.8 0.9 2.2 0 1-0.5 1.6-0.4 0.7-1.3 0.9zm-1.7-4.3h-1.7v3.7h1.7q1 0 1.5-0.5 0.5-0.5 0.5-1.4 0-0.9-0.5-1.3-0.5-0.5-1.5-0.5zm6.6 9.1v-10.2h1.4v4.2h5v-4.2h1.4v10.2h-1.4v-4.9h-5v4.9zm16.1-1.1v4h-1.2v-10.6h1.2v1.2q0.4-0.7 1-1 0.6-0.3 1.5-0.3 1.4 0 2.2 1.1 0.9 1.1 0.9 2.9 0 1.8-0.9 2.9-0.8 1.1-2.2 1.1-0.9 0-1.5-0.3-0.6-0.4-1-1zm4.3-2.7q0-1.4-0.6-2.2-0.5-0.8-1.5-0.8-1 0-1.6 0.8-0.6 0.8-0.6 2.2 0 1.4 0.6 2.2 0.6 0.7 1.6 0.7 1 0 1.5-0.7 0.6-0.8 0.6-2.2zm6.4-3q-1.1 0-1.6 0.8-0.6 0.8-0.6 2.2 0 1.4 0.6 2.1 0.5 0.8 1.6 0.8 1 0 1.6-0.8 0.5-0.8 0.5-2.1 0-1.4-0.5-2.2-0.6-0.8-1.6-0.8zm0-1q1.6 0 2.5 1 1 1.1 1 3 0 1.9-1 2.9-0.9 1.1-2.5 1.1-1.7 0-2.6-1.1-1-1-1-2.9 0-1.9 1-3 0.9-1 2.6-1zm10.4 0.4v1.2q-0.5-0.3-1.1-0.4-0.5-0.2-1.2-0.2-0.9 0-1.4 0.3-0.4 0.3-0.4 0.9 0 0.4 0.3 0.7 0.3 0.2 1.4 0.4l0.4 0.1q1.3 0.3 1.9 0.8 0.5 0.6 0.5 1.5 0 1.1-0.8 1.7-0.8 0.6-2.3 0.6-0.6 0-1.3-0.1-0.7-0.1-1.4-0.4v-1.3q0.7 0.4 1.4 0.6 0.6 0.1 1.3 0.1 0.9 0 1.4-0.3 0.5-0.3 0.5-0.8 0-0.5-0.4-0.8-0.3-0.3-1.5-0.5l-0.4-0.1q-1.2-0.3-1.7-0.8-0.5-0.5-0.5-1.4 0-1.1 0.7-1.7 0.8-0.5 2.2-0.5 0.7 0 1.3 0.1 0.6 0.1 1.1 0.3zm2.5 7.4v-7.7h1.2v7.7zm0-9v-1.6h1.3v1.6zm3.8-0.8h1.3v2.1h2.6v1h-2.6v4.2q0 0.9 0.3 1.2 0.2 0.2 1 0.2h1.3v1.1h-1.3q-1.5 0-2-0.5-0.6-0.6-0.6-2v-4.2h-0.9v-1h0.9zm5.5 9.9v-7.7h1.3v7.7zm0-9.1v-1.6h1.3v1.6zm6.8 2.3q-1 0-1.6 0.8-0.6 0.8-0.6 2.2 0 1.3 0.6 2.1 0.6 0.8 1.6 0.8 1 0 1.6-0.8 0.6-0.8 0.6-2.1 0-1.4-0.6-2.2-0.6-0.8-1.6-0.8zm0-1.1q1.7 0 2.6 1.1 0.9 1.1 0.9 3 0 1.8-0.9 2.9-0.9 1.1-2.6 1.1-1.6 0-2.6-1.1-0.9-1.1-0.9-2.9 0-1.9 0.9-3 1-1.1 2.6-1.1zm12 3.3v4.6h-1.3v-4.6q0-1.1-0.4-1.6-0.4-0.6-1.3-0.6-1 0-1.6 0.7-0.6 0.6-0.6 1.7v4.4h-1.2v-7.7h1.2v1.2q0.5-0.7 1.1-1 0.6-0.4 1.4-0.4 1.3 0 2 0.9 0.7 0.8 0.7 2.4z"/>
	<path id="Path 23" class="s2" d="m511.2 526.8h103.4v48.2h-103.4z"/>
	<path id="Rotate to RH position" class="s1" aria-label="Rotate to
RH position"  d="m537.2 542.2q0.5 0.2 0.9 0.7 0.4 0.4 0.8 1.3l1.4 2.8h-1.5l-1.3-2.6q-0.5-1-0.9-1.4-0.5-0.3-1.3-0.3h-1.5v4.3h-1.4v-10.2h3.1q1.7 0 2.6 0.7 0.9 0.8 0.9 2.2 0 1-0.5 1.6-0.4 0.7-1.3 0.9zm-1.7-4.3h-1.7v3.7h1.7q1 0 1.5-0.5 0.5-0.5 0.5-1.4 0-0.9-0.5-1.3-0.5-0.5-1.5-0.5zm8.9 2.3q-1 0-1.6 0.8-0.6 0.8-0.6 2.2 0 1.4 0.6 2.1 0.6 0.8 1.6 0.8 1 0 1.6-0.8 0.6-0.8 0.6-2.1 0-1.4-0.6-2.2-0.6-0.8-1.6-0.8zm0-1q1.6 0 2.6 1 0.9 1.1 0.9 3 0 1.9-0.9 2.9-1 1.1-2.6 1.1-1.7 0-2.6-1.1-0.9-1-0.9-2.9 0-1.9 0.9-3 0.9-1 2.6-1zm5.6-2h1.2v2.1h2.6v1h-2.6v4.2q0 0.9 0.3 1.2 0.2 0.2 1 0.2h1.3v1.1h-1.3q-1.4 0-2-0.5-0.5-0.6-0.5-2v-4.2h-1v-1h1zm10.2 6h-1.2q-1.6 0-2.2 0.4-0.5 0.3-0.5 1.2 0 0.6 0.4 1 0.4 0.4 1.2 0.4 1 0 1.7-0.7 0.6-0.8 0.6-2zm1.3-0.5v4.4h-1.3v-1.2q-0.4 0.7-1.1 1-0.6 0.4-1.5 0.4-1.2 0-1.9-0.7-0.7-0.7-0.7-1.8 0-1.3 0.9-1.9 0.8-0.7 2.5-0.7h1.8v-0.1q0-0.9-0.6-1.3-0.5-0.5-1.6-0.5-0.6 0-1.2 0.1-0.7 0.2-1.2 0.5v-1.2q0.6-0.2 1.3-0.4 0.6-0.1 1.3-0.1 1.6 0 2.4 0.9 0.9 0.8 0.9 2.6zm2.5-5.5h1.3v2.2h2.6v1h-2.6v4.1q0 1 0.2 1.2 0.3 0.3 1.1 0.3h1.3v1.1h-1.3q-1.5 0-2-0.6-0.6-0.5-0.6-2v-4.1h-0.9v-1h0.9zm12.1 5.7v0.6h-5.8q0.1 1.3 0.8 2 0.7 0.7 1.9 0.7 0.8 0 1.4-0.2 0.7-0.2 1.4-0.6v1.2q-0.7 0.3-1.4 0.5-0.7 0.1-1.4 0.1-1.9 0-2.9-1-1.1-1.1-1.1-2.9 0-1.9 1-3 1-1.1 2.7-1.1 1.6 0 2.5 1 0.9 1 0.9 2.7zm-5.8-0.4h4.5q0-1-0.5-1.6-0.6-0.6-1.5-0.6-1.1 0-1.7 0.5-0.7 0.6-0.8 1.7zm12.4-5.3h1.3v2.2h2.6v0.9h-2.6v4.2q0 0.9 0.2 1.2 0.3 0.3 1.1 0.3h1.3v1h-1.3q-1.5 0-2.1-0.5-0.5-0.6-0.5-2v-4.2h-0.9v-0.9h0.9zm8.5 3q-1 0-1.6 0.8-0.6 0.8-0.6 2.2 0 1.4 0.6 2.1 0.6 0.8 1.6 0.8 1 0 1.6-0.8 0.6-0.8 0.6-2.1 0-1.4-0.6-2.2-0.6-0.8-1.6-0.8zm0-1q1.7 0 2.6 1 0.9 1.1 0.9 3 0 1.9-0.9 2.9-0.9 1.1-2.6 1.1-1.6 0-2.6-1.1-0.9-1-0.9-2.9 0-1.9 0.9-3 1-1 2.6-1zm-61 20q0.5 0.2 0.9 0.7 0.4 0.5 0.8 1.3l1.4 2.8h-1.5l-1.3-2.6q-0.5-1-0.9-1.4-0.5-0.3-1.3-0.3h-1.5v4.3h-1.4v-10.2h3.1q1.7 0 2.6 0.7 0.9 0.8 0.9 2.2 0 1-0.5 1.6-0.4 0.7-1.3 0.9zm-1.7-4.3h-1.7v3.7h1.7q1 0 1.5-0.5 0.5-0.5 0.5-1.4 0-0.9-0.5-1.3-0.5-0.5-1.5-0.5zm6.6 9.1v-10.2h1.4v4.2h5v-4.2h1.4v10.2h-1.4v-4.9h-5v4.9zm16.1-1.1v4h-1.2v-10.6h1.2v1.2q0.4-0.7 1-1 0.6-0.3 1.5-0.3 1.4 0 2.2 1.1 0.9 1.1 0.9 2.9 0 1.8-0.9 2.9-0.8 1.1-2.2 1.1-0.9 0-1.5-0.3-0.6-0.4-1-1zm4.3-2.7q0-1.4-0.6-2.2-0.5-0.8-1.5-0.8-1 0-1.6 0.8-0.6 0.8-0.6 2.2 0 1.4 0.6 2.2 0.6 0.7 1.6 0.7 1 0 1.5-0.7 0.6-0.8 0.6-2.2zm6.4-3q-1.1 0-1.6 0.8-0.6 0.8-0.6 2.2 0 1.4 0.6 2.1 0.5 0.8 1.6 0.8 1 0 1.6-0.8 0.5-0.8 0.5-2.1 0-1.4-0.5-2.2-0.6-0.8-1.6-0.8zm0-1q1.6 0 2.5 1 1 1.1 1 3 0 1.9-1 2.9-0.9 1.1-2.5 1.1-1.7 0-2.6-1.1-1-1-1-2.9 0-1.9 1-3 0.9-1 2.6-1zm10.4 0.4v1.2q-0.5-0.3-1.1-0.4-0.5-0.2-1.2-0.2-0.9 0-1.4 0.3-0.4 0.3-0.4 0.9 0 0.4 0.3 0.7 0.3 0.2 1.3 0.4l0.5 0.1q1.3 0.3 1.9 0.8 0.5 0.6 0.5 1.5 0 1.1-0.8 1.7-0.8 0.6-2.3 0.6-0.6 0-1.3-0.1-0.7-0.1-1.4-0.4v-1.3q0.7 0.4 1.4 0.6 0.6 0.1 1.3 0.1 0.9 0 1.4-0.3 0.5-0.3 0.5-0.8 0-0.5-0.4-0.8-0.3-0.3-1.5-0.5l-0.4-0.1q-1.2-0.3-1.7-0.8-0.5-0.5-0.5-1.4 0-1.1 0.7-1.7 0.8-0.5 2.2-0.5 0.7 0 1.3 0.1 0.6 0.1 1.1 0.3zm2.5 7.4v-7.7h1.2v7.7zm0-9v-1.6h1.3v1.6zm3.8-0.8h1.3v2.1h2.6v1h-2.6v4.2q0 0.9 0.3 1.2 0.2 0.2 1 0.2h1.3v1.1h-1.3q-1.5 0-2-0.5-0.6-0.6-0.6-2v-4.2h-0.9v-1h0.9zm5.5 9.9v-7.7h1.3v7.7zm0-9.1v-1.6h1.3v1.6zm6.8 2.3q-1 0-1.6 0.8-0.6 0.8-0.6 2.2 0 1.3 0.6 2.1 0.6 0.8 1.6 0.8 1 0 1.6-0.8 0.6-0.8 0.6-2.1 0-1.4-0.6-2.2-0.6-0.8-1.6-0.8zm0-1.1q1.7 0 2.6 1.1 0.9 1.1 0.9 3 0 1.8-0.9 2.9-0.9 1.1-2.6 1.1-1.6 0-2.6-1.1-0.9-1.1-0.9-2.9 0-1.9 0.9-3 1-1.1 2.6-1.1zm12 3.3v4.6h-1.3v-4.6q0-1.1-0.4-1.6-0.4-0.6-1.3-0.6-1 0-1.6 0.7-0.6 0.6-0.6 1.7v4.4h-1.2v-7.7h1.2v1.2q0.5-0.7 1.1-1 0.6-0.4 1.4-0.4 1.3 0 2 0.9 0.7 0.8 0.7 2.4z"/>
	<path id="Path 25" class="s2" d="m382.8 526.8h103.7v48.2h-103.7z"/>
	<path id="Rotate to CG position" class="s1" aria-label="Rotate to
CG position"  d="m409.2 542.2q0.5 0.2 0.9 0.7 0.4 0.4 0.8 1.3l1.4 2.8h-1.5l-1.3-2.6q-0.5-1-0.9-1.4-0.5-0.3-1.3-0.3h-1.5v4.3h-1.4v-10.2h3.1q1.7 0 2.6 0.7 0.9 0.8 0.9 2.2 0 1-0.5 1.6-0.4 0.7-1.3 0.9zm-1.7-4.3h-1.7v3.7h1.7q1 0 1.5-0.5 0.5-0.5 0.5-1.4 0-0.9-0.5-1.3-0.5-0.5-1.5-0.5zm8.9 2.3q-1 0-1.6 0.8-0.6 0.8-0.6 2.2 0 1.4 0.6 2.1 0.6 0.8 1.6 0.8 1 0 1.6-0.8 0.6-0.8 0.6-2.1 0-1.4-0.6-2.2-0.6-0.8-1.6-0.8zm0-1q1.6 0 2.6 1 0.9 1.1 0.9 3 0 1.9-0.9 2.9-1 1.1-2.6 1.1-1.7 0-2.6-1.1-0.9-1-0.9-2.9 0-1.9 0.9-3 0.9-1 2.6-1zm5.6-2h1.2v2.1h2.6v1h-2.6v4.2q0 0.9 0.3 1.2 0.2 0.2 1 0.2h1.3v1.1h-1.3q-1.4 0-2-0.5-0.5-0.6-0.5-2v-4.2h-1v-1h1zm10.2 6h-1.2q-1.6 0-2.2 0.4-0.5 0.3-0.5 1.2 0 0.6 0.4 1 0.4 0.4 1.2 0.4 1 0 1.7-0.7 0.6-0.8 0.6-2zm1.3-0.5v4.4h-1.3v-1.2q-0.4 0.7-1.1 1-0.6 0.4-1.5 0.4-1.2 0-1.9-0.7-0.7-0.7-0.7-1.8 0-1.3 0.9-1.9 0.8-0.7 2.5-0.7h1.8v-0.1q0-0.9-0.6-1.3-0.5-0.5-1.6-0.5-0.6 0-1.2 0.1-0.7 0.2-1.2 0.5v-1.2q0.6-0.2 1.3-0.4 0.6-0.1 1.3-0.1 1.6 0 2.4 0.9 0.9 0.8 0.9 2.6zm2.5-5.5h1.3v2.2h2.6v1h-2.6v4.1q0 1 0.2 1.2 0.3 0.3 1.1 0.3h1.3v1.1h-1.3q-1.5 0-2-0.6-0.6-0.5-0.6-2v-4.1h-0.9v-1h0.9zm12.1 5.7v0.6h-5.8q0.1 1.3 0.8 2 0.7 0.7 1.9 0.7 0.8 0 1.4-0.2 0.7-0.2 1.4-0.6v1.2q-0.7 0.3-1.4 0.5-0.7 0.1-1.4 0.1-1.9 0-2.9-1-1.1-1.1-1.1-2.9 0-1.9 1-3 1-1.1 2.7-1.1 1.6 0 2.5 1 0.9 1 0.9 2.7zm-5.8-0.4h4.5q0-1-0.5-1.6-0.6-0.6-1.5-0.6-1.1 0-1.7 0.5-0.7 0.6-0.8 1.7zm12.4-5.3h1.3v2.2h2.6v0.9h-2.6v4.2q0 0.9 0.2 1.2 0.3 0.3 1.1 0.3h1.3v1h-1.3q-1.5 0-2.1-0.5-0.5-0.6-0.5-2v-4.2h-0.9v-0.9h0.9zm8.5 3q-1 0-1.6 0.8-0.6 0.8-0.6 2.2 0 1.4 0.6 2.1 0.6 0.8 1.6 0.8 1 0 1.6-0.8 0.6-0.8 0.6-2.1 0-1.4-0.6-2.2-0.6-0.8-1.6-0.8zm0-1q1.7 0 2.6 1 0.9 1.1 0.9 3 0 1.9-0.9 2.9-0.9 1.1-2.6 1.1-1.6 0-2.6-1.1-0.9-1-0.9-2.9 0-1.9 0.9-3 1-1 2.6-1zm-58.2 15.4v1.4q-0.7-0.6-1.5-0.9-0.8-0.4-1.6-0.4-1.8 0-2.7 1.1-1 1.1-1 3.1 0 2 1 3.1 0.9 1.1 2.7 1.1 0.8 0 1.6-0.4 0.8-0.3 1.5-0.9v1.4q-0.7 0.5-1.5 0.8-0.8 0.2-1.7 0.2-2.3 0-3.7-1.4-1.3-1.4-1.3-3.9 0-2.5 1.3-3.9 1.4-1.4 3.7-1.4 0.9 0 1.7 0.3 0.8 0.2 1.5 0.7zm9.1 7.9v-2.7h-2.2v-1.1h3.6v4.4q-0.8 0.5-1.8 0.8-1 0.3-2 0.3-2.4 0-3.8-1.4-1.3-1.4-1.3-3.9 0-2.5 1.3-3.9 1.4-1.4 3.8-1.4 1 0 1.8 0.3 1 0.2 1.7 0.7v1.5q-0.8-0.7-1.6-1-0.9-0.4-1.8-0.4-1.9 0-2.8 1.1-1 1-1 3.1 0 2.1 1 3.1 0.9 1.1 2.8 1.1 0.7 0 1.3-0.2 0.6-0.1 1-0.4zm9.5 0.4v4h-1.3v-10.6h1.3v1.2q0.4-0.7 1-1 0.6-0.3 1.5-0.3 1.4 0 2.2 1.1 0.9 1.1 0.9 2.9 0 1.8-0.9 2.9-0.8 1.1-2.2 1.1-0.9 0-1.5-0.3-0.6-0.4-1-1zm4.3-2.7q0-1.4-0.6-2.2-0.6-0.8-1.5-0.8-1 0-1.6 0.8-0.6 0.8-0.6 2.2 0 1.4 0.6 2.2 0.6 0.7 1.6 0.7 0.9 0 1.5-0.7 0.6-0.8 0.6-2.2zm6.3-3q-1 0-1.6 0.8-0.5 0.8-0.5 2.2 0 1.4 0.5 2.1 0.6 0.8 1.6 0.8 1.1 0 1.6-0.8 0.6-0.8 0.6-2.1 0-1.4-0.6-2.2-0.5-0.8-1.6-0.8zm0-1q1.7 0 2.6 1 1 1.1 1 3 0 1.9-1 2.9-0.9 1.1-2.6 1.1-1.6 0-2.5-1.1-1-1-1-2.9 0-1.9 1-3 0.9-1 2.5-1zm10.5 0.4v1.2q-0.5-0.3-1.1-0.4-0.6-0.2-1.2-0.2-0.9 0-1.4 0.3-0.4 0.3-0.4 0.9 0 0.4 0.3 0.7 0.3 0.2 1.3 0.4l0.5 0.1q1.3 0.3 1.9 0.8 0.5 0.6 0.5 1.5 0 1.1-0.8 1.7-0.9 0.6-2.3 0.6-0.6 0-1.3-0.1-0.7-0.1-1.4-0.4v-1.3q0.7 0.4 1.4 0.6 0.6 0.1 1.3 0.1 0.9 0 1.4-0.3 0.4-0.3 0.4-0.8 0-0.5-0.3-0.8-0.3-0.3-1.5-0.5l-0.5-0.1q-1.1-0.3-1.6-0.8-0.6-0.5-0.6-1.4 0-1.1 0.8-1.7 0.8-0.5 2.2-0.5 0.7 0 1.3 0.1 0.6 0.1 1.1 0.3zm2.4 7.4v-7.7h1.3v7.7zm0-9v-1.6h1.3v1.6zm3.8-0.8h1.3v2.1h2.6v1h-2.6v4.2q0 0.9 0.2 1.2 0.3 0.2 1.1 0.2h1.3v1.1h-1.3q-1.5 0-2-0.5-0.6-0.6-0.6-2v-4.2h-0.9v-1h0.9zm5.5 9.9v-7.7h1.3v7.7zm0-9.1v-1.6h1.2v1.6zm6.9 2.3q-1 0-1.6 0.8-0.6 0.8-0.6 2.2 0 1.3 0.6 2.1 0.6 0.8 1.6 0.8 1 0 1.6-0.8 0.6-0.8 0.6-2.1 0-1.4-0.6-2.2-0.6-0.8-1.6-0.8zm0-1.1q1.6 0 2.6 1.1 0.9 1.1 0.9 3 0 1.8-0.9 2.9-1 1.1-2.6 1.1-1.6 0-2.6-1.1-0.9-1.1-0.9-2.9 0-1.9 0.9-3 1-1.1 2.6-1.1zm12 3.3v4.6h-1.3v-4.6q0-1.1-0.4-1.6-0.4-0.6-1.3-0.6-1 0-1.6 0.7-0.6 0.6-0.6 1.7v4.4h-1.2v-7.7h1.2v1.2q0.5-0.7 1.1-1 0.6-0.4 1.4-0.4 1.3 0 2 0.9 0.7 0.8 0.7 2.4z"/>
	<path id="Path 27" class="s3" d="m371.1 350.1l0.2 16.3h-2l-0.2-16.3zm5.1 14.3l-5.8 12.1-6.2-12z"/>
	<path id="Path 28" class="s2" d="m114.7 373.2l63.5-34.8 63.5 34.8-63.5 34.8z"/>
	<path id="Path 30" class="s2" d="m306.7 411.2l63.6-34.7 63.6 34.7-63.6 34.7z"/>
	<path id="Path 31" class="s2" d="m499.2 373.5l63.6-34.7 63.6 34.7-63.6 34.7z"/>
	<path id="Received  class" class="s1" aria-label="Received 
class"  d="m152.2 366.2q0.5 0.2 0.9 0.7 0.4 0.4 0.8 1.3l1.4 2.8h-1.5l-1.3-2.6q-0.5-1-0.9-1.4-0.5-0.3-1.3-0.3h-1.5v4.3h-1.4v-10.2h3.1q1.7 0 2.6 0.7 0.9 0.8 0.9 2.2 0 1-0.5 1.6-0.4 0.7-1.3 0.9zm-1.7-4.3h-1.7v3.7h1.7q1 0 1.5-0.5 0.5-0.5 0.5-1.4 0-0.9-0.5-1.3-0.5-0.5-1.5-0.5zm12.5 5v0.6h-5.8q0.1 1.3 0.8 2 0.7 0.6 1.9 0.6 0.7 0 1.4-0.1 0.7-0.2 1.4-0.6v1.2q-0.7 0.3-1.4 0.4-0.7 0.2-1.5 0.2-1.8 0-2.9-1.1-1-1-1-2.9 0-1.8 1-2.9 1-1.1 2.7-1.1 1.6 0 2.5 1 0.9 0.9 0.9 2.7zm-5.8-0.4h4.5q0-1-0.6-1.7-0.5-0.6-1.5-0.6-1 0-1.7 0.6-0.6 0.6-0.7 1.7zm13.3-2.9v1.2q-0.5-0.3-1-0.4-0.6-0.2-1.1-0.2-1.2 0-1.9 0.8-0.7 0.8-0.7 2.2 0 1.4 0.7 2.2 0.7 0.7 1.9 0.7 0.5 0 1.1-0.1 0.5-0.2 1-0.5v1.2q-0.5 0.3-1.1 0.4-0.5 0.1-1.1 0.1-1.8 0-2.8-1.1-1-1.1-1-2.9 0-1.9 1-3 1-1 2.8-1 0.6 0 1.2 0.1 0.5 0.1 1 0.3zm8.8 3.3v0.6h-5.8q0.1 1.3 0.8 2 0.7 0.6 1.9 0.6 0.8 0 1.4-0.1 0.7-0.2 1.4-0.6v1.2q-0.7 0.3-1.4 0.4-0.7 0.2-1.4 0.2-1.9 0-3-1.1-1-1-1-2.9 0-1.8 1-2.9 1-1.1 2.7-1.1 1.6 0 2.5 1 0.9 0.9 0.9 2.7zm-5.8-0.4h4.5q0-1-0.6-1.7-0.5-0.6-1.5-0.6-1 0-1.6 0.6-0.7 0.6-0.8 1.7zm7.8 4.5v-7.7h1.3v7.7zm0-9v-1.6h1.3v1.6zm5.8 9l-2.9-7.7h1.4l2.4 6.5 2.4-6.5h1.3l-2.9 7.7zm12.9-4.1v0.6h-5.8q0.1 1.3 0.8 2 0.7 0.6 1.9 0.6 0.8 0 1.4-0.1 0.7-0.2 1.4-0.6v1.2q-0.7 0.3-1.4 0.4-0.7 0.2-1.4 0.2-1.9 0-2.9-1.1-1.1-1-1.1-2.9 0-1.8 1-2.9 1-1.1 2.7-1.1 1.6 0 2.5 1 0.9 0.9 0.9 2.7zm-5.8-0.4h4.5q0-1-0.5-1.7-0.6-0.6-1.5-0.6-1.1 0-1.7 0.6-0.7 0.6-0.8 1.7zm12.9-2v-4.1h1.3v10.6h-1.3v-1.1q-0.4 0.6-1 1-0.6 0.3-1.5 0.3-1.3 0-2.2-1.1-0.9-1.1-0.9-2.9 0-1.8 0.9-2.9 0.9-1.1 2.2-1.1 0.9 0 1.5 0.3 0.6 0.3 1 1zm-4.3 2.7q0 1.4 0.6 2.2 0.5 0.7 1.5 0.7 1 0 1.6-0.7 0.6-0.8 0.6-2.2 0-1.4-0.6-2.2-0.6-0.8-1.6-0.8-1 0-1.5 0.8-0.6 0.8-0.6 2.2zm-37 13.4v1.2q-0.6-0.3-1.1-0.4-0.6-0.2-1.1-0.2-1.2 0-1.9 0.8-0.7 0.8-0.7 2.2 0 1.4 0.7 2.2 0.7 0.7 1.9 0.7 0.5 0 1.1-0.1 0.5-0.2 1.1-0.5v1.2q-0.6 0.3-1.1 0.4-0.6 0.1-1.2 0.1-1.8 0-2.8-1.1-1-1.1-1-2.9 0-1.9 1-3 1.1-1 2.8-1 0.6 0 1.2 0.1 0.5 0.1 1.1 0.3zm2.1 7.4v-10.6h1.3v10.6zm8.6-3.8h-1.2q-1.6 0-2.1 0.3-0.6 0.3-0.6 1.2 0 0.7 0.4 1.1 0.4 0.3 1.2 0.3 1.1 0 1.7-0.7 0.6-0.7 0.6-2zm1.3-0.5v4.4h-1.3v-1.2q-0.4 0.7-1.1 1.1-0.6 0.3-1.5 0.3-1.2 0-1.9-0.7-0.7-0.6-0.7-1.7 0-1.3 0.9-2 0.8-0.7 2.6-0.7h1.7v-0.1q0-0.8-0.6-1.3-0.5-0.5-1.6-0.5-0.6 0-1.2 0.2-0.7 0.1-1.2 0.4v-1.1q0.7-0.3 1.3-0.4 0.7-0.2 1.3-0.2 1.6 0 2.5 0.9 0.8 0.9 0.8 2.6zm7.4-3.1v1.2q-0.5-0.2-1.1-0.4-0.5-0.1-1.1-0.1-1 0-1.5 0.3-0.4 0.3-0.4 0.8 0 0.5 0.3 0.7 0.3 0.3 1.4 0.5l0.4 0.1q1.3 0.3 1.9 0.8 0.6 0.5 0.6 1.5 0 1-0.9 1.7-0.8 0.6-2.3 0.6-0.6 0-1.3-0.1-0.7-0.2-1.4-0.4v-1.3q0.7 0.4 1.4 0.5 0.7 0.2 1.3 0.2 0.9 0 1.4-0.3 0.5-0.3 0.5-0.8 0-0.5-0.4-0.8-0.3-0.3-1.5-0.5l-0.4-0.2q-1.2-0.2-1.7-0.7-0.5-0.5-0.5-1.4 0-1.1 0.7-1.7 0.8-0.6 2.2-0.6 0.7 0 1.3 0.1 0.6 0.1 1.1 0.3zm7.3 0v1.2q-0.5-0.2-1.1-0.4-0.5-0.1-1.2-0.1-0.9 0-1.4 0.3-0.4 0.3-0.4 0.8 0 0.5 0.3 0.7 0.3 0.3 1.4 0.5l0.4 0.1q1.3 0.3 1.9 0.8 0.6 0.5 0.6 1.5 0 1-0.9 1.7-0.8 0.6-2.3 0.6-0.6 0-1.3-0.1-0.7-0.2-1.4-0.4v-1.3q0.7 0.4 1.4 0.5 0.7 0.2 1.3 0.2 0.9 0 1.4-0.3 0.5-0.3 0.5-0.8 0-0.5-0.4-0.8-0.3-0.3-1.5-0.5l-0.4-0.2q-1.2-0.2-1.7-0.7-0.5-0.5-0.5-1.4 0-1.1 0.7-1.7 0.8-0.6 2.2-0.6 0.7 0 1.3 0.1 0.6 0.1 1.1 0.3z"/>
	<path id="Received  class copy 2" class="s1" aria-label="Received 
class"  d="m346.2 405.2q0.5 0.2 0.9 0.7 0.4 0.4 0.8 1.3l1.4 2.8h-1.5l-1.3-2.6q-0.5-1-0.9-1.4-0.5-0.3-1.3-0.3h-1.5v4.3h-1.4v-10.2h3.1q1.7 0 2.6 0.7 0.9 0.8 0.9 2.2 0 1-0.5 1.6-0.4 0.7-1.3 0.9zm-1.7-4.3h-1.7v3.7h1.7q1 0 1.5-0.5 0.5-0.5 0.5-1.4 0-0.9-0.5-1.3-0.5-0.5-1.5-0.5zm12.5 5v0.6h-5.8q0.1 1.3 0.8 2 0.7 0.6 1.9 0.6 0.7 0 1.4-0.1 0.7-0.2 1.4-0.6v1.2q-0.7 0.3-1.4 0.4-0.7 0.2-1.5 0.2-1.8 0-2.9-1.1-1-1-1-2.9 0-1.8 1-2.9 1-1.1 2.7-1.1 1.6 0 2.5 1 0.9 0.9 0.9 2.7zm-5.8-0.4h4.5q0-1-0.6-1.7-0.5-0.6-1.5-0.6-1 0-1.7 0.6-0.6 0.6-0.7 1.7zm13.3-2.9v1.2q-0.5-0.3-1-0.4-0.6-0.2-1.1-0.2-1.2 0-1.9 0.8-0.7 0.8-0.7 2.2 0 1.4 0.7 2.2 0.7 0.7 1.9 0.7 0.5 0 1.1-0.1 0.5-0.2 1-0.5v1.2q-0.5 0.3-1.1 0.4-0.5 0.1-1.1 0.1-1.8 0-2.8-1.1-1-1.1-1-2.9 0-1.9 1-3 1-1 2.8-1 0.6 0 1.2 0.1 0.5 0.1 1 0.3zm8.8 3.3v0.6h-5.8q0.1 1.3 0.8 2 0.7 0.6 1.9 0.6 0.8 0 1.4-0.1 0.7-0.2 1.4-0.6v1.2q-0.7 0.3-1.4 0.4-0.7 0.2-1.4 0.2-1.9 0-3-1.1-1-1-1-2.9 0-1.8 1-2.9 1-1.1 2.7-1.1 1.6 0 2.5 1 0.9 0.9 0.9 2.7zm-5.8-0.4h4.5q0-1-0.6-1.7-0.5-0.6-1.5-0.6-1 0-1.6 0.6-0.7 0.6-0.8 1.7zm7.8 4.5v-7.7h1.3v7.7zm0-9v-1.6h1.3v1.6zm5.8 9l-2.9-7.7h1.4l2.4 6.5 2.4-6.5h1.3l-2.9 7.7zm12.9-4.1v0.6h-5.8q0.1 1.3 0.8 2 0.7 0.6 1.9 0.6 0.8 0 1.4-0.1 0.7-0.2 1.4-0.6v1.2q-0.7 0.3-1.4 0.4-0.7 0.2-1.4 0.2-1.9 0-2.9-1.1-1.1-1-1.1-2.9 0-1.8 1-2.9 1-1.1 2.7-1.1 1.6 0 2.5 1 0.9 0.9 0.9 2.7zm-5.8-0.4h4.5q0-1-0.5-1.7-0.6-0.6-1.5-0.6-1.1 0-1.7 0.6-0.7 0.6-0.8 1.7zm12.9-2v-4.1h1.3v10.6h-1.3v-1.1q-0.4 0.6-1 1-0.6 0.3-1.5 0.3-1.3 0-2.2-1.1-0.9-1.1-0.9-2.9 0-1.8 0.9-2.9 0.9-1.1 2.2-1.1 0.9 0 1.5 0.3 0.6 0.3 1 1zm-4.3 2.7q0 1.4 0.6 2.2 0.5 0.7 1.5 0.7 1 0 1.6-0.7 0.6-0.8 0.6-2.2 0-1.4-0.6-2.2-0.6-0.8-1.6-0.8-1 0-1.5 0.8-0.6 0.8-0.6 2.2zm-37 13.4v1.2q-0.6-0.3-1.1-0.4-0.6-0.2-1.1-0.2-1.2 0-1.9 0.8-0.7 0.8-0.7 2.2 0 1.4 0.7 2.2 0.7 0.7 1.9 0.7 0.5 0 1.1-0.1 0.5-0.2 1.1-0.5v1.2q-0.6 0.3-1.1 0.4-0.6 0.1-1.2 0.1-1.8 0-2.8-1.1-1-1.1-1-2.9 0-1.9 1-3 1.1-1 2.8-1 0.6 0 1.2 0.1 0.5 0.1 1.1 0.3zm2.1 7.4v-10.6h1.3v10.6zm8.6-3.8h-1.2q-1.6 0-2.1 0.3-0.6 0.3-0.6 1.2 0 0.7 0.4 1.1 0.4 0.3 1.2 0.3 1.1 0 1.7-0.7 0.6-0.7 0.6-2zm1.3-0.5v4.4h-1.3v-1.2q-0.4 0.7-1.1 1.1-0.6 0.3-1.5 0.3-1.2 0-1.9-0.7-0.7-0.6-0.7-1.7 0-1.3 0.9-2 0.8-0.7 2.6-0.7h1.7v-0.1q0-0.8-0.6-1.3-0.5-0.5-1.6-0.5-0.6 0-1.2 0.2-0.7 0.1-1.2 0.4v-1.1q0.7-0.3 1.3-0.4 0.7-0.2 1.3-0.2 1.6 0 2.5 0.9 0.8 0.9 0.8 2.6zm7.4-3.1v1.2q-0.5-0.2-1.1-0.4-0.5-0.1-1.1-0.1-1 0-1.5 0.3-0.4 0.3-0.4 0.8 0 0.5 0.3 0.7 0.3 0.3 1.4 0.5l0.4 0.1q1.3 0.3 1.9 0.8 0.6 0.5 0.6 1.5 0 1-0.9 1.7-0.8 0.6-2.3 0.6-0.6 0-1.3-0.1-0.7-0.2-1.4-0.4v-1.3q0.7 0.4 1.4 0.5 0.7 0.2 1.3 0.2 0.9 0 1.4-0.3 0.5-0.3 0.5-0.8 0-0.5-0.4-0.8-0.3-0.3-1.5-0.5l-0.4-0.2q-1.2-0.2-1.7-0.7-0.5-0.5-0.5-1.4 0-1.1 0.7-1.7 0.8-0.6 2.2-0.6 0.7 0 1.3 0.1 0.6 0.1 1.1 0.3zm7.3 0v1.2q-0.5-0.2-1.1-0.4-0.5-0.1-1.2-0.1-0.9 0-1.4 0.3-0.4 0.3-0.4 0.8 0 0.5 0.3 0.7 0.3 0.3 1.4 0.5l0.4 0.1q1.3 0.3 1.9 0.8 0.6 0.5 0.6 1.5 0 1-0.9 1.7-0.8 0.6-2.3 0.6-0.6 0-1.3-0.1-0.7-0.2-1.4-0.4v-1.3q0.7 0.4 1.4 0.5 0.7 0.2 1.3 0.2 0.9 0 1.4-0.3 0.5-0.3 0.5-0.8 0-0.5-0.4-0.8-0.3-0.3-1.5-0.5l-0.4-0.2q-1.2-0.2-1.7-0.7-0.5-0.5-0.5-1.4 0-1.1 0.7-1.7 0.8-0.6 2.2-0.6 0.7 0 1.3 0.1 0.6 0.1 1.1 0.3z"/>
	<path id="Received  class copy" class="s1" aria-label="Received 
class"  d="m539.2 366.2q0.5 0.2 0.9 0.7 0.4 0.4 0.8 1.3l1.4 2.8h-1.5l-1.3-2.6q-0.5-1-0.9-1.4-0.5-0.3-1.3-0.3h-1.5v4.3h-1.4v-10.2h3.1q1.7 0 2.6 0.7 0.9 0.8 0.9 2.2 0 1-0.5 1.6-0.4 0.7-1.3 0.9zm-1.7-4.3h-1.7v3.7h1.7q1 0 1.5-0.5 0.5-0.5 0.5-1.4 0-0.9-0.5-1.3-0.5-0.5-1.5-0.5zm12.5 5v0.6h-5.8q0.1 1.3 0.8 2 0.7 0.6 1.9 0.6 0.7 0 1.4-0.1 0.7-0.2 1.4-0.6v1.2q-0.7 0.3-1.4 0.4-0.7 0.2-1.5 0.2-1.8 0-2.9-1.1-1-1-1-2.9 0-1.8 1-2.9 1-1.1 2.7-1.1 1.6 0 2.5 1 0.9 0.9 0.9 2.7zm-5.8-0.4h4.5q0-1-0.6-1.7-0.5-0.6-1.5-0.6-1 0-1.7 0.6-0.6 0.6-0.7 1.7zm13.3-2.9v1.2q-0.5-0.3-1-0.4-0.6-0.2-1.1-0.2-1.2 0-1.9 0.8-0.7 0.8-0.7 2.2 0 1.4 0.7 2.2 0.7 0.7 1.9 0.7 0.5 0 1.1-0.1 0.5-0.2 1-0.5v1.2q-0.5 0.3-1.1 0.4-0.5 0.1-1.1 0.1-1.8 0-2.8-1.1-1-1.1-1-2.9 0-1.9 1-3 1-1 2.8-1 0.6 0 1.2 0.1 0.5 0.1 1 0.3zm8.8 3.3v0.6h-5.8q0.1 1.3 0.8 2 0.7 0.6 1.9 0.6 0.8 0 1.4-0.1 0.7-0.2 1.4-0.6v1.2q-0.7 0.3-1.4 0.4-0.7 0.2-1.4 0.2-1.9 0-3-1.1-1-1-1-2.9 0-1.8 1-2.9 1-1.1 2.7-1.1 1.6 0 2.5 1 0.9 0.9 0.9 2.7zm-5.8-0.4h4.5q0-1-0.6-1.7-0.5-0.6-1.5-0.6-1 0-1.6 0.6-0.7 0.6-0.8 1.7zm7.8 4.5v-7.7h1.3v7.7zm0-9v-1.6h1.3v1.6zm5.8 9l-2.9-7.7h1.4l2.4 6.5 2.4-6.5h1.3l-2.9 7.7zm12.9-4.1v0.6h-5.8q0.1 1.3 0.8 2 0.7 0.6 1.9 0.6 0.8 0 1.4-0.1 0.7-0.2 1.4-0.6v1.2q-0.7 0.3-1.4 0.4-0.7 0.2-1.4 0.2-1.9 0-2.9-1.1-1.1-1-1.1-2.9 0-1.8 1-2.9 1-1.1 2.7-1.1 1.6 0 2.5 1 0.9 0.9 0.9 2.7zm-5.8-0.4h4.5q0-1-0.5-1.7-0.6-0.6-1.5-0.6-1.1 0-1.7 0.6-0.7 0.6-0.8 1.7zm12.9-2v-4.1h1.3v10.6h-1.3v-1.1q-0.4 0.6-1 1-0.6 0.3-1.5 0.3-1.3 0-2.2-1.1-0.9-1.1-0.9-2.9 0-1.8 0.9-2.9 0.9-1.1 2.2-1.1 0.9 0 1.5 0.3 0.6 0.3 1 1zm-4.3 2.7q0 1.4 0.6 2.2 0.5 0.7 1.5 0.7 1 0 1.6-0.7 0.6-0.8 0.6-2.2 0-1.4-0.6-2.2-0.6-0.8-1.6-0.8-1 0-1.5 0.8-0.6 0.8-0.6 2.2zm-37 13.4v1.2q-0.6-0.3-1.1-0.4-0.6-0.2-1.1-0.2-1.2 0-1.9 0.8-0.7 0.8-0.7 2.2 0 1.4 0.7 2.2 0.7 0.7 1.9 0.7 0.5 0 1.1-0.1 0.5-0.2 1.1-0.5v1.2q-0.6 0.3-1.1 0.4-0.6 0.1-1.2 0.1-1.8 0-2.8-1.1-1-1.1-1-2.9 0-1.9 1-3 1.1-1 2.8-1 0.6 0 1.2 0.1 0.5 0.1 1.1 0.3zm2.1 7.4v-10.6h1.3v10.6zm8.6-3.8h-1.2q-1.6 0-2.1 0.3-0.6 0.3-0.6 1.2 0 0.7 0.4 1.1 0.4 0.3 1.2 0.3 1.1 0 1.7-0.7 0.6-0.7 0.6-2zm1.3-0.5v4.4h-1.3v-1.2q-0.4 0.7-1.1 1.1-0.6 0.3-1.5 0.3-1.2 0-1.9-0.7-0.7-0.6-0.7-1.7 0-1.3 0.9-2 0.8-0.7 2.6-0.7h1.7v-0.1q0-0.8-0.6-1.3-0.5-0.5-1.6-0.5-0.6 0-1.2 0.2-0.7 0.1-1.2 0.4v-1.1q0.7-0.3 1.3-0.4 0.7-0.2 1.3-0.2 1.6 0 2.5 0.9 0.8 0.9 0.8 2.6zm7.4-3.1v1.2q-0.5-0.2-1.1-0.4-0.5-0.1-1.1-0.1-1 0-1.5 0.3-0.4 0.3-0.4 0.8 0 0.5 0.3 0.7 0.3 0.3 1.4 0.5l0.4 0.1q1.3 0.3 1.9 0.8 0.6 0.5 0.6 1.5 0 1-0.9 1.7-0.8 0.6-2.3 0.6-0.6 0-1.3-0.1-0.7-0.2-1.4-0.4v-1.3q0.7 0.4 1.4 0.5 0.7 0.2 1.3 0.2 0.9 0 1.4-0.3 0.5-0.3 0.5-0.8 0-0.5-0.4-0.8-0.3-0.3-1.5-0.5l-0.4-0.2q-1.2-0.2-1.7-0.7-0.5-0.5-0.5-1.4 0-1.1 0.7-1.7 0.8-0.6 2.2-0.6 0.7 0 1.3 0.1 0.6 0.1 1.1 0.3zm7.3 0v1.2q-0.5-0.2-1.1-0.4-0.5-0.1-1.2-0.1-0.9 0-1.4 0.3-0.4 0.3-0.4 0.8 0 0.5 0.3 0.7 0.3 0.3 1.4 0.5l0.4 0.1q1.3 0.3 1.9 0.8 0.6 0.5 0.6 1.5 0 1-0.9 1.7-0.8 0.6-2.3 0.6-0.6 0-1.3-0.1-0.7-0.2-1.4-0.4v-1.3q0.7 0.4 1.4 0.5 0.7 0.2 1.3 0.2 0.9 0 1.4-0.3 0.5-0.3 0.5-0.8 0-0.5-0.4-0.8-0.3-0.3-1.5-0.5l-0.4-0.2q-1.2-0.2-1.7-0.7-0.5-0.5-0.5-1.4 0-1.1 0.7-1.7 0.8-0.6 2.2-0.6 0.7 0 1.3 0.1 0.6 0.1 1.1 0.3z"/>
	<path id="Path 33" class="s3" d="m306.8 412.1h-0.3l1-1v105.7h-2v-106.7h1.3zm5.7 102.7l-6 12-6-12z"/>
	<path id="Path 34" class="s2" d="m104.6 469l73.1-34.6 73.1 34.6-73.1 34.7z"/>
	<path id="Path 36" class="s3" d="m178.8 503.7l0.3 13.2h-2l-0.3-13.2zm5.3 11.1l-5.8 12.1-6.2-11.8zm-4.8-106.8l-0.3 16.4h-2l0.3-16.5zm4.8 14.6l-6.3 11.9-5.7-12.2zm379.7-14.3v14.6h-2v-14.6zm5 12.6l-6 12-6-12zm-5 81.5v14.6h-2v-14.6zm5 12.6l-6 12-6-12zm-133.9-103.8l0.8 105.7h-2l-0.8-105.7zm5.7 103.7l-5.9 12-6.1-11.9z"/>
	<path id="Prev. received = RH?" class="s1" aria-label="Prev. received
= RH?"  d="m133.8 461.9h-1.7v3.9h1.7q1 0 1.5-0.5 0.5-0.5 0.5-1.5 0-0.9-0.5-1.4-0.5-0.5-1.5-0.5zm-3.1 9.1v-10.2h3.1q1.7 0 2.6 0.8 0.9 0.7 0.9 2.2 0 1.6-0.9 2.3-0.9 0.8-2.6 0.8h-1.7v4.1zm12.5-7.8v1.3q-0.2-0.1-0.4-0.2-0.3 0-0.6 0-1 0-1.6 0.7-0.6 0.7-0.6 2v4h-1.3v-7.7h1.3v1.2q0.4-0.7 1-1 0.7-0.3 1.6-0.3 0.1 0 0.3 0 0.1 0 0.3 0zm7.6 3.7v0.6h-5.8q0.1 1.3 0.8 2 0.7 0.6 1.9 0.6 0.8 0 1.4-0.1 0.7-0.2 1.4-0.6v1.2q-0.7 0.3-1.4 0.4-0.7 0.2-1.4 0.2-1.9 0-2.9-1.1-1.1-1-1.1-2.9 0-1.8 1-2.9 1-1.1 2.7-1.1 1.6 0 2.5 1 0.9 0.9 0.9 2.7zm-5.8-0.4h4.5q0-1-0.5-1.7-0.6-0.6-1.5-0.6-1.1 0-1.7 0.6-0.7 0.6-0.8 1.7zm9.8 4.5l-2.8-7.7h1.3l2.4 6.5 2.4-6.5h1.3l-2.9 7.7zm5.4 0v-1.7h1.5v1.7zm13.1-7.8v1.3q-0.2-0.1-0.4-0.2-0.3 0-0.6 0-1 0-1.6 0.7-0.6 0.7-0.6 2v4h-1.2v-7.7h1.2v1.2q0.4-0.7 1.1-1 0.6-0.3 1.5-0.3 0.1 0 0.3 0 0.1 0 0.3 0zm7.6 3.7v0.6h-5.8q0.1 1.3 0.8 2 0.7 0.6 2 0.6 0.7 0 1.4-0.1 0.6-0.2 1.3-0.6v1.2q-0.7 0.3-1.4 0.4-0.7 0.2-1.4 0.2-1.9 0-2.9-1.1-1.1-1-1.1-2.9 0-1.8 1-2.9 1-1.1 2.8-1.1 1.5 0 2.4 1 0.9 0.9 0.9 2.7zm-5.7-0.4h4.4q0-1-0.5-1.7-0.6-0.6-1.5-0.6-1.1 0-1.7 0.6-0.6 0.6-0.7 1.7zm13.3-2.9v1.2q-0.6-0.3-1.1-0.4-0.5-0.2-1.1-0.2-1.2 0-1.9 0.8-0.7 0.8-0.7 2.2 0 1.4 0.7 2.2 0.7 0.7 1.9 0.7 0.6 0 1.1-0.1 0.5-0.2 1.1-0.5v1.2q-0.5 0.3-1.1 0.4-0.6 0.1-1.2 0.1-1.7 0-2.8-1.1-1-1.1-1-2.9 0-1.9 1-3 1.1-1 2.9-1 0.6 0 1.1 0.1 0.6 0.1 1.1 0.3zm8.7 3.3v0.6h-5.8q0.1 1.3 0.8 2 0.7 0.6 2 0.6 0.7 0 1.4-0.1 0.7-0.2 1.3-0.6v1.2q-0.7 0.3-1.4 0.4-0.7 0.2-1.4 0.2-1.8 0-2.9-1.1-1.1-1-1.1-2.9 0-1.8 1-2.9 1-1.1 2.8-1.1 1.5 0 2.4 1 0.9 0.9 0.9 2.7zm-5.7-0.4h4.5q-0.1-1-0.6-1.7-0.6-0.6-1.5-0.6-1.1 0-1.7 0.6-0.6 0.6-0.7 1.7zm7.8 4.5v-7.7h1.2v7.7zm0-9v-1.6h1.3v1.6zm5.9 9l-2.9-7.7h1.3l2.4 6.5 2.4-6.5h1.3l-2.8 7.7zm12.8-4.1v0.6h-5.8q0.1 1.3 0.8 2 0.7 0.6 2 0.6 0.7 0 1.4-0.1 0.7-0.2 1.3-0.6v1.2q-0.6 0.3-1.4 0.4-0.7 0.2-1.4 0.2-1.8 0-2.9-1.1-1.1-1-1.1-2.9 0-1.8 1-2.9 1.1-1.1 2.8-1.1 1.5 0 2.4 1 0.9 0.9 0.9 2.7zm-5.7-0.4h4.5q0-1-0.6-1.7-0.6-0.6-1.5-0.6-1.1 0-1.7 0.6-0.6 0.6-0.7 1.7zm12.8-2v-4.1h1.3v10.6h-1.3v-1.1q-0.4 0.6-1 1-0.6 0.3-1.4 0.3-1.4 0-2.3-1.1-0.9-1.1-0.9-2.9 0-1.8 0.9-2.9 0.9-1.1 2.3-1.1 0.8 0 1.4 0.3 0.6 0.3 1 1zm-4.3 2.7q0 1.4 0.6 2.2 0.6 0.7 1.6 0.7 1 0 1.6-0.7 0.5-0.8 0.5-2.2 0-1.4-0.5-2.2-0.6-0.8-1.6-0.8-1 0-1.6 0.8-0.6 0.8-0.6 2.2zm-62.8 15.6v-1.2h8.8v1.2zm0 2.8v-1.2h8.7v1.2zm20.9-2.4q0.5 0.2 0.9 0.7 0.4 0.4 0.9 1.3l1.4 2.8h-1.5l-1.3-2.6q-0.5-1-1-1.4-0.5-0.3-1.3-0.3h-1.5v4.3h-1.4v-10.2h3.1q1.8 0 2.6 0.7 0.9 0.8 0.9 2.2 0 1-0.5 1.6-0.4 0.7-1.3 0.9zm-1.7-4.3h-1.7v3.7h1.7q1 0 1.5-0.5 0.5-0.5 0.5-1.4 0-0.9-0.5-1.3-0.5-0.5-1.5-0.5zm6.6 9.1v-10.2h1.4v4.2h5v-4.2h1.4v10.2h-1.4v-4.9h-5v4.9zm11.8 0v-1.7h1.4v1.7zm1.4-3.6v0.9h-1.3v-1.1q0-0.7 0.2-1.1 0.2-0.5 0.8-1.1l0.6-0.6q0.4-0.3 0.5-0.7 0.2-0.3 0.2-0.6 0-0.6-0.4-1-0.5-0.4-1.2-0.4-0.6 0-1.2 0.3-0.6 0.2-1.2 0.7v-1.3q0.6-0.4 1.3-0.6 0.6-0.2 1.3-0.2 1.3 0 2 0.7 0.8 0.6 0.8 1.7 0 0.5-0.2 1-0.3 0.5-0.9 1.1l-0.6 0.6q-0.3 0.3-0.5 0.5-0.1 0.1-0.1 0.3-0.1 0.2-0.1 0.4 0 0.2 0 0.5z"/>
	<path id="Path 37" class="s2" d="m126.5 594.2h103.4v48.2h-103.4z"/>
	<path id="Current state = RH" class="s1" aria-label="Current
state = RH"  d="m160 606.6v1.4q-0.7-0.6-1.5-0.9-0.8-0.4-1.6-0.4-1.8 0-2.7 1.1-1 1.1-1 3.1 0 2 1 3.1 0.9 1.1 2.7 1.1 0.8 0 1.6-0.4 0.8-0.3 1.5-0.9v1.4q-0.7 0.5-1.5 0.8-0.8 0.2-1.7 0.2-2.3 0-3.7-1.4-1.3-1.4-1.3-3.9 0-2.5 1.3-3.9 1.4-1.4 3.7-1.4 0.9 0 1.7 0.3 0.8 0.2 1.5 0.7zm2 6.4v-4.7h1.2v4.6q0 1.1 0.4 1.7 0.5 0.5 1.3 0.5 1 0 1.6-0.6 0.6-0.7 0.6-1.8v-4.4h1.3v7.7h-1.3v-1.2q-0.4 0.7-1 1.1-0.6 0.3-1.4 0.3-1.4 0-2.1-0.8-0.6-0.8-0.6-2.4zm3.1-4.8zm10.3 0v1.3q-0.2-0.1-0.5-0.2-0.2 0-0.5 0-1.1 0-1.6 0.7-0.6 0.7-0.6 2v4h-1.3v-7.7h1.3v1.2q0.4-0.7 1-1 0.7-0.3 1.6-0.3 0.1 0 0.2 0 0.2 0 0.4 0zm5.5 0v1.3q-0.2-0.1-0.5-0.2-0.2 0-0.5 0-1.1 0-1.6 0.7-0.6 0.7-0.6 2v4h-1.3v-7.7h1.3v1.2q0.4-0.7 1-1 0.7-0.3 1.6-0.3 0.1 0 0.3 0 0.1 0 0.3 0zm7.6 3.7v0.6h-5.8q0.1 1.3 0.8 2 0.7 0.6 1.9 0.6 0.8 0 1.4-0.1 0.7-0.2 1.4-0.6v1.2q-0.7 0.3-1.4 0.4-0.7 0.2-1.4 0.2-1.9 0-3-1.1-1-1-1-2.9 0-1.8 1-2.9 1-1.1 2.7-1.1 1.6 0 2.5 1 0.9 0.9 0.9 2.7zm-5.8-0.4h4.5q0-1-0.6-1.7-0.5-0.6-1.5-0.6-1 0-1.6 0.6-0.7 0.6-0.8 1.7zm14.2-0.1v4.6h-1.3v-4.6q0-1.1-0.4-1.6-0.4-0.5-1.2-0.5-1.1 0-1.7 0.6-0.5 0.7-0.5 1.8v4.3h-1.3v-7.7h1.3v1.2q0.4-0.7 1-1 0.6-0.3 1.4-0.3 1.3 0 2 0.8 0.7 0.8 0.7 2.4zm2.5-5.2h1.3v2.1h2.5v1h-2.5v4.2q0 0.9 0.2 1.2 0.3 0.2 1.1 0.2h1.2v1.1h-1.2q-1.5 0-2.1-0.5-0.5-0.6-0.5-2v-4.2h-0.9v-1h0.9zm-52.2 19.4v1.2q-0.5-0.2-1.1-0.4-0.6-0.1-1.2-0.1-0.9 0-1.4 0.3-0.5 0.3-0.5 0.8 0 0.5 0.4 0.7 0.3 0.3 1.3 0.5l0.4 0.1q1.4 0.3 1.9 0.8 0.6 0.5 0.6 1.5 0 1-0.8 1.6-0.9 0.7-2.4 0.7-0.6 0-1.2-0.1-0.7-0.2-1.4-0.4v-1.3q0.7 0.4 1.3 0.5 0.7 0.2 1.4 0.2 0.9 0 1.3-0.3 0.5-0.3 0.5-0.8 0-0.6-0.3-0.8-0.4-0.3-1.5-0.6l-0.5-0.1q-1.1-0.2-1.7-0.7-0.5-0.5-0.5-1.4 0-1.1 0.8-1.7 0.7-0.6 2.2-0.6 0.7 0 1.3 0.1 0.6 0.1 1.1 0.3zm2.5-2.4h1.2v2.2h2.6v1h-2.6v4.2q0 0.9 0.3 1.2 0.2 0.2 1 0.2h1.3v1.1h-1.3q-1.4 0-2-0.6-0.5-0.5-0.5-1.9v-4.2h-1v-1h1zm10.3 6h-1.3q-1.5 0-2.1 0.3-0.6 0.4-0.6 1.2 0 0.7 0.5 1.1 0.4 0.4 1.2 0.4 1 0 1.6-0.7 0.7-0.8 0.7-2zm1.2-0.5v4.3h-1.2v-1.1q-0.5 0.7-1.1 1-0.6 0.3-1.6 0.3-1.1 0-1.8-0.6-0.7-0.7-0.7-1.8 0-1.3 0.8-1.9 0.9-0.7 2.6-0.7h1.8v-0.1q0-0.9-0.6-1.4-0.6-0.4-1.6-0.4-0.7 0-1.3 0.1-0.6 0.2-1.2 0.5v-1.2q0.7-0.2 1.4-0.4 0.6-0.1 1.2-0.1 1.7 0 2.5 0.8 0.8 0.9 0.8 2.7zm2.7-5.5h1.2v2.2h2.6v0.9h-2.6v4.2q0 0.9 0.3 1.2 0.2 0.3 1 0.3h1.3v1h-1.3q-1.4 0-2-0.5-0.5-0.6-0.5-2v-4.2h-1v-0.9h1zm12.1 5.7v0.6h-5.8q0.1 1.3 0.8 2 0.7 0.6 2 0.6 0.7 0 1.4-0.1 0.6-0.2 1.3-0.6v1.2q-0.7 0.3-1.4 0.4-0.7 0.2-1.4 0.2-1.9 0-2.9-1.1-1.1-1-1.1-2.9 0-1.8 1-2.9 1-1.1 2.8-1.1 1.5 0 2.4 1 0.9 1 0.9 2.7zm-5.7-0.4h4.4q0-1-0.5-1.7-0.6-0.6-1.5-0.6-1.1 0-1.7 0.6-0.6 0.6-0.7 1.7zm12.4-0.7v-1.2h8.7v1.2zm0 2.8v-1.2h8.8v1.2zm20.9-2.4q0.5 0.2 0.9 0.7 0.4 0.5 0.8 1.3l1.4 2.8h-1.5l-1.3-2.6q-0.5-1-0.9-1.4-0.5-0.3-1.3-0.3h-1.5v4.3h-1.4v-10.2h3.1q1.7 0 2.6 0.7 0.9 0.8 0.9 2.2 0 1-0.5 1.6-0.4 0.7-1.3 0.9zm-1.7-4.3h-1.7v3.7h1.7q1 0 1.5-0.5 0.5-0.5 0.5-1.4 0-0.9-0.5-1.3-0.5-0.5-1.5-0.5zm6.6 9.1v-10.2h1.4v4.2h5v-4.2h1.4v10.2h-1.4v-4.9h-5v4.9z"/>
	<path id="Path 39" class="s2" d="m254.6 594.2h103.5v48.2h-103.5z"/>
	<path id="Current state = PP" class="s1" aria-label="Current
state = PP"  d="m287 606.6v1.4q-0.7-0.6-1.5-0.9-0.8-0.4-1.6-0.4-1.8 0-2.7 1.1-1 1.1-1 3.1 0 2 1 3.1 0.9 1.1 2.7 1.1 0.8 0 1.6-0.4 0.8-0.3 1.5-0.9v1.4q-0.7 0.5-1.5 0.8-0.8 0.2-1.7 0.2-2.3 0-3.7-1.4-1.3-1.4-1.3-3.9 0-2.5 1.3-3.9 1.4-1.4 3.7-1.4 0.9 0 1.7 0.3 0.8 0.2 1.5 0.7zm2 6.4v-4.7h1.2v4.6q0 1.1 0.4 1.7 0.5 0.5 1.3 0.5 1 0 1.6-0.6 0.6-0.7 0.6-1.8v-4.4h1.3v7.7h-1.3v-1.2q-0.4 0.7-1 1.1-0.6 0.3-1.4 0.3-1.4 0-2.1-0.8-0.6-0.8-0.6-2.4zm3.1-4.8zm10.3 0v1.3q-0.2-0.1-0.5-0.2-0.2 0-0.5 0-1.1 0-1.6 0.7-0.6 0.7-0.6 2v4h-1.3v-7.7h1.3v1.2q0.4-0.7 1-1 0.7-0.3 1.6-0.3 0.1 0 0.2 0 0.2 0 0.4 0zm5.5 0v1.3q-0.2-0.1-0.5-0.2-0.2 0-0.5 0-1.1 0-1.6 0.7-0.6 0.7-0.6 2v4h-1.3v-7.7h1.3v1.2q0.4-0.7 1-1 0.7-0.3 1.6-0.3 0.1 0 0.3 0 0.1 0 0.3 0zm7.6 3.7v0.6h-5.8q0.1 1.3 0.8 2 0.7 0.6 1.9 0.6 0.8 0 1.4-0.1 0.7-0.2 1.4-0.6v1.2q-0.7 0.3-1.4 0.4-0.7 0.2-1.4 0.2-1.9 0-3-1.1-1-1-1-2.9 0-1.8 1-2.9 1-1.1 2.7-1.1 1.6 0 2.5 1 0.9 0.9 0.9 2.7zm-5.8-0.4h4.5q0-1-0.6-1.7-0.5-0.6-1.5-0.6-1 0-1.6 0.6-0.7 0.6-0.8 1.7zm14.2-0.1v4.6h-1.3v-4.6q0-1.1-0.4-1.6-0.4-0.5-1.2-0.5-1.1 0-1.7 0.6-0.5 0.7-0.5 1.8v4.3h-1.3v-7.7h1.3v1.2q0.4-0.7 1-1 0.6-0.3 1.4-0.3 1.3 0 2 0.8 0.7 0.8 0.7 2.4zm2.5-5.2h1.3v2.1h2.5v1h-2.5v4.2q0 0.9 0.2 1.2 0.3 0.2 1.1 0.2h1.2v1.1h-1.2q-1.5 0-2.1-0.5-0.5-0.6-0.5-2v-4.2h-0.9v-1h0.9zm-50.2 19.4v1.2q-0.5-0.2-1.1-0.4-0.6-0.1-1.2-0.1-0.9 0-1.4 0.3-0.5 0.3-0.5 0.8 0 0.5 0.4 0.7 0.3 0.3 1.3 0.5l0.4 0.1q1.4 0.3 1.9 0.8 0.6 0.5 0.6 1.5 0 1-0.8 1.6-0.9 0.7-2.4 0.7-0.6 0-1.2-0.1-0.7-0.2-1.4-0.4v-1.3q0.7 0.4 1.3 0.5 0.7 0.2 1.4 0.2 0.9 0 1.3-0.3 0.5-0.3 0.5-0.8 0-0.6-0.3-0.8-0.4-0.3-1.5-0.6l-0.5-0.1q-1.1-0.2-1.7-0.7-0.5-0.5-0.5-1.4 0-1.1 0.8-1.7 0.7-0.6 2.2-0.6 0.7 0 1.3 0.1 0.6 0.1 1.1 0.3zm2.5-2.4h1.2v2.2h2.6v1h-2.6v4.2q0 0.9 0.3 1.2 0.2 0.2 1 0.2h1.3v1.1h-1.3q-1.4 0-2-0.6-0.5-0.5-0.5-1.9v-4.2h-1v-1h1zm10.3 6h-1.3q-1.5 0-2.1 0.3-0.6 0.4-0.6 1.2 0 0.7 0.5 1.1 0.4 0.4 1.2 0.4 1 0 1.6-0.7 0.7-0.8 0.7-2zm1.2-0.5v4.3h-1.2v-1.1q-0.5 0.7-1.1 1-0.6 0.3-1.6 0.3-1.1 0-1.8-0.6-0.7-0.7-0.7-1.8 0-1.3 0.8-1.9 0.9-0.7 2.6-0.7h1.8v-0.1q0-0.9-0.6-1.4-0.6-0.4-1.6-0.4-0.7 0-1.3 0.1-0.6 0.2-1.2 0.5v-1.2q0.7-0.2 1.4-0.4 0.6-0.1 1.2-0.1 1.7 0 2.5 0.8 0.8 0.9 0.8 2.7zm2.7-5.5h1.2v2.2h2.6v0.9h-2.6v4.2q0 0.9 0.3 1.2 0.2 0.3 1 0.3h1.3v1h-1.3q-1.4 0-2-0.5-0.5-0.6-0.5-2v-4.2h-1v-0.9h1zm12.1 5.7v0.6h-5.8q0.1 1.3 0.8 2 0.7 0.6 2 0.6 0.7 0 1.4-0.1 0.6-0.2 1.3-0.6v1.2q-0.7 0.3-1.4 0.4-0.7 0.2-1.4 0.2-1.9 0-2.9-1.1-1.1-1-1.1-2.9 0-1.8 1-2.9 1-1.1 2.8-1.1 1.5 0 2.4 1 0.9 1 0.9 2.7zm-5.7-0.4h4.4q0-1-0.5-1.7-0.6-0.6-1.5-0.6-1.1 0-1.7 0.6-0.6 0.6-0.7 1.7zm12.4-0.7v-1.2h8.7v1.2zm0 2.8v-1.2h8.8v1.2zm19.2-6.7h-1.7v3.9h1.7q1 0 1.5-0.5 0.5-0.5 0.5-1.5 0-0.9-0.5-1.4-0.5-0.5-1.5-0.5zm-3.1 9.1v-10.2h3.1q1.7 0 2.6 0.8 0.9 0.7 0.9 2.2 0 1.6-0.9 2.3-0.9 0.8-2.6 0.8h-1.7v4.1zm11.5-9.1h-1.7v3.9h1.7q1 0 1.5-0.5 0.5-0.5 0.5-1.5 0-0.9-0.5-1.4-0.5-0.5-1.5-0.5zm-3.1 9.1v-10.2h3.1q1.7 0 2.6 0.8 0.9 0.7 0.9 2.2 0 1.6-0.9 2.3-0.9 0.8-2.6 0.8h-1.7v4.1z"/>
	<path id="Path 41" class="s2" d="m382.8 594.2h103.7v48.2h-103.7z"/>
	<path id="Current state = CG" class="s1" aria-label="Current
state = CG"  d="m417 606.6v1.4q-0.7-0.6-1.5-0.9-0.8-0.4-1.6-0.4-1.8 0-2.7 1.1-1 1.1-1 3.1 0 2 1 3.1 0.9 1.1 2.7 1.1 0.8 0 1.6-0.4 0.8-0.3 1.5-0.9v1.4q-0.7 0.5-1.5 0.8-0.8 0.2-1.7 0.2-2.3 0-3.7-1.4-1.3-1.4-1.3-3.9 0-2.5 1.3-3.9 1.4-1.4 3.7-1.4 0.9 0 1.7 0.3 0.8 0.2 1.5 0.7zm2 6.4v-4.7h1.2v4.6q0 1.1 0.4 1.7 0.5 0.5 1.3 0.5 1 0 1.6-0.6 0.6-0.7 0.6-1.8v-4.4h1.3v7.7h-1.3v-1.2q-0.4 0.7-1 1.1-0.6 0.3-1.4 0.3-1.4 0-2.1-0.8-0.6-0.8-0.6-2.4zm3.1-4.8zm10.3 0v1.3q-0.2-0.1-0.5-0.2-0.2 0-0.5 0-1.1 0-1.6 0.7-0.6 0.7-0.6 2v4h-1.3v-7.7h1.3v1.2q0.4-0.7 1-1 0.7-0.3 1.6-0.3 0.1 0 0.2 0 0.2 0 0.4 0zm5.5 0v1.3q-0.2-0.1-0.5-0.2-0.2 0-0.5 0-1.1 0-1.6 0.7-0.6 0.7-0.6 2v4h-1.3v-7.7h1.3v1.2q0.4-0.7 1-1 0.7-0.3 1.6-0.3 0.1 0 0.3 0 0.1 0 0.3 0zm7.6 3.7v0.6h-5.8q0.1 1.3 0.8 2 0.7 0.6 1.9 0.6 0.8 0 1.4-0.1 0.7-0.2 1.4-0.6v1.2q-0.7 0.3-1.4 0.4-0.7 0.2-1.4 0.2-1.9 0-3-1.1-1-1-1-2.9 0-1.8 1-2.9 1-1.1 2.7-1.1 1.6 0 2.5 1 0.9 0.9 0.9 2.7zm-5.8-0.4h4.5q0-1-0.6-1.7-0.5-0.6-1.5-0.6-1 0-1.6 0.6-0.7 0.6-0.8 1.7zm14.2-0.1v4.6h-1.3v-4.6q0-1.1-0.4-1.6-0.4-0.5-1.2-0.5-1.1 0-1.7 0.6-0.5 0.7-0.5 1.8v4.3h-1.3v-7.7h1.3v1.2q0.4-0.7 1-1 0.6-0.3 1.4-0.3 1.3 0 2 0.8 0.7 0.8 0.7 2.4zm2.5-5.2h1.3v2.1h2.5v1h-2.5v4.2q0 0.9 0.2 1.2 0.3 0.2 1.1 0.2h1.2v1.1h-1.2q-1.5 0-2.1-0.5-0.5-0.6-0.5-2v-4.2h-0.9v-1h0.9zm-52.2 19.4v1.2q-0.5-0.2-1.1-0.4-0.6-0.1-1.2-0.1-0.9 0-1.4 0.3-0.5 0.3-0.5 0.8 0 0.5 0.4 0.7 0.3 0.3 1.3 0.5l0.4 0.1q1.4 0.3 1.9 0.8 0.6 0.5 0.6 1.5 0 1-0.8 1.6-0.9 0.7-2.4 0.7-0.6 0-1.2-0.1-0.7-0.2-1.4-0.4v-1.3q0.7 0.4 1.3 0.5 0.7 0.2 1.4 0.2 0.9 0 1.3-0.3 0.5-0.3 0.5-0.8 0-0.6-0.3-0.8-0.4-0.3-1.5-0.6l-0.5-0.1q-1.1-0.2-1.7-0.7-0.5-0.5-0.5-1.4 0-1.1 0.8-1.7 0.7-0.6 2.2-0.6 0.7 0 1.3 0.1 0.6 0.1 1.1 0.3zm2.5-2.4h1.2v2.2h2.6v1h-2.6v4.2q0 0.9 0.3 1.2 0.2 0.2 1 0.2h1.3v1.1h-1.3q-1.4 0-2-0.6-0.5-0.5-0.5-1.9v-4.2h-1v-1h1zm10.3 6h-1.3q-1.5 0-2.1 0.3-0.6 0.4-0.6 1.2 0 0.7 0.5 1.1 0.4 0.4 1.2 0.4 1 0 1.6-0.7 0.7-0.8 0.7-2zm1.2-0.5v4.3h-1.2v-1.1q-0.5 0.7-1.1 1-0.6 0.3-1.6 0.3-1.1 0-1.8-0.6-0.7-0.7-0.7-1.8 0-1.3 0.8-1.9 0.9-0.7 2.6-0.7h1.8v-0.1q0-0.9-0.6-1.4-0.6-0.4-1.6-0.4-0.7 0-1.3 0.1-0.6 0.2-1.2 0.5v-1.2q0.7-0.2 1.4-0.4 0.6-0.1 1.2-0.1 1.7 0 2.5 0.8 0.8 0.9 0.8 2.7zm2.7-5.5h1.2v2.2h2.6v0.9h-2.6v4.2q0 0.9 0.3 1.2 0.2 0.3 1 0.3h1.3v1h-1.3q-1.4 0-2-0.5-0.5-0.6-0.5-2v-4.2h-1v-0.9h1zm12.1 5.7v0.6h-5.8q0.1 1.3 0.8 2 0.7 0.6 2 0.6 0.7 0 1.4-0.1 0.6-0.2 1.3-0.6v1.2q-0.7 0.3-1.4 0.4-0.7 0.2-1.4 0.2-1.9 0-2.9-1.1-1.1-1-1.1-2.9 0-1.8 1-2.9 1-1.1 2.8-1.1 1.5 0 2.4 1 0.9 1 0.9 2.7zm-5.7-0.4h4.4q0-1-0.5-1.7-0.6-0.6-1.5-0.6-1.1 0-1.7 0.6-0.6 0.6-0.7 1.7zm12.4-0.7v-1.2h8.7v1.2zm0 2.8v-1.2h8.8v1.2zm23.7-7v1.4q-0.7-0.6-1.5-0.9-0.8-0.4-1.6-0.4-1.8 0-2.7 1.1-1 1.1-1 3.1 0 2 1 3.1 0.9 1.1 2.7 1.1 0.8 0 1.6-0.4 0.8-0.3 1.5-0.9v1.4q-0.7 0.5-1.5 0.8-0.8 0.2-1.7 0.2-2.3 0-3.7-1.4-1.3-1.4-1.3-3.9 0-2.5 1.3-3.9 1.4-1.4 3.7-1.4 0.9 0 1.7 0.3 0.8 0.2 1.5 0.7zm9.1 7.9v-2.7h-2.2v-1.1h3.6v4.4q-0.8 0.5-1.8 0.8-0.9 0.3-2 0.3-2.4 0-3.8-1.4-1.3-1.4-1.3-3.9 0-2.5 1.3-3.9 1.4-1.4 3.8-1.4 1 0 1.9 0.3 0.9 0.2 1.6 0.7v1.5q-0.8-0.7-1.6-1-0.9-0.4-1.8-0.4-1.9 0-2.8 1.1-1 1-1 3.1 0 2.1 1 3.1 0.9 1.1 2.8 1.1 0.7 0 1.3-0.2 0.6-0.1 1-0.4z"/>
	<path id="Path 43" class="s2" d="m511.2 594.2h103.4v48.2h-103.4z"/>
	<path id="Current state = RH" class="s1" aria-label="Current
state = RH"  d="m545 606.6v1.4q-0.7-0.6-1.5-0.9-0.8-0.4-1.6-0.4-1.8 0-2.7 1.1-1 1.1-1 3.1 0 2 1 3.1 0.9 1.1 2.7 1.1 0.8 0 1.6-0.4 0.8-0.3 1.5-0.9v1.4q-0.7 0.5-1.5 0.8-0.8 0.2-1.7 0.2-2.3 0-3.7-1.4-1.3-1.4-1.3-3.9 0-2.5 1.3-3.9 1.4-1.4 3.7-1.4 0.9 0 1.7 0.3 0.8 0.2 1.5 0.7zm2 6.4v-4.7h1.2v4.6q0 1.1 0.4 1.7 0.5 0.5 1.3 0.5 1 0 1.6-0.6 0.6-0.7 0.6-1.8v-4.4h1.3v7.7h-1.3v-1.2q-0.4 0.7-1 1.1-0.6 0.3-1.4 0.3-1.4 0-2.1-0.8-0.6-0.8-0.6-2.4zm3.1-4.8zm10.3 0v1.3q-0.2-0.1-0.5-0.2-0.2 0-0.5 0-1.1 0-1.6 0.7-0.6 0.7-0.6 2v4h-1.3v-7.7h1.3v1.2q0.4-0.7 1-1 0.7-0.3 1.6-0.3 0.1 0 0.2 0 0.2 0 0.4 0zm5.5 0v1.3q-0.2-0.1-0.5-0.2-0.2 0-0.5 0-1.1 0-1.6 0.7-0.6 0.7-0.6 2v4h-1.3v-7.7h1.3v1.2q0.4-0.7 1-1 0.7-0.3 1.6-0.3 0.1 0 0.3 0 0.1 0 0.3 0zm7.6 3.7v0.6h-5.8q0.1 1.3 0.8 2 0.7 0.6 1.9 0.6 0.8 0 1.4-0.1 0.7-0.2 1.4-0.6v1.2q-0.7 0.3-1.4 0.4-0.7 0.2-1.4 0.2-1.9 0-3-1.1-1-1-1-2.9 0-1.8 1-2.9 1-1.1 2.7-1.1 1.6 0 2.5 1 0.9 0.9 0.9 2.7zm-5.8-0.4h4.5q0-1-0.6-1.7-0.5-0.6-1.5-0.6-1 0-1.6 0.6-0.7 0.6-0.8 1.7zm14.2-0.1v4.6h-1.3v-4.6q0-1.1-0.4-1.6-0.4-0.5-1.2-0.5-1.1 0-1.7 0.6-0.5 0.7-0.5 1.8v4.3h-1.3v-7.7h1.3v1.2q0.4-0.7 1-1 0.6-0.3 1.4-0.3 1.3 0 2 0.8 0.7 0.8 0.7 2.4zm2.5-5.2h1.3v2.1h2.5v1h-2.5v4.2q0 0.9 0.2 1.2 0.3 0.2 1.1 0.2h1.2v1.1h-1.2q-1.5 0-2.1-0.5-0.5-0.6-0.5-2v-4.2h-0.9v-1h0.9zm-52.2 19.4v1.2q-0.5-0.2-1.1-0.4-0.6-0.1-1.2-0.1-0.9 0-1.4 0.3-0.5 0.3-0.5 0.8 0 0.5 0.4 0.7 0.3 0.3 1.3 0.5l0.4 0.1q1.4 0.3 1.9 0.8 0.6 0.5 0.6 1.5 0 1-0.8 1.6-0.9 0.7-2.4 0.7-0.6 0-1.2-0.1-0.7-0.2-1.4-0.4v-1.3q0.7 0.4 1.3 0.5 0.7 0.2 1.4 0.2 0.9 0 1.3-0.3 0.5-0.3 0.5-0.8 0-0.6-0.3-0.8-0.4-0.3-1.5-0.6l-0.5-0.1q-1.1-0.2-1.7-0.7-0.5-0.5-0.5-1.4 0-1.1 0.8-1.7 0.7-0.6 2.2-0.6 0.7 0 1.3 0.1 0.6 0.1 1.1 0.3zm2.5-2.4h1.2v2.2h2.6v1h-2.6v4.2q0 0.9 0.3 1.2 0.2 0.2 1 0.2h1.3v1.1h-1.3q-1.4 0-2-0.6-0.5-0.5-0.5-1.9v-4.2h-1v-1h1zm10.3 6h-1.3q-1.5 0-2.1 0.3-0.6 0.4-0.6 1.2 0 0.7 0.5 1.1 0.4 0.4 1.2 0.4 1 0 1.6-0.7 0.7-0.8 0.7-2zm1.2-0.5v4.3h-1.2v-1.1q-0.5 0.7-1.1 1-0.6 0.3-1.6 0.3-1.1 0-1.8-0.6-0.7-0.7-0.7-1.8 0-1.3 0.8-1.9 0.9-0.7 2.6-0.7h1.8v-0.1q0-0.9-0.6-1.4-0.6-0.4-1.6-0.4-0.7 0-1.3 0.1-0.6 0.2-1.2 0.5v-1.2q0.7-0.2 1.4-0.4 0.6-0.1 1.2-0.1 1.7 0 2.5 0.8 0.8 0.9 0.8 2.7zm2.7-5.5h1.2v2.2h2.6v0.9h-2.6v4.2q0 0.9 0.3 1.2 0.2 0.3 1 0.3h1.3v1h-1.3q-1.4 0-2-0.5-0.5-0.6-0.5-2v-4.2h-1v-0.9h1zm12.1 5.7v0.6h-5.8q0.1 1.3 0.8 2 0.7 0.6 2 0.6 0.7 0 1.4-0.1 0.6-0.2 1.3-0.6v1.2q-0.7 0.3-1.4 0.4-0.7 0.2-1.4 0.2-1.9 0-2.9-1.1-1.1-1-1.1-2.9 0-1.8 1-2.9 1-1.1 2.8-1.1 1.5 0 2.4 1 0.9 1 0.9 2.7zm-5.7-0.4h4.4q0-1-0.5-1.7-0.6-0.6-1.5-0.6-1.1 0-1.7 0.6-0.6 0.6-0.7 1.7zm12.4-0.7v-1.2h8.7v1.2zm0 2.8v-1.2h8.8v1.2zm20.9-2.4q0.5 0.2 0.9 0.7 0.4 0.5 0.8 1.3l1.4 2.8h-1.5l-1.3-2.6q-0.5-1-0.9-1.4-0.5-0.3-1.3-0.3h-1.5v4.3h-1.4v-10.2h3.1q1.7 0 2.6 0.7 0.9 0.8 0.9 2.2 0 1-0.5 1.6-0.4 0.7-1.3 0.9zm-1.7-4.3h-1.7v3.7h1.7q1 0 1.5-0.5 0.5-0.5 0.5-1.4 0-0.9-0.5-1.3-0.5-0.5-1.5-0.5zm6.6 9.1v-10.2h1.4v4.2h5v-4.2h1.4v10.2h-1.4v-4.9h-5v4.9z"/>
	<path id="Path 45" class="s0" d="m358.6 671.8c0-6 4.8-10.9 10.9-10.9 6 0 10.9 4.9 10.9 10.9 0 6.1-4.9 11-10.9 11-6.1 0-10.9-4.9-10.9-11z"/>
	<path id="Path 46" class="s3" d="m306.8 641.5l46 18-0.7 1.9-46-18zm46 12.6l9 10-13.4 1.2zm82.1-10.8l-48.1 18.1-0.8-1.8 48.2-18.2zm-44.5 22.1l-13.4-1.3 9.2-9.9z"/>
	<path id="Path 47" fill-rule="evenodd" class="s3" d="m563.9 642.4v30.4h-171.5v-2h169.5v-28.4zm-171.5 30.4v5l-12-6 12-6v5h-2v2zm169.5-2v1l1-1zm-382.6-28.4v28.4h167.3v-5l12 6-12 6v-5h-169.3v-30.4zm-1 28.4l1 1v-1z"/>
	<path id="Path 48" class="s2" d="m24.7 263.7h119.3v53.3h-119.3z"/>
	<path id="Save received  class as  prev. r" class="s1" aria-label="Save received 
class as 
prev. received"  d="m43.5 268.1v1.4q-0.8-0.4-1.5-0.6-0.7-0.2-1.3-0.2-1.2 0-1.8 0.5-0.6 0.4-0.6 1.2 0 0.7 0.4 1 0.4 0.4 1.6 0.6l0.8 0.2q1.5 0.3 2.3 1 0.7 0.7 0.7 2 0 1.5-1 2.2-1 0.8-2.9 0.8-0.7 0-1.5-0.2-0.9-0.1-1.7-0.5v-1.4q0.8 0.5 1.6 0.7 0.8 0.3 1.6 0.3 1.2 0 1.8-0.5 0.7-0.5 0.7-1.3 0-0.8-0.5-1.2-0.5-0.4-1.5-0.6l-0.9-0.2q-1.5-0.3-2.2-1-0.7-0.6-0.7-1.8 0-1.3 1-2.1 0.9-0.8 2.6-0.8 0.7 0 1.5 0.1 0.7 0.2 1.5 0.4zm7.4 6.1h-1.2q-1.5 0-2.1 0.3-0.6 0.3-0.6 1.2 0 0.7 0.4 1.1 0.5 0.3 1.2 0.3 1.1 0 1.7-0.7 0.6-0.7 0.6-2zm1.3-0.5v4.4h-1.3v-1.2q-0.4 0.7-1 1.1-0.7 0.3-1.6 0.3-1.2 0-1.9-0.7-0.7-0.6-0.7-1.7 0-1.3 0.9-2 0.9-0.7 2.6-0.7h1.7v-0.1q0-0.8-0.5-1.3-0.6-0.5-1.6-0.5-0.7 0-1.3 0.2-0.6 0.1-1.2 0.4v-1.1q0.7-0.3 1.3-0.4 0.7-0.2 1.3-0.2 1.7 0 2.5 0.9 0.8 0.9 0.8 2.6zm4.6 4.4l-2.9-7.7h1.3l2.4 6.4 2.4-6.4h1.3l-2.8 7.7zm12.8-4.2v0.7h-5.8q0.1 1.3 0.8 1.9 0.7 0.7 2 0.7 0.7 0 1.4-0.2 0.7-0.1 1.3-0.5v1.2q-0.6 0.3-1.4 0.4-0.7 0.2-1.4 0.2-1.8 0-2.9-1.1-1.1-1.1-1.1-2.9 0-1.9 1-3 1.1-1.1 2.8-1.1 1.5 0 2.4 1 0.9 1 0.9 2.7zm-5.7-0.3h4.5q0-1.1-0.6-1.7-0.6-0.6-1.5-0.6-1.1 0-1.7 0.6-0.6 0.6-0.7 1.7zm16.7-3.3v1.3q-0.2-0.1-0.5-0.2-0.2 0-0.5 0-1.1 0-1.7 0.7-0.5 0.6-0.5 1.9v4.1h-1.3v-7.7h1.3v1.2q0.4-0.7 1-1 0.6-0.4 1.5-0.4 0.2 0 0.3 0.1 0.2 0 0.4 0zm7.5 3.6v0.7h-5.7q0 1.3 0.7 1.9 0.7 0.7 2 0.7 0.7 0 1.4-0.2 0.7-0.1 1.3-0.5v1.2q-0.6 0.3-1.3 0.4-0.8 0.2-1.5 0.2-1.8 0-2.9-1.1-1.1-1.1-1.1-2.9 0-1.9 1.1-3 1-1.1 2.7-1.1 1.5 0 2.4 1 0.9 1 0.9 2.7zm-5.7-0.3h4.5q0-1.1-0.6-1.7-0.6-0.6-1.5-0.6-1 0-1.7 0.6-0.6 0.6-0.7 1.7zm13.3-2.9v1.2q-0.5-0.3-1.1-0.4-0.5-0.2-1-0.2-1.3 0-1.9 0.8-0.7 0.8-0.7 2.2 0 1.4 0.7 2.1 0.6 0.8 1.9 0.8 0.5 0 1-0.1 0.6-0.2 1.1-0.5v1.2q-0.5 0.2-1.1 0.4-0.5 0.1-1.2 0.1-1.7 0-2.7-1.1-1-1.1-1-2.9 0-1.9 1-3 1-1.1 2.8-1.1 0.6 0 1.1 0.2 0.6 0.1 1.1 0.3zm8.8 3.2v0.7h-5.8q0 1.3 0.7 1.9 0.8 0.7 2 0.7 0.7 0 1.4-0.2 0.7-0.1 1.4-0.5v1.2q-0.7 0.3-1.4 0.4-0.7 0.2-1.5 0.2-1.8 0-2.9-1.1-1-1.1-1-2.9 0-1.9 1-3 1-1.1 2.7-1.1 1.6 0 2.4 1 1 1 1 2.7zm-5.8-0.3h4.5q0-1.1-0.6-1.7-0.5-0.6-1.5-0.6-1 0-1.7 0.6-0.6 0.6-0.7 1.7zm7.8 4.5v-7.7h1.3v7.7zm0-9.1v-1.6h1.2v1.6zm5.9 9.1l-2.9-7.7h1.4l2.3 6.4 2.4-6.4h1.4l-2.9 7.7zm12.9-4.2v0.7h-5.8q0.1 1.3 0.8 1.9 0.7 0.7 1.9 0.7 0.7 0 1.4-0.2 0.7-0.1 1.4-0.5v1.2q-0.7 0.3-1.4 0.4-0.7 0.2-1.5 0.2-1.8 0-2.9-1.1-1-1.1-1-2.9 0-1.9 1-3 1-1.1 2.7-1.1 1.6 0 2.5 1 0.9 1 0.9 2.7zm-5.8-0.3h4.5q0-1.1-0.6-1.7-0.5-0.6-1.5-0.6-1 0-1.7 0.6-0.6 0.6-0.7 1.7zm12.9-2v-4.2h1.2v10.7h-1.2v-1.2q-0.4 0.7-1 1.1-0.6 0.3-1.5 0.3-1.4 0-2.3-1.1-0.8-1.1-0.8-2.9 0-1.8 0.8-3 0.9-1.1 2.3-1.1 0.9 0 1.5 0.4 0.6 0.3 1 1zm-4.3 2.7q0 1.3 0.5 2.1 0.6 0.8 1.6 0.8 1 0 1.6-0.8 0.6-0.8 0.6-2.1 0-1.4-0.6-2.2-0.6-0.8-1.6-0.8-1 0-1.6 0.8-0.5 0.8-0.5 2.2zm-65.2 13.4v1.2q-0.6-0.3-1.1-0.4-0.5-0.2-1.1-0.2-1.2 0-1.9 0.8-0.7 0.8-0.7 2.2 0 1.4 0.7 2.1 0.7 0.8 1.9 0.8 0.6 0 1.1-0.1 0.5-0.2 1.1-0.5v1.2q-0.6 0.2-1.1 0.4-0.6 0.1-1.2 0.1-1.8 0-2.8-1.1-1-1.1-1-2.9 0-1.9 1-3 1.1-1.1 2.9-1.1 0.5 0 1.1 0.2 0.5 0.1 1.1 0.3zm2.2 7.4v-10.7h1.2v10.7zm8.6-3.9h-1.2q-1.5 0-2.1 0.4-0.6 0.3-0.6 1.2 0 0.6 0.4 1 0.5 0.4 1.2 0.4 1.1 0 1.7-0.7 0.6-0.8 0.6-2zm1.3-0.5v4.4h-1.3v-1.2q-0.4 0.7-1 1-0.7 0.4-1.6 0.4-1.2 0-1.9-0.7-0.7-0.7-0.7-1.8 0-1.3 0.9-1.9 0.8-0.7 2.6-0.7h1.7v-0.1q0-0.9-0.5-1.3-0.6-0.5-1.6-0.5-0.7 0-1.3 0.1-0.6 0.2-1.2 0.5v-1.1q0.7-0.3 1.3-0.4 0.7-0.2 1.3-0.2 1.6 0 2.5 0.9 0.8 0.8 0.8 2.6zm7.5-3.1v1.2q-0.6-0.3-1.1-0.4-0.6-0.1-1.2-0.1-1 0-1.4 0.3-0.5 0.2-0.5 0.8 0 0.5 0.3 0.7 0.4 0.3 1.4 0.5l0.4 0.1q1.3 0.3 1.9 0.8 0.6 0.5 0.6 1.4 0 1.1-0.9 1.7-0.8 0.7-2.3 0.7-0.6 0-1.3-0.2-0.6-0.1-1.4-0.3v-1.3q0.7 0.3 1.4 0.5 0.7 0.2 1.3 0.2 0.9 0 1.4-0.3 0.5-0.3 0.5-0.9 0-0.5-0.4-0.7-0.3-0.3-1.5-0.6l-0.4-0.1q-1.2-0.2-1.7-0.7-0.5-0.5-0.5-1.4 0-1.1 0.7-1.7 0.8-0.6 2.2-0.6 0.7 0 1.3 0.1 0.6 0.1 1.2 0.3zm7.3 0v1.2q-0.6-0.3-1.2-0.4-0.5-0.1-1.1-0.1-1 0-1.5 0.3-0.4 0.2-0.4 0.8 0 0.5 0.3 0.7 0.4 0.3 1.4 0.5l0.4 0.1q1.3 0.3 1.9 0.8 0.6 0.5 0.6 1.4 0 1.1-0.9 1.7-0.8 0.7-2.3 0.7-0.6 0-1.3-0.2-0.7-0.1-1.4-0.3v-1.3q0.7 0.3 1.4 0.5 0.7 0.2 1.3 0.2 0.9 0 1.4-0.3 0.5-0.3 0.5-0.9 0-0.5-0.4-0.7-0.3-0.3-1.5-0.6l-0.4-0.1q-1.2-0.2-1.7-0.7-0.5-0.5-0.5-1.4 0-1.1 0.7-1.7 0.8-0.6 2.2-0.6 0.7 0 1.3 0.1 0.6 0.1 1.2 0.3zm11.5 3.6h-1.2q-1.5 0-2.1 0.4-0.6 0.3-0.6 1.1 0 0.7 0.4 1.1 0.5 0.4 1.2 0.4 1.1 0 1.7-0.7 0.6-0.8 0.6-2zm1.3-0.5v4.3h-1.3v-1.1q-0.4 0.7-1 1-0.7 0.3-1.6 0.3-1.2 0-1.9-0.6-0.7-0.7-0.7-1.8 0-1.3 0.9-1.9 0.9-0.7 2.6-0.7h1.7v-0.1q0-0.9-0.5-1.4-0.6-0.4-1.6-0.4-0.7 0-1.3 0.1-0.6 0.2-1.2 0.5v-1.2q0.7-0.2 1.3-0.4 0.7-0.1 1.3-0.1 1.7 0 2.5 0.9 0.8 0.8 0.8 2.6zm7.5-3.1v1.2q-0.6-0.3-1.1-0.4-0.6-0.1-1.2-0.1-1 0-1.4 0.2-0.5 0.3-0.5 0.9 0 0.4 0.3 0.7 0.4 0.2 1.4 0.5l0.4 0.1q1.4 0.2 1.9 0.8 0.6 0.5 0.6 1.4 0 1.1-0.9 1.7-0.8 0.6-2.3 0.6-0.6 0-1.3-0.1-0.6-0.1-1.4-0.3v-1.3q0.7 0.3 1.4 0.5 0.7 0.2 1.3 0.2 0.9 0 1.4-0.3 0.5-0.3 0.5-0.9 0-0.5-0.4-0.8-0.3-0.2-1.5-0.5l-0.4-0.1q-1.2-0.2-1.7-0.7-0.5-0.6-0.5-1.4 0-1.1 0.8-1.7 0.7-0.6 2.1-0.6 0.7 0 1.3 0.1 0.7 0.1 1.2 0.3zm-71.5 22.3v4.1h-1.2v-10.6h1.2v1.1q0.4-0.6 1-1 0.6-0.3 1.5-0.3 1.4 0 2.2 1.1 0.9 1.1 0.9 2.9 0 1.8-0.9 2.9-0.8 1.1-2.2 1.1-0.9 0-1.5-0.3-0.6-0.3-1-1zm4.3-2.7q0-1.4-0.6-2.2-0.5-0.7-1.5-0.7-1 0-1.6 0.7-0.6 0.8-0.6 2.2 0 1.4 0.6 2.2 0.6 0.8 1.6 0.8 1 0 1.5-0.8 0.6-0.8 0.6-2.2zm7.8-3.9v1.3q-0.2-0.2-0.4-0.2-0.3-0.1-0.6-0.1-1 0-1.6 0.7-0.6 0.7-0.6 2v4h-1.3v-7.6h1.3v1.2q0.4-0.7 1-1.1 0.7-0.3 1.6-0.3 0.1 0 0.3 0 0.1 0 0.3 0.1zm7.6 3.6v0.6h-5.8q0.1 1.3 0.8 2 0.7 0.7 1.9 0.7 0.8 0 1.4-0.2 0.7-0.2 1.4-0.5v1.2q-0.7 0.2-1.4 0.4-0.7 0.1-1.4 0.1-1.9 0-2.9-1-1.1-1.1-1.1-2.9 0-1.9 1-3 1-1.1 2.8-1.1 1.5 0 2.4 1 0.9 1 0.9 2.7zm-5.7-0.4h4.4q0-1-0.5-1.6-0.6-0.6-1.5-0.6-1.1 0-1.7 0.6-0.7 0.6-0.7 1.6zm9.7 4.5l-2.8-7.6h1.3l2.4 6.4 2.4-6.4h1.3l-2.9 7.6zm5.4 0v-1.7h1.5v1.7zm13.1-7.7v1.3q-0.2-0.2-0.4-0.2-0.3-0.1-0.6-0.1-1 0-1.6 0.7-0.6 0.7-0.6 2v4h-1.2v-7.6h1.2v1.2q0.4-0.7 1.1-1.1 0.6-0.3 1.5-0.3 0.1 0 0.3 0 0.1 0 0.3 0.1zm7.6 3.6v0.6h-5.8q0.1 1.3 0.8 2 0.7 0.7 2 0.7 0.7 0 1.4-0.2 0.6-0.2 1.3-0.5v1.2q-0.7 0.2-1.4 0.4-0.7 0.1-1.4 0.1-1.8 0-2.9-1-1.1-1.1-1.1-2.9 0-1.9 1-3 1-1.1 2.8-1.1 1.5 0 2.4 1 0.9 1 0.9 2.7zm-5.7-0.4h4.4q0-1-0.5-1.6-0.6-0.6-1.5-0.6-1.1 0-1.7 0.6-0.6 0.6-0.7 1.6zm13.3-2.8v1.2q-0.6-0.3-1.1-0.5-0.5-0.1-1.1-0.1-1.2 0-1.9 0.7-0.7 0.8-0.7 2.2 0 1.4 0.7 2.2 0.7 0.8 1.9 0.8 0.6 0 1.1-0.2 0.5-0.1 1.1-0.4v1.1q-0.5 0.3-1.1 0.4-0.6 0.1-1.2 0.1-1.7 0-2.8-1-1-1.1-1-3 0-1.9 1-2.9 1.1-1.1 2.9-1.1 0.6 0 1.1 0.1 0.6 0.1 1.1 0.4zm8.7 3.2v0.6h-5.8q0.1 1.3 0.8 2 0.7 0.7 2 0.7 0.7 0 1.4-0.2 0.7-0.2 1.3-0.5v1.2q-0.7 0.2-1.4 0.4-0.7 0.1-1.4 0.1-1.8 0-2.9-1-1.1-1.1-1.1-2.9 0-1.9 1-3 1.1-1.1 2.8-1.1 1.5 0 2.4 1 0.9 1 0.9 2.7zm-5.7-0.4h4.5q-0.1-1-0.6-1.6-0.6-0.6-1.5-0.6-1.1 0-1.7 0.6-0.6 0.6-0.7 1.6zm7.8 4.5v-7.6h1.2v7.6zm0-9v-1.6h1.3v1.6zm5.9 9l-2.9-7.6h1.3l2.4 6.4 2.4-6.4h1.3l-2.8 7.6zm12.8-4.1v0.6h-5.8q0.1 1.3 0.8 2 0.7 0.7 2 0.7 0.7 0 1.4-0.2 0.7-0.2 1.3-0.5v1.2q-0.6 0.2-1.4 0.4-0.7 0.1-1.4 0.1-1.8 0-2.9-1-1.1-1.1-1.1-2.9 0-1.9 1-3 1.1-1.1 2.8-1.1 1.5 0 2.4 1 0.9 1 0.9 2.7zm-5.7-0.4h4.5q0-1-0.6-1.6-0.6-0.6-1.5-0.6-1.1 0-1.7 0.6-0.6 0.6-0.7 1.6zm12.8-2v-4.1h1.3v10.6h-1.3v-1.1q-0.4 0.7-1 1-0.6 0.3-1.4 0.3-1.4 0-2.3-1.1-0.9-1.1-0.9-2.9 0-1.8 0.9-2.9 0.9-1.1 2.3-1.1 0.8 0 1.4 0.3 0.6 0.4 1 1zm-4.3 2.7q0 1.4 0.6 2.2 0.6 0.8 1.6 0.8 1 0 1.6-0.8 0.5-0.8 0.5-2.2 0-1.4-0.5-2.2-0.6-0.7-1.6-0.7-1 0-1.6 0.7-0.6 0.8-0.6 2.2z"/>
	<path id="Path 50" class="s0" d="m73.4 373.2c0-6 4.9-10.8 11-10.8 6 0 10.9 4.8 10.9 10.8 0 5.9-4.9 10.8-10.9 10.8-6.1 0-11-4.9-11-10.8z"/>
	<path id="Path 51" fill-rule="evenodd" class="s3" d="m114.7 374.2h-7.4v-2h7.4zm-7.4 0v5l-12-6 12-6v5h-2v2zm-23.8-11.8v-33.4h2v33.4zm0-33.4h-5l6-12 6 12h-5v-2h-2zm21.2 141h-13.5v-77.2h2v75.2h11.5zm-13.5-77.2h-5l6-12 6 12h-5v-2h-2zm2 75.2h-1l1 1zm-9.7-204.1v-26.6h185.9v2h-183.9v24.6zm187.9-26.6v2h-2v5l12-6-12-6v5zm-185.9 2v-1l-1 1z"/>
	<path id="Path 52" class="s2" d="m595.4 263.7h119.3v53.3h-119.3z"/>
	<path id="Save received  class as  prev. r" class="s1" aria-label="Save received 
class as 
prev. received"  d="m614.5 268.1v1.4q-0.8-0.4-1.5-0.6-0.7-0.2-1.3-0.2-1.2 0-1.8 0.5-0.6 0.4-0.6 1.2 0 0.7 0.4 1 0.4 0.4 1.6 0.6l0.8 0.2q1.5 0.3 2.3 1 0.7 0.7 0.7 2 0 1.5-1 2.2-1 0.8-2.9 0.8-0.7 0-1.5-0.2-0.9-0.1-1.7-0.5v-1.4q0.8 0.5 1.6 0.7 0.8 0.3 1.6 0.3 1.2 0 1.8-0.5 0.7-0.5 0.7-1.3 0-0.8-0.5-1.2-0.5-0.4-1.5-0.6l-0.9-0.2q-1.5-0.3-2.2-1-0.7-0.6-0.7-1.8 0-1.3 1-2.1 0.9-0.8 2.6-0.8 0.7 0 1.5 0.1 0.7 0.2 1.5 0.4zm7.4 6.1h-1.2q-1.5 0-2.1 0.3-0.6 0.3-0.6 1.2 0 0.7 0.4 1.1 0.5 0.3 1.2 0.3 1.1 0 1.7-0.7 0.6-0.7 0.6-2zm1.3-0.5v4.4h-1.3v-1.2q-0.4 0.7-1 1.1-0.7 0.3-1.6 0.3-1.2 0-1.9-0.7-0.7-0.6-0.7-1.7 0-1.3 0.9-2 0.9-0.7 2.6-0.7h1.7v-0.1q0-0.8-0.5-1.3-0.6-0.5-1.6-0.5-0.7 0-1.3 0.2-0.6 0.1-1.2 0.4v-1.1q0.7-0.3 1.3-0.4 0.7-0.2 1.3-0.2 1.7 0 2.5 0.9 0.8 0.9 0.8 2.6zm4.6 4.4l-2.9-7.7h1.3l2.4 6.4 2.4-6.4h1.3l-2.8 7.7zm12.8-4.2v0.7h-5.8q0.1 1.3 0.8 1.9 0.7 0.7 2 0.7 0.7 0 1.4-0.2 0.7-0.1 1.3-0.5v1.2q-0.6 0.3-1.4 0.4-0.7 0.2-1.4 0.2-1.8 0-2.9-1.1-1.1-1.1-1.1-2.9 0-1.9 1-3 1.1-1.1 2.8-1.1 1.5 0 2.4 1 0.9 1 0.9 2.7zm-5.7-0.3h4.5q0-1.1-0.6-1.7-0.6-0.6-1.5-0.6-1.1 0-1.7 0.6-0.6 0.6-0.7 1.7zm16.7-3.3v1.3q-0.2-0.1-0.5-0.2-0.2 0-0.5 0-1.1 0-1.7 0.7-0.5 0.6-0.5 1.9v4.1h-1.3v-7.7h1.3v1.2q0.4-0.7 1-1 0.6-0.4 1.5-0.4 0.2 0 0.3 0.1 0.2 0 0.4 0zm7.5 3.6v0.7h-5.7q0 1.3 0.7 1.9 0.7 0.7 2 0.7 0.7 0 1.4-0.2 0.7-0.1 1.3-0.5v1.2q-0.6 0.3-1.3 0.4-0.8 0.2-1.5 0.2-1.8 0-2.9-1.1-1.1-1.1-1.1-2.9 0-1.9 1.1-3 1-1.1 2.7-1.1 1.5 0 2.4 1 0.9 1 0.9 2.7zm-5.7-0.3h4.5q0-1.1-0.6-1.7-0.6-0.6-1.5-0.6-1 0-1.7 0.6-0.6 0.6-0.7 1.7zm13.3-2.9v1.2q-0.5-0.3-1.1-0.4-0.5-0.2-1-0.2-1.3 0-1.9 0.8-0.7 0.8-0.7 2.2 0 1.4 0.7 2.1 0.6 0.8 1.9 0.8 0.5 0 1-0.1 0.6-0.2 1.1-0.5v1.2q-0.5 0.2-1.1 0.4-0.5 0.1-1.2 0.1-1.7 0-2.7-1.1-1-1.1-1-2.9 0-1.9 1-3 1-1.1 2.8-1.1 0.6 0 1.1 0.2 0.6 0.1 1.1 0.3zm8.8 3.2v0.7h-5.8q0 1.3 0.7 1.9 0.8 0.7 2 0.7 0.7 0 1.4-0.2 0.7-0.1 1.4-0.5v1.2q-0.7 0.3-1.4 0.4-0.7 0.2-1.5 0.2-1.8 0-2.9-1.1-1-1.1-1-2.9 0-1.9 1-3 1-1.1 2.7-1.1 1.6 0 2.4 1 1 1 1 2.7zm-5.8-0.3h4.5q0-1.1-0.6-1.7-0.5-0.6-1.5-0.6-1 0-1.7 0.6-0.6 0.6-0.7 1.7zm7.8 4.5v-7.7h1.3v7.7zm0-9.1v-1.6h1.2v1.6zm5.9 9.1l-2.9-7.7h1.4l2.3 6.4 2.4-6.4h1.4l-2.9 7.7zm12.9-4.2v0.7h-5.8q0.1 1.3 0.8 1.9 0.7 0.7 1.9 0.7 0.7 0 1.4-0.2 0.7-0.1 1.4-0.5v1.2q-0.7 0.3-1.4 0.4-0.7 0.2-1.5 0.2-1.8 0-2.9-1.1-1-1.1-1-2.9 0-1.9 1-3 1-1.1 2.7-1.1 1.6 0 2.5 1 0.9 1 0.9 2.7zm-5.8-0.3h4.5q0-1.1-0.6-1.7-0.5-0.6-1.5-0.6-1 0-1.7 0.6-0.6 0.6-0.7 1.7zm12.9-2v-4.2h1.2v10.7h-1.2v-1.2q-0.4 0.7-1 1.1-0.6 0.3-1.5 0.3-1.4 0-2.3-1.1-0.8-1.1-0.8-2.9 0-1.8 0.8-3 0.9-1.1 2.3-1.1 0.9 0 1.5 0.4 0.6 0.3 1 1zm-4.3 2.7q0 1.3 0.5 2.1 0.6 0.8 1.6 0.8 1 0 1.6-0.8 0.6-0.8 0.6-2.1 0-1.4-0.6-2.2-0.6-0.8-1.6-0.8-1 0-1.6 0.8-0.5 0.8-0.5 2.2zm-65.2 13.4v1.2q-0.6-0.3-1.1-0.4-0.5-0.2-1.1-0.2-1.2 0-1.9 0.8-0.7 0.8-0.7 2.2 0 1.4 0.7 2.1 0.7 0.8 1.9 0.8 0.6 0 1.1-0.1 0.5-0.2 1.1-0.5v1.2q-0.6 0.2-1.1 0.4-0.6 0.1-1.2 0.1-1.8 0-2.8-1.1-1-1.1-1-2.9 0-1.9 1-3 1.1-1.1 2.9-1.1 0.5 0 1.1 0.2 0.5 0.1 1.1 0.3zm2.2 7.4v-10.7h1.2v10.7zm8.6-3.9h-1.2q-1.5 0-2.1 0.4-0.6 0.3-0.6 1.2 0 0.6 0.4 1 0.5 0.4 1.2 0.4 1.1 0 1.7-0.7 0.6-0.8 0.6-2zm1.3-0.5v4.4h-1.3v-1.2q-0.4 0.7-1 1-0.7 0.4-1.6 0.4-1.2 0-1.9-0.7-0.7-0.7-0.7-1.8 0-1.3 0.9-1.9 0.8-0.7 2.6-0.7h1.7v-0.1q0-0.9-0.5-1.3-0.6-0.5-1.6-0.5-0.7 0-1.3 0.1-0.6 0.2-1.2 0.5v-1.1q0.7-0.3 1.3-0.4 0.7-0.2 1.3-0.2 1.6 0 2.5 0.9 0.8 0.8 0.8 2.6zm7.5-3.1v1.2q-0.6-0.3-1.1-0.4-0.6-0.1-1.2-0.1-1 0-1.4 0.3-0.5 0.2-0.5 0.8 0 0.5 0.3 0.7 0.4 0.3 1.4 0.5l0.4 0.1q1.3 0.3 1.9 0.8 0.6 0.5 0.6 1.4 0 1.1-0.9 1.7-0.8 0.7-2.3 0.7-0.6 0-1.3-0.2-0.6-0.1-1.4-0.3v-1.3q0.7 0.3 1.4 0.5 0.7 0.2 1.3 0.2 0.9 0 1.4-0.3 0.5-0.3 0.5-0.9 0-0.5-0.4-0.7-0.3-0.3-1.5-0.6l-0.4-0.1q-1.2-0.2-1.7-0.7-0.5-0.5-0.5-1.4 0-1.1 0.7-1.7 0.8-0.6 2.2-0.6 0.7 0 1.3 0.1 0.6 0.1 1.2 0.3zm7.3 0v1.2q-0.6-0.3-1.2-0.4-0.5-0.1-1.1-0.1-1 0-1.5 0.3-0.4 0.2-0.4 0.8 0 0.5 0.3 0.7 0.4 0.3 1.4 0.5l0.4 0.1q1.3 0.3 1.9 0.8 0.6 0.5 0.6 1.4 0 1.1-0.9 1.7-0.8 0.7-2.3 0.7-0.6 0-1.3-0.2-0.7-0.1-1.4-0.3v-1.3q0.7 0.3 1.4 0.5 0.7 0.2 1.3 0.2 0.9 0 1.4-0.3 0.5-0.3 0.5-0.9 0-0.5-0.4-0.7-0.3-0.3-1.5-0.6l-0.4-0.1q-1.2-0.2-1.7-0.7-0.5-0.5-0.5-1.4 0-1.1 0.7-1.7 0.8-0.6 2.2-0.6 0.7 0 1.3 0.1 0.6 0.1 1.2 0.3zm11.5 3.6h-1.2q-1.5 0-2.1 0.4-0.6 0.3-0.6 1.1 0 0.7 0.4 1.1 0.5 0.4 1.2 0.4 1.1 0 1.7-0.7 0.6-0.8 0.6-2zm1.3-0.5v4.3h-1.3v-1.1q-0.4 0.7-1 1-0.7 0.3-1.6 0.3-1.2 0-1.9-0.6-0.7-0.7-0.7-1.8 0-1.3 0.9-1.9 0.9-0.7 2.6-0.7h1.7v-0.1q0-0.9-0.5-1.4-0.6-0.4-1.6-0.4-0.7 0-1.3 0.1-0.6 0.2-1.2 0.5v-1.2q0.7-0.2 1.3-0.4 0.7-0.1 1.3-0.1 1.7 0 2.5 0.9 0.8 0.8 0.8 2.6zm7.5-3.1v1.2q-0.6-0.3-1.1-0.4-0.6-0.1-1.2-0.1-1 0-1.4 0.2-0.5 0.3-0.5 0.9 0 0.4 0.3 0.7 0.4 0.2 1.4 0.5l0.4 0.1q1.4 0.2 1.9 0.8 0.6 0.5 0.6 1.4 0 1.1-0.9 1.7-0.8 0.6-2.3 0.6-0.6 0-1.3-0.1-0.6-0.1-1.4-0.3v-1.3q0.7 0.3 1.4 0.5 0.7 0.2 1.3 0.2 0.9 0 1.4-0.3 0.5-0.3 0.5-0.9 0-0.5-0.4-0.8-0.3-0.2-1.5-0.5l-0.4-0.1q-1.2-0.2-1.7-0.7-0.5-0.6-0.5-1.4 0-1.1 0.8-1.7 0.7-0.6 2.1-0.6 0.7 0 1.3 0.1 0.7 0.1 1.2 0.3zm-71.5 22.3v4.1h-1.2v-10.6h1.2v1.1q0.4-0.6 1-1 0.6-0.3 1.5-0.3 1.4 0 2.2 1.1 0.9 1.1 0.9 2.9 0 1.8-0.9 2.9-0.8 1.1-2.2 1.1-0.9 0-1.5-0.3-0.6-0.3-1-1zm4.3-2.7q0-1.4-0.6-2.2-0.5-0.7-1.5-0.7-1 0-1.6 0.7-0.6 0.8-0.6 2.2 0 1.4 0.6 2.2 0.6 0.8 1.6 0.8 1 0 1.5-0.8 0.6-0.8 0.6-2.2zm7.8-3.9v1.3q-0.2-0.2-0.4-0.2-0.3-0.1-0.6-0.1-1 0-1.6 0.7-0.6 0.7-0.6 2v4h-1.3v-7.6h1.3v1.2q0.4-0.7 1-1.1 0.7-0.3 1.6-0.3 0.1 0 0.3 0 0.1 0 0.3 0.1zm7.6 3.6v0.6h-5.8q0.1 1.3 0.8 2 0.7 0.7 1.9 0.7 0.8 0 1.4-0.2 0.7-0.2 1.4-0.5v1.2q-0.7 0.2-1.4 0.4-0.7 0.1-1.4 0.1-1.9 0-2.9-1-1.1-1.1-1.1-2.9 0-1.9 1-3 1-1.1 2.8-1.1 1.5 0 2.4 1 0.9 1 0.9 2.7zm-5.7-0.4h4.4q0-1-0.5-1.6-0.6-0.6-1.5-0.6-1.1 0-1.7 0.6-0.7 0.6-0.7 1.6zm9.7 4.5l-2.8-7.6h1.3l2.4 6.4 2.4-6.4h1.3l-2.9 7.6zm5.4 0v-1.7h1.5v1.7zm13.1-7.7v1.3q-0.2-0.2-0.4-0.2-0.3-0.1-0.6-0.1-1 0-1.6 0.7-0.6 0.7-0.6 2v4h-1.2v-7.6h1.2v1.2q0.4-0.7 1.1-1.1 0.6-0.3 1.5-0.3 0.1 0 0.3 0 0.1 0 0.3 0.1zm7.6 3.6v0.6h-5.8q0.1 1.3 0.8 2 0.7 0.7 2 0.7 0.7 0 1.4-0.2 0.6-0.2 1.3-0.5v1.2q-0.7 0.2-1.4 0.4-0.7 0.1-1.4 0.1-1.8 0-2.9-1-1.1-1.1-1.1-2.9 0-1.9 1-3 1-1.1 2.8-1.1 1.5 0 2.4 1 0.9 1 0.9 2.7zm-5.7-0.4h4.4q0-1-0.5-1.6-0.6-0.6-1.5-0.6-1.1 0-1.7 0.6-0.6 0.6-0.7 1.6zm13.3-2.8v1.2q-0.6-0.3-1.1-0.5-0.5-0.1-1.1-0.1-1.2 0-1.9 0.7-0.7 0.8-0.7 2.2 0 1.4 0.7 2.2 0.7 0.8 1.9 0.8 0.6 0 1.1-0.2 0.5-0.1 1.1-0.4v1.1q-0.5 0.3-1.1 0.4-0.6 0.1-1.2 0.1-1.7 0-2.8-1-1-1.1-1-3 0-1.9 1-2.9 1.1-1.1 2.9-1.1 0.6 0 1.1 0.1 0.6 0.1 1.1 0.4zm8.7 3.2v0.6h-5.8q0.1 1.3 0.8 2 0.7 0.7 2 0.7 0.7 0 1.4-0.2 0.7-0.2 1.3-0.5v1.2q-0.7 0.2-1.4 0.4-0.7 0.1-1.4 0.1-1.8 0-2.9-1-1.1-1.1-1.1-2.9 0-1.9 1-3 1.1-1.1 2.8-1.1 1.5 0 2.4 1 0.9 1 0.9 2.7zm-5.7-0.4h4.5q-0.1-1-0.6-1.6-0.6-0.6-1.5-0.6-1.1 0-1.7 0.6-0.6 0.6-0.7 1.6zm7.8 4.5v-7.6h1.2v7.6zm0-9v-1.6h1.3v1.6zm5.9 9l-2.9-7.6h1.3l2.4 6.4 2.4-6.4h1.3l-2.8 7.6zm12.8-4.1v0.6h-5.8q0.1 1.3 0.8 2 0.7 0.7 2 0.7 0.7 0 1.4-0.2 0.7-0.2 1.3-0.5v1.2q-0.6 0.2-1.4 0.4-0.7 0.1-1.4 0.1-1.8 0-2.9-1-1.1-1.1-1.1-2.9 0-1.9 1-3 1.1-1.1 2.8-1.1 1.5 0 2.4 1 0.9 1 0.9 2.7zm-5.7-0.4h4.5q0-1-0.6-1.6-0.6-0.6-1.5-0.6-1.1 0-1.7 0.6-0.6 0.6-0.7 1.6zm12.8-2v-4.1h1.3v10.6h-1.3v-1.1q-0.4 0.7-1 1-0.6 0.3-1.4 0.3-1.4 0-2.3-1.1-0.9-1.1-0.9-2.9 0-1.8 0.9-2.9 0.9-1.1 2.3-1.1 0.8 0 1.4 0.3 0.6 0.4 1 1zm-4.3 2.7q0 1.4 0.6 2.2 0.6 0.8 1.6 0.8 1 0 1.6-0.8 0.5-0.8 0.5-2.2 0-1.4-0.5-2.2-0.6-0.7-1.6-0.7-1 0-1.6 0.7-0.6 0.8-0.6 2.2z"/>
	<path id="Path 54" class="s0" d="m643.9 373.2c0-6 4.9-10.8 10.9-10.8 6.1 0 11 4.8 11 10.8 0 5.9-4.9 10.8-11 10.8-6 0-10.9-4.9-10.9-10.8z"/>
	<path id="Path 55" fill-rule="evenodd" class="s3" d="m626.4 372.5l5.6-0.1v2h2v-2h-2l-0.1-5 12.1 5.8-11.9 6.2-0.1-5-5.6 0.1zm27.6-10.2l0.2-33.3h2l-0.2 33.4zm0.2-33.4h-5l6-12 6 12h-5v-2h-2zm-18.1 138h17.9v-71h2v73h-19.9zm17.9-71h-5l6-12 6 12h-5v-2h-2zm0 72l1-1h-1zm0-204.1v-24.6h-183.3v5l-12-6 12-6v5h185.3v26.6zm1-24.6l-1-1v1zm-284.6 443.4v27.3h-294.8v-317.1h2v315.1h290.8v-25.3zm-294.8-291.8h2v2h5l-6-12-6 12h5zm292.8 318.1l1-1h-1zm-291.8-1l1 1v-1z"/>
	<g id="Mask" clip-path="url(#cp1)">
		<path id="Path 57" class="s2" d="m227.2 94.5c6.8 0 12.3 6.2 12.3 13.8 0 7.6-5.5 13.8-12.3 13.8v-6.2c3.4 0 6.1-3.4 6.1-7.6 0-4.2-2.7-7.6-6.1-7.6z"/>
	</g>
	<g id="Mask" clip-path="url(#cp2)">
		<path id="Path 60" class="s2" d="m244.6 88.5c9.4 0 17 8.5 17 19 0 10.5-7.6 18.9-17 18.9v-8.5c4.7 0 8.5-4.7 8.5-10.4 0-5.8-3.8-10.5-8.5-10.5z"/>
	</g>
	<g id="Mask" clip-path="url(#cp3)">
		<path id="Path 63" class="s2" d="m265.3 81.1c12.3 0 22.2 11.2 22.2 24.9 0 13.8-9.9 25-22.2 25v-11.1c6.2 0 11.1-6.2 11.1-13.9 0-7.6-4.9-13.8-11.1-13.8z"/>
	</g>
	<path id="CG | RH" class="s1" aria-label="CG | RH"  d="m97 348.9v1.3q-0.6-0.6-1.3-0.9-0.6-0.2-1.4-0.2-1.5 0-2.3 0.9-0.8 0.9-0.8 2.6 0 1.8 0.8 2.7 0.8 0.9 2.3 0.9 0.8 0 1.4-0.3 0.7-0.3 1.3-0.8v1.2q-0.6 0.4-1.3 0.7-0.7 0.2-1.5 0.2-2 0-3.1-1.2-1.1-1.3-1.1-3.4 0-2.1 1.1-3.3 1.1-1.2 3.1-1.2 0.8 0 1.5 0.2 0.7 0.2 1.3 0.6zm7.8 6.9v-2.4h-1.9v-1h3.1v3.8q-0.7 0.5-1.5 0.7-0.9 0.3-1.8 0.3-2.1 0-3.2-1.2-1.2-1.2-1.2-3.4 0-2.1 1.2-3.3 1.1-1.2 3.2-1.2 0.9 0 1.6 0.2 0.8 0.2 1.4 0.6v1.3q-0.6-0.6-1.3-0.9-0.8-0.2-1.6-0.2-1.6 0-2.4 0.9-0.8 0.9-0.8 2.6 0 1.8 0.8 2.7 0.8 0.9 2.4 0.9 0.6 0 1.1-0.1 0.5-0.1 0.9-0.3zm7.5-8h1v12h-1zm11.7 5.1q0.3 0.1 0.7 0.5 0.4 0.5 0.7 1.2l1.2 2.4h-1.2l-1.2-2.2q-0.4-0.9-0.8-1.2-0.4-0.3-1.1-0.3h-1.3v3.7h-1.2v-8.7h2.7q1.5 0 2.2 0.6 0.8 0.6 0.8 1.9 0 0.8-0.4 1.3-0.4 0.6-1.1 0.8zm-1.5-3.7h-1.5v3.1h1.5q0.8 0 1.3-0.4 0.4-0.4 0.4-1.1 0-0.8-0.4-1.2-0.5-0.4-1.3-0.4zm5.6 7.8v-8.7h1.2v3.5h4.3v-3.5h1.2v8.7h-1.2v-4.2h-4.3v4.2z"/>
	<path id="CG" class="s1" aria-label="CG"  d="m577.2 411.9v1.3q-0.5-0.6-1.2-0.9-0.7-0.2-1.5-0.2-1.5 0-2.3 0.9-0.8 0.9-0.8 2.6 0 1.8 0.8 2.7 0.8 0.9 2.3 0.9 0.8 0 1.5-0.3 0.7-0.3 1.2-0.8v1.2q-0.6 0.4-1.3 0.7-0.7 0.2-1.4 0.2-2 0-3.2-1.2-1.1-1.3-1.1-3.4 0-2.1 1.1-3.3 1.2-1.2 3.2-1.2 0.8 0 1.4 0.2 0.7 0.2 1.3 0.6zm7.9 6.9v-2.4h-2v-1h3.1v3.8q-0.6 0.5-1.5 0.7-0.8 0.3-1.7 0.3-2.1 0-3.2-1.2-1.2-1.2-1.2-3.4 0-2.1 1.2-3.3 1.1-1.2 3.2-1.2 0.8 0 1.6 0.2 0.8 0.2 1.4 0.6v1.3q-0.6-0.6-1.4-0.9-0.7-0.2-1.5-0.2-1.6 0-2.4 0.9-0.8 0.9-0.8 2.6 0 1.8 0.8 2.7 0.8 0.9 2.4 0.9 0.6 0 1.1-0.1 0.5-0.1 0.9-0.3z"/>
	<path id="PP | RH" class="s1" aria-label="PP | RH"  d="m610.1 349.2h-1.5v3.3h1.5q0.9 0 1.3-0.4 0.5-0.4 0.5-1.2 0-0.8-0.5-1.2-0.4-0.5-1.3-0.5zm-2.6 7.8v-8.7h2.6q1.5 0 2.3 0.6 0.7 0.7 0.7 2 0 1.3-0.7 1.9-0.8 0.7-2.3 0.7h-1.5v3.5zm9.9-7.8h-1.4v3.3h1.4q0.9 0 1.3-0.4 0.5-0.4 0.5-1.2 0-0.8-0.5-1.2-0.4-0.5-1.3-0.5zm-2.6 7.8v-8.7h2.6q1.5 0 2.3 0.6 0.7 0.7 0.7 2 0 1.3-0.7 1.9-0.8 0.7-2.3 0.7h-1.4v3.5zm11.4-9.2h1v12h-1zm11.6 5.1q0.4 0.1 0.8 0.5 0.3 0.5 0.7 1.2l1.2 2.4h-1.3l-1.1-2.2q-0.4-0.9-0.9-1.2-0.4-0.3-1.1-0.3h-1.2v3.7h-1.2v-8.7h2.6q1.5 0 2.3 0.6 0.7 0.6 0.7 1.9 0 0.8-0.4 1.3-0.3 0.6-1.1 0.8zm-1.5-3.7h-1.4v3.1h1.4q0.9 0 1.3-0.4 0.5-0.4 0.5-1.1 0-0.8-0.5-1.2-0.4-0.4-1.3-0.4zm5.7 7.8v-8.7h1.2v3.5h4.3v-3.5h1.2v8.7h-1.2v-4.2h-4.3v4.2z"/>
	<path id="No" class="s1" aria-label="No"  d="m99.8 459v-8.7h1.6l3.8 7.3v-7.3h1.2v8.7h-1.6l-3.9-7.3v7.3zm11.4-5.8q-0.8 0-1.3 0.7-0.5 0.6-0.5 1.8 0 1.2 0.5 1.9 0.5 0.7 1.3 0.7 0.9 0 1.4-0.7 0.5-0.7 0.5-1.9 0-1.1-0.5-1.8-0.5-0.7-1.4-0.7zm0-0.9q1.4 0 2.2 0.9 0.8 0.9 0.8 2.5 0 1.6-0.8 2.6-0.8 0.9-2.2 0.9-1.4 0-2.2-0.9-0.8-1-0.8-2.6 0-1.6 0.8-2.5 0.8-0.9 2.2-0.9z"/>
	<path id="Yes" class="s1" aria-label="Yes"  d="m190 508.8l-3.1-4.5h1.3l2.4 3.5 2.4-3.5h1.3l-3.1 4.5v4.2h-1.2zm9.4 0.6v0.5h-5q0.1 1.2 0.7 1.7 0.6 0.6 1.7 0.6 0.6 0 1.2-0.1 0.6-0.2 1.1-0.5v1q-0.5 0.3-1.1 0.4-0.7 0.1-1.3 0.1-1.6 0-2.5-0.9-0.9-0.9-0.9-2.5 0-1.6 0.9-2.5 0.9-1 2.3-1 1.4 0 2.1 0.9 0.8 0.9 0.8 2.3zm-4.9-0.3h3.8q0-0.9-0.5-1.4-0.5-0.5-1.3-0.5-0.9 0-1.4 0.5-0.5 0.5-0.6 1.4zm10.8-2.5v1q-0.4-0.2-0.9-0.3-0.5-0.2-1-0.2-0.8 0-1.2 0.3-0.4 0.2-0.4 0.7 0 0.4 0.3 0.6 0.2 0.2 1.1 0.4l0.4 0.1q1.1 0.3 1.6 0.7 0.5 0.5 0.5 1.3 0 0.9-0.7 1.4-0.8 0.5-2 0.5-0.5 0-1.1-0.1-0.6-0.1-1.2-0.3v-1.1q0.6 0.3 1.2 0.5 0.5 0.1 1.1 0.1 0.8 0 1.2-0.2 0.4-0.3 0.4-0.8 0-0.4-0.3-0.6-0.3-0.3-1.3-0.5l-0.4-0.1q-1-0.2-1.4-0.6-0.5-0.5-0.5-1.2 0-0.9 0.7-1.5 0.6-0.5 1.8-0.5 0.6 0 1.2 0.1 0.5 0.1 0.9 0.3z"/>
	<path id="Yes" class="s1" aria-label="Yes"  d="m578 507.8l-3.1-4.5h1.2l2.5 3.5 2.4-3.5h1.3l-3.1 4.5v4.2h-1.2zm9.4 0.6v0.5h-5q0.1 1.2 0.7 1.7 0.6 0.6 1.7 0.6 0.6 0 1.2-0.1 0.6-0.2 1.1-0.5v1q-0.6 0.3-1.2 0.4-0.6 0.1-1.2 0.1-1.6 0-2.5-0.9-0.9-0.9-0.9-2.5 0-1.6 0.9-2.5 0.8-1 2.3-1 1.3 0 2.1 0.9 0.8 0.9 0.8 2.3zm-4.9-0.3h3.8q0-0.9-0.5-1.4-0.5-0.5-1.3-0.5-0.9 0-1.4 0.5-0.6 0.5-0.6 1.4zm10.8-2.5v1q-0.4-0.2-0.9-0.3-0.5-0.2-1-0.2-0.8 0-1.2 0.3-0.4 0.2-0.4 0.7 0 0.4 0.2 0.6 0.3 0.2 1.2 0.4l0.4 0.1q1.1 0.3 1.6 0.7 0.5 0.5 0.5 1.3 0 0.9-0.7 1.4-0.8 0.5-2 0.5-0.6 0-1.1-0.1-0.6-0.1-1.2-0.3v-1.1q0.6 0.3 1.1 0.5 0.6 0.1 1.2 0.1 0.8 0 1.2-0.2 0.4-0.3 0.4-0.8 0-0.4-0.3-0.6-0.3-0.3-1.3-0.5l-0.4-0.1q-1-0.2-1.4-0.6-0.5-0.5-0.5-1.2 0-0.9 0.7-1.5 0.6-0.5 1.8-0.5 0.6 0 1.2 0.1 0.5 0.1 0.9 0.3z"/>
	<path id="No" class="s1" aria-label="No"  d="m634.7 459v-8.7h1.6l3.9 7.3v-7.3h1.2v8.7h-1.6l-3.9-7.3v7.3zm11.4-5.8q-0.9 0-1.4 0.7-0.5 0.6-0.5 1.8 0 1.2 0.5 1.9 0.5 0.7 1.4 0.7 0.9 0 1.4-0.7 0.5-0.7 0.5-1.9 0-1.1-0.5-1.8-0.5-0.7-1.4-0.7zm0-0.9q1.4 0 2.2 0.9 0.8 0.9 0.8 2.5 0 1.6-0.8 2.6-0.8 0.9-2.2 0.9-1.4 0-2.2-0.9-0.8-1-0.8-2.6 0-1.6 0.8-2.5 0.8-0.9 2.2-0.9z"/>
	<path id="Path 72" class="s3" d="m307.5 575v9.1h-2v-9.1zm5 7.1l-6 12-6-12zm-133.2-7.1v9.1h-2v-9.1zm5 7.1l-6 12-6-12zm251.3-7.1v9.1h-2v-9.1zm5 7.1l-6 12-6-12zm123.2-7.1v9.1h-2v-9.1zm5 7.1l-6 12-6-12z"/>
	<path id="CG" class="s1" aria-label="CG"  d="m447.2 426.9v1.3q-0.6-0.6-1.3-0.9-0.6-0.2-1.4-0.2-1.5 0-2.3 0.9-0.8 0.9-0.8 2.6 0 1.8 0.8 2.7 0.8 0.9 2.3 0.9 0.8 0 1.4-0.3 0.7-0.3 1.3-0.8v1.2q-0.6 0.4-1.3 0.7-0.7 0.2-1.5 0.2-2 0-3.1-1.2-1.1-1.3-1.1-3.4 0-2.1 1.1-3.3 1.1-1.2 3.1-1.2 0.8 0 1.5 0.2 0.7 0.2 1.3 0.6zm7.8 6.9v-2.4h-1.9v-1h3.1v3.8q-0.7 0.5-1.5 0.7-0.9 0.3-1.8 0.3-2 0-3.2-1.2-1.2-1.2-1.2-3.4 0-2.1 1.2-3.3 1.2-1.2 3.2-1.2 0.9 0 1.6 0.2 0.8 0.2 1.5 0.6v1.3q-0.7-0.6-1.4-0.9-0.8-0.2-1.6-0.2-1.6 0-2.4 0.9-0.8 0.9-0.8 2.6 0 1.8 0.8 2.7 0.8 0.9 2.4 0.9 0.6 0 1.1-0.1 0.5-0.1 0.9-0.3z"/>
	<path id="PP" class="s1" aria-label="PP"  d="m285.7 428.2h-1.4v3.3h1.4q0.9 0 1.3-0.4 0.5-0.4 0.5-1.2 0-0.8-0.5-1.2-0.4-0.5-1.3-0.5zm-2.6 7.8v-8.7h2.6q1.5 0 2.3 0.6 0.7 0.7 0.7 2 0 1.3-0.7 1.9-0.8 0.7-2.3 0.7h-1.4v3.5zm9.9-7.8h-1.5v3.3h1.5q0.8 0 1.2-0.4 0.5-0.4 0.5-1.2 0-0.8-0.5-1.2-0.4-0.5-1.2-0.5zm-2.7 7.8v-8.7h2.7q1.4 0 2.2 0.6 0.7 0.7 0.7 2 0 1.3-0.7 1.9-0.8 0.7-2.2 0.7h-1.5v3.5z"/>
	<path id="Path 75" class="s2" d="m171.8 95.3c0-2.9 2.4-5.3 5.4-5.3h37.3c2.9 0 5.3 2.4 5.3 5.3v21.5c0 2.9-2.4 5.3-5.3 5.3h-37.3c-3 0-5.4-2.4-5.4-5.3z"/>
	<path id="TIS" class="s1" aria-label="TIS"  d="m183.7 102v-1.2h8.6v1.2h-3.6v9h-1.4v-9zm9.9 9v-10.2h1.4v10.2zm10.2-9.9v1.4q-0.8-0.4-1.5-0.6-0.7-0.2-1.4-0.2-1.1 0-1.7 0.5-0.6 0.4-0.6 1.2 0 0.7 0.4 1 0.4 0.4 1.5 0.6l0.9 0.2q1.5 0.3 2.2 1 0.8 0.7 0.8 2 0 1.5-1 2.2-1 0.8-2.9 0.8-0.8 0-1.6-0.2-0.8-0.1-1.7-0.5v-1.4q0.9 0.5 1.7 0.7 0.8 0.3 1.6 0.3 1.1 0 1.8-0.5 0.6-0.5 0.6-1.3 0-0.8-0.4-1.2-0.5-0.4-1.5-0.6l-0.9-0.2q-1.5-0.3-2.2-1-0.7-0.6-0.7-1.8 0-1.3 0.9-2.1 1-0.8 2.7-0.8 0.7 0 1.4 0.1 0.8 0.2 1.6 0.4z"/>
</svg>