<svg version="1.2" xmlns="http://www.w3.org/2000/svg" viewBox="0 0 454 737" width="454" height="737">
	<title>flowchart2-pdf</title>
	<defs>
		<clipPath clipPathUnits="userSpaceOnUse" id="cp1">
			<path d="m0-0.04h453.6v737.04h-453.6"/>
		</clipPath>
		<clipPath clipPathUnits="userSpaceOnUse" id="cp2">
			<path d="m0-0.04h453.6v737.04h-453.6"/>
		</clipPath>
		<clipPath clipPathUnits="userSpaceOnUse" id="cp3">
			<path d="m0-0.04h453.6v737.04h-453.6"/>
		</clipPath>
		<clipPath clipPathUnits="userSpaceOnUse" id="cp4">
			<path d="m0-0.04h453.6v737.04h-453.6"/>
		</clipPath>
	</defs>
	<style>
		.s0 { fill: none;stroke: #7f7f7f;stroke-width: 1.9 } 
		.s1 { fill: #000000 } 
		.s2 { fill: #ffffff;stroke: #7f7f7f;stroke-width: 1.9 } 
		.s3 { fill: #7f7f7f } 
	</style>
	<path id="Path 2" class="s0" d="m155 519.7l70.4-23.2 70.3 23.2-70.3 23.1z"/>
	<path id="MV" class="s1" aria-label="MV"  d="m216.3 525v-10.2h2l2.6 6.9 2.7-6.9h2v10.2h-1.3v-9l-2.7 7h-1.4l-2.6-7v9zm16.3 0h-1.6l-3.9-10.2h1.5l3.2 8.6 3.3-8.6h1.4z"/>
	<path id="Path 4" class="s2" d="m196.4 27.6h63.9c8.4 0 15.2 6.3 15.2 14.1 0 7.8-6.8 14.2-15.2 14.2h-63.9c-8.4 0-15.2-6.4-15.2-14.2 0-7.8 6.8-14.1 15.2-14.1z"/>
	<path id="Start TIS" class="s1" aria-label="Start TIS"  d="m206.5 37.1v1.4q-0.8-0.4-1.5-0.6-0.6-0.2-1.3-0.2-1.1 0-1.7 0.5-0.6 0.4-0.6 1.2 0 0.7 0.4 1 0.4 0.4 1.5 0.6l0.8 0.2q1.6 0.3 2.3 1 0.7 0.7 0.7 2 0 1.5-1 2.2-0.9 0.8-2.9 0.8-0.7 0-1.5-0.2-0.8-0.1-1.7-0.5v-1.4q0.8 0.5 1.7 0.7 0.8 0.3 1.5 0.3 1.2 0 1.9-0.5 0.6-0.5 0.6-1.3 0-0.8-0.5-1.2-0.4-0.4-1.5-0.6l-0.8-0.2q-1.6-0.3-2.2-1-0.7-0.6-0.7-1.8 0-1.3 0.9-2.1 1-0.8 2.6-0.8 0.8 0 1.5 0.1 0.8 0.2 1.5 0.4zm2.7 0.1h1.3v2.1h2.6v1h-2.6v4.2q0 0.9 0.2 1.2 0.3 0.2 1.1 0.2h1.3v1.1h-1.3q-1.5 0-2-0.5-0.6-0.6-0.6-2v-4.2h-0.9v-1h0.9zm10.3 6h-1.3q-1.5 0-2.1 0.4-0.6 0.3-0.6 1.2 0 0.6 0.5 1 0.4 0.4 1.2 0.4 1 0 1.6-0.7 0.7-0.8 0.7-2zm1.2-0.5v4.4h-1.2v-1.2q-0.5 0.7-1.1 1-0.7 0.4-1.6 0.4-1.2 0-1.9-0.7-0.6-0.7-0.6-1.8 0-1.3 0.8-1.9 0.9-0.7 2.6-0.7h1.8v-0.1q0-0.9-0.6-1.3-0.6-0.5-1.6-0.5-0.7 0-1.3 0.1-0.6 0.2-1.2 0.5v-1.2q0.7-0.2 1.4-0.4 0.6-0.1 1.2-0.1 1.7 0 2.5 0.9 0.8 0.8 0.8 2.6zm7-3.4l0.1 1.3q-0.3-0.1-0.5-0.2-0.3-0.1-0.6-0.1-1 0-1.6 0.7-0.6 0.7-0.6 2v4.1h-1.2v-7.7h1.2v1.2q0.4-0.7 1.1-1 0.6-0.4 1.5-0.4 0.1 0 0.3 0 0.2 0 0.3 0.1zm1.3-2.1h1.3v2.2h2.6v1h-2.6v4.1q0 1 0.3 1.2 0.2 0.3 1 0.3h1.3v1.1h-1.3q-1.4 0-2-0.6-0.6-0.5-0.6-2v-4.1h-0.9v-1h0.9zm8.6 0.8v-1.2h8.7v1.2h-3.6v9h-1.4v-9zm9.9 9v-10.2h1.4v10.2zm10.3-9.8v1.3q-0.8-0.4-1.5-0.6-0.7-0.1-1.4-0.1-1.1 0-1.7 0.4-0.6 0.4-0.6 1.2 0 0.7 0.4 1.1 0.4 0.3 1.5 0.5l0.9 0.2q1.5 0.3 2.2 1 0.8 0.8 0.8 2 0 1.5-1 2.3-1 0.7-2.9 0.7-0.8 0-1.6-0.1-0.8-0.2-1.7-0.5v-1.4q0.9 0.4 1.7 0.7 0.8 0.2 1.6 0.2 1.2 0 1.8-0.5 0.6-0.4 0.6-1.3 0-0.7-0.4-1.2-0.5-0.4-1.5-0.6l-0.9-0.2q-1.5-0.3-2.2-0.9-0.7-0.7-0.7-1.9 0-1.3 0.9-2.1 1-0.8 2.7-0.8 0.7 0 1.4 0.2 0.8 0.1 1.6 0.4z"/>
	<path id="Path 6" class="s2" d="m148.6 76.3h157.6v46.3h-157.6z"/>
	<path id="Establish BLE  connection with R" class="s1" aria-label="Establish BLE 
connection with RAS"  d="m181.4 96v-10.2h6.4v1.2h-5v3h4.8v1.1h-4.8v3.7h5.2v1.2zm13.6-7.4v1.2q-0.5-0.3-1.1-0.5-0.6-0.1-1.2-0.1-0.9 0-1.4 0.3-0.4 0.3-0.4 0.9 0 0.4 0.3 0.7 0.3 0.2 1.3 0.4l0.5 0.1q1.3 0.3 1.9 0.8 0.5 0.6 0.5 1.5 0 1.1-0.8 1.7-0.9 0.6-2.3 0.6-0.6 0-1.3-0.1-0.7-0.1-1.4-0.4v-1.3q0.7 0.4 1.4 0.6 0.6 0.1 1.3 0.1 0.9 0 1.4-0.3 0.4-0.3 0.4-0.8 0-0.5-0.3-0.8-0.4-0.3-1.5-0.5l-0.5-0.1q-1.1-0.3-1.6-0.8-0.6-0.5-0.6-1.4 0-1.1 0.8-1.7 0.8-0.5 2.2-0.5 0.7 0 1.3 0.1 0.6 0.1 1.1 0.3zm2.4-2.4h1.3v2.1h2.6v1h-2.6v4.2q0 0.9 0.2 1.2 0.3 0.2 1.1 0.2h1.3v1.1h-1.3q-1.5 0-2-0.5-0.6-0.6-0.6-2v-4.2h-0.9v-1h0.9zm10.3 6h-1.3q-1.5 0-2.1 0.4-0.6 0.3-0.6 1.2 0 0.6 0.4 1 0.5 0.4 1.2 0.4 1.1 0 1.7-0.7 0.7-0.8 0.7-2zm1.2-0.5v4.4h-1.2v-1.2q-0.5 0.7-1.1 1-0.7 0.4-1.6 0.4-1.2 0-1.9-0.7-0.7-0.7-0.7-1.8 0-1.3 0.9-1.9 0.9-0.7 2.6-0.7h1.8v-0.1q0-0.9-0.6-1.3-0.6-0.5-1.6-0.5-0.7 0-1.3 0.1-0.6 0.2-1.2 0.5v-1.2q0.7-0.2 1.3-0.4 0.7-0.1 1.3-0.1 1.7 0 2.5 0.9 0.8 0.8 0.8 2.6zm8.1 0.5q0-1.4-0.6-2.1-0.5-0.8-1.5-0.8-1 0-1.6 0.8-0.6 0.7-0.6 2.1 0 1.4 0.6 2.2 0.6 0.8 1.6 0.8 1 0 1.5-0.8 0.6-0.8 0.6-2.2zm-4.3-6.8v4.2q0.4-0.7 1-1.1 0.6-0.3 1.5-0.3 1.4 0 2.2 1.1 0.9 1.1 0.9 2.9 0 1.8-0.9 2.9-0.8 1.2-2.2 1.2-0.9 0-1.5-0.4-0.6-0.3-1-1v1.2h-1.2v-10.7zm7.6 10.7v-10.7h1.3v10.7zm3.9 0v-7.7h1.2v7.7zm0-9.1v-1.6h1.3v1.6zm8.8 1.6v1.2q-0.6-0.3-1.1-0.4-0.6-0.1-1.2-0.1-1 0-1.4 0.3-0.5 0.2-0.5 0.8 0 0.5 0.3 0.7 0.4 0.3 1.4 0.5l0.4 0.1q1.3 0.3 1.9 0.8 0.6 0.5 0.6 1.4 0 1.1-0.9 1.7-0.8 0.7-2.3 0.7-0.6 0-1.3-0.2-0.6-0.1-1.4-0.3v-1.3q0.7 0.3 1.4 0.5 0.7 0.2 1.3 0.2 0.9 0 1.4-0.3 0.5-0.3 0.5-0.9 0-0.5-0.4-0.7-0.3-0.3-1.5-0.6l-0.4-0.1q-1.2-0.2-1.7-0.7-0.5-0.5-0.5-1.4 0-1.1 0.7-1.7 0.8-0.6 2.2-0.6 0.7 0 1.3 0.1 0.6 0.1 1.2 0.3zm8.7 2.8v4.7h-1.2v-4.6q0-1.1-0.4-1.7-0.5-0.5-1.3-0.5-1 0-1.6 0.7-0.6 0.6-0.6 1.7v4.4h-1.3v-10.7h1.3v4.2q0.4-0.7 1-1 0.7-0.4 1.5-0.4 1.3 0 2 0.8 0.6 0.8 0.6 2.4zm10.6-0.2h-2.2v3.7h2.2q1.2 0 1.7-0.4 0.5-0.5 0.5-1.5 0-0.9-0.5-1.4-0.5-0.4-1.7-0.4zm-0.1-4.2h-2.1v3.1h2.1q1 0 1.5-0.4 0.5-0.4 0.5-1.2 0-0.8-0.5-1.1-0.5-0.4-1.5-0.4zm-3.4 9.1v-10.3h3.5q1.6 0 2.4 0.7 0.9 0.7 0.9 1.9 0 0.9-0.5 1.5-0.4 0.5-1.3 0.7 1.1 0.2 1.6 0.9 0.6 0.7 0.6 1.7 0 1.4-0.9 2.1-1 0.8-2.7 0.8zm9.6 0v-10.3h1.4v9.1h5v1.2zm7.8 0v-10.3h6.4v1.2h-5.1v3h4.9v1.2h-4.9v3.7h5.2v1.2zm-103.4 9.6v1.2q-0.5-0.3-1.1-0.5-0.5-0.1-1-0.1-1.3 0-1.9 0.8-0.7 0.7-0.7 2.1 0 1.4 0.7 2.2 0.6 0.8 1.9 0.8 0.5 0 1-0.2 0.6-0.1 1.1-0.4v1.2q-0.5 0.2-1.1 0.3-0.5 0.2-1.2 0.2-1.7 0-2.7-1.1-1.1-1.1-1.1-3 0-1.8 1.1-2.9 1-1.1 2.8-1.1 0.6 0 1.1 0.1 0.6 0.2 1.1 0.4zm5.2 0.6q-1.1 0-1.6 0.8-0.6 0.8-0.6 2.1 0 1.4 0.6 2.2 0.5 0.8 1.6 0.8 1 0 1.6-0.8 0.5-0.8 0.5-2.2 0-1.3-0.5-2.1-0.6-0.8-1.6-0.8zm0-1.1q1.6 0 2.5 1.1 1 1 1 2.9 0 1.9-1 3-0.9 1.1-2.5 1.1-1.7 0-2.6-1.1-1-1.1-1-3 0-1.9 1-2.9 0.9-1.1 2.6-1.1zm11.9 3.2v4.7h-1.2v-4.6q0-1.1-0.5-1.7-0.4-0.5-1.2-0.5-1 0-1.6 0.7-0.6 0.6-0.6 1.7v4.4h-1.3v-7.7h1.3v1.2q0.4-0.7 1-1 0.6-0.4 1.4-0.4 1.4 0 2 0.8 0.7 0.8 0.7 2.4zm8.9 0v4.7h-1.3v-4.6q0-1.1-0.4-1.7-0.4-0.5-1.3-0.5-1 0-1.6 0.7-0.6 0.6-0.6 1.7v4.4h-1.2v-7.7h1.2v1.2q0.5-0.7 1.1-1 0.6-0.4 1.4-0.4 1.3 0 2 0.8 0.7 0.8 0.7 2.4zm9.1 0.5v0.6h-5.8q0.1 1.3 0.7 2 0.8 0.7 2 0.7 0.7 0 1.4-0.2 0.7-0.2 1.4-0.5v1.2q-0.7 0.3-1.4 0.4-0.7 0.2-1.5 0.2-1.8 0-2.9-1.1-1-1.1-1-2.9 0-1.9 1-3 1-1.1 2.7-1.1 1.6 0 2.5 1 0.9 1 0.9 2.7zm-5.8-0.4h4.5q0-1-0.6-1.6-0.5-0.6-1.5-0.6-1 0-1.7 0.6-0.6 0.6-0.7 1.6zm13.3-2.8v1.2q-0.5-0.3-1-0.5-0.6-0.1-1.1-0.1-1.3 0-1.9 0.8-0.7 0.7-0.7 2.1 0 1.4 0.7 2.2 0.6 0.8 1.9 0.8 0.5 0 1.1-0.2 0.5-0.1 1-0.4v1.2q-0.5 0.2-1.1 0.3-0.5 0.2-1.2 0.2-1.7 0-2.7-1.1-1-1.1-1-3 0-1.8 1-2.9 1-1.1 2.8-1.1 0.6 0 1.2 0.1 0.5 0.2 1 0.4zm2.2-2.5h1.3v2.2h2.5v1h-2.5v4.1q0 1 0.2 1.2 0.3 0.3 1.1 0.3h1.2v1.1h-1.2q-1.5 0-2.1-0.6-0.5-0.5-0.5-2v-4.1h-0.9v-1h0.9zm5.5 9.8v-7.6h1.3v7.6zm0-9v-1.6h1.2v1.6zm6.9 2.3q-1 0-1.6 0.7-0.6 0.8-0.6 2.2 0 1.4 0.6 2.2 0.6 0.8 1.6 0.8 1 0 1.6-0.8 0.6-0.8 0.6-2.2 0-1.4-0.6-2.1-0.6-0.8-1.6-0.8zm0-1.1q1.6 0 2.6 1.1 0.9 1 0.9 2.9 0 1.9-0.9 3-1 1-2.6 1-1.7 0-2.6-1-0.9-1.1-0.9-3 0-1.9 0.9-2.9 0.9-1.1 2.6-1.1zm11.9 3.2v4.6h-1.2v-4.6q0-1-0.4-1.6-0.5-0.5-1.3-0.5-1 0-1.6 0.6-0.6 0.7-0.6 1.8v4.3h-1.3v-7.6h1.3v1.2q0.4-0.7 1.1-1.1 0.6-0.3 1.4-0.3 1.3 0 2 0.8 0.6 0.8 0.6 2.4zm8.3 4.6l-2-7.6h1.2l1.6 5.9 1.6-5.9h1.4l1.6 5.9 1.6-5.9h1.2l-2 7.6h-1.4l-1.7-6.2-1.6 6.2zm10.1 0v-7.6h1.3v7.6zm0-9v-1.6h1.2v1.6zm3.9-0.8h1.3v2.2h2.6v0.9h-2.6v4.2q0 0.9 0.2 1.2 0.3 0.3 1.1 0.3h1.3v1h-1.3q-1.5 0-2-0.5-0.6-0.6-0.6-2v-4.2h-0.9v-0.9h0.9zm11.9 5.2v4.6h-1.3v-4.6q0-1.1-0.4-1.6-0.4-0.5-1.3-0.5-1 0-1.6 0.6-0.6 0.7-0.6 1.8v4.3h-1.2v-10.6h1.2v4.1q0.5-0.7 1.1-1 0.6-0.3 1.4-0.3 1.3 0 2 0.8 0.7 0.8 0.7 2.4zm11.8-0.2q0.5 0.2 0.9 0.7 0.4 0.5 0.9 1.3l1.4 2.8h-1.5l-1.3-2.6q-0.5-1-1-1.4-0.5-0.3-1.3-0.3h-1.5v4.3h-1.4v-10.2h3.1q1.8 0 2.6 0.7 0.9 0.8 0.9 2.2 0 1-0.5 1.6-0.4 0.7-1.3 0.9zm-1.7-4.3h-1.7v3.7h1.7q1 0 1.5-0.5 0.5-0.5 0.5-1.4 0-0.9-0.5-1.3-0.5-0.5-1.5-0.5zm11.4 5.3l-1.9-5-1.9 5zm-6.6 3.8l3.9-10.2h1.6l3.9 10.2h-1.4l-1-2.6h-4.6l-0.9 2.6zm17-9.9v1.4q-0.8-0.4-1.5-0.6-0.7-0.2-1.4-0.2-1.1 0-1.7 0.5-0.6 0.4-0.6 1.2 0 0.7 0.4 1 0.4 0.4 1.5 0.6l0.9 0.2q1.5 0.3 2.2 1 0.8 0.7 0.8 2 0 1.5-1 2.2-1 0.8-2.9 0.8-0.8 0-1.6-0.2-0.8-0.1-1.7-0.4v-1.5q0.9 0.5 1.7 0.7 0.8 0.3 1.6 0.3 1.1 0 1.8-0.5 0.6-0.5 0.6-1.3 0-0.8-0.4-1.2-0.5-0.4-1.5-0.6l-0.9-0.2q-1.5-0.3-2.2-1-0.7-0.6-0.7-1.8 0-1.3 0.9-2.1 1-0.8 2.7-0.8 0.7 0 1.4 0.1 0.8 0.2 1.6 0.4z"/>
	<path id="Path 8" class="s2" d="m143 321.3l84.3-32.9 84.2 32.9z"/>
	<path id="Features" class="s1" aria-label="Features"  d="m202.9 315v-10.2h5.8v1.2h-4.4v3h4v1.1h-4v4.9zm13.7-4.1v0.6h-5.7q0 1.3 0.7 2 0.7 0.6 2 0.6 0.7 0 1.4-0.1 0.7-0.2 1.3-0.6v1.2q-0.6 0.3-1.3 0.4-0.8 0.2-1.5 0.2-1.8 0-2.9-1.1-1.1-1-1.1-2.9 0-1.8 1.1-2.9 1-1.1 2.7-1.1 1.5 0 2.4 1 0.9 0.9 0.9 2.7zm-5.7-0.4h4.5q0-1-0.6-1.7-0.6-0.6-1.5-0.6-1 0-1.7 0.6-0.6 0.6-0.7 1.7zm12.5 0.7h-1.2q-1.5 0-2.1 0.3-0.6 0.3-0.6 1.2 0 0.7 0.4 1.1 0.5 0.3 1.2 0.3 1.1 0 1.7-0.7 0.6-0.7 0.6-2zm1.3-0.5v4.4h-1.3v-1.2q-0.4 0.7-1 1.1-0.7 0.3-1.6 0.3-1.2 0-1.9-0.7-0.7-0.6-0.7-1.7 0-1.3 0.9-2 0.9-0.7 2.6-0.7h1.7v-0.1q0-0.8-0.5-1.3-0.6-0.5-1.6-0.5-0.7 0-1.3 0.2-0.6 0.1-1.2 0.4v-1.1q0.7-0.3 1.3-0.4 0.7-0.2 1.3-0.2 1.6 0 2.5 0.9 0.8 0.9 0.8 2.6zm2.6-5.4h1.2v2.1h2.6v1h-2.6v4.2q0 0.9 0.3 1.2 0.2 0.2 1 0.2h1.3v1.1h-1.3q-1.4 0-2-0.6-0.5-0.5-0.5-1.9v-4.2h-1v-1h1zm5.3 6.8v-4.6h1.3v4.6q0 1.1 0.4 1.6 0.4 0.6 1.3 0.6 1 0 1.6-0.7 0.6-0.6 0.6-1.8v-4.3h1.3v7.7h-1.3v-1.2q-0.5 0.7-1.1 1-0.6 0.4-1.4 0.4-1.3 0-2-0.9-0.7-0.8-0.7-2.4zm3.2-4.8zm10.3 0.1v1.3q-0.2-0.1-0.5-0.2-0.2-0.1-0.5-0.1-1.1 0-1.7 0.7-0.5 0.7-0.5 2v4.1h-1.3v-7.7h1.3v1.2q0.4-0.7 1-1 0.6-0.4 1.5-0.4 0.2 0 0.3 0 0.2 0 0.4 0.1zm7.5 3.6v0.6h-5.7q0 1.3 0.7 2 0.7 0.7 2 0.7 0.7 0 1.4-0.2 0.7-0.2 1.3-0.5v1.2q-0.6 0.3-1.3 0.4-0.8 0.2-1.5 0.2-1.8 0-2.9-1.1-1.1-1.1-1.1-2.9 0-1.9 1.1-3 1-1.1 2.7-1.1 1.5 0 2.4 1 0.9 1 0.9 2.7zm-5.7-0.4h4.5q0-1-0.6-1.6-0.6-0.6-1.5-0.6-1 0-1.7 0.6-0.6 0.6-0.7 1.6zm12.7-2.9v1.2q-0.5-0.3-1.1-0.4-0.6-0.1-1.2-0.1-0.9 0-1.4 0.3-0.5 0.2-0.5 0.8 0 0.5 0.3 0.7 0.4 0.3 1.4 0.5l0.4 0.1q1.4 0.3 1.9 0.8 0.6 0.5 0.6 1.4 0 1.1-0.9 1.7-0.8 0.7-2.3 0.7-0.6 0-1.3-0.2-0.6-0.1-1.4-0.3v-1.3q0.7 0.3 1.4 0.5 0.7 0.2 1.4 0.2 0.8 0 1.3-0.3 0.5-0.3 0.5-0.9 0-0.5-0.3-0.7-0.4-0.3-1.6-0.6l-0.4-0.1q-1.2-0.2-1.7-0.7-0.5-0.5-0.5-1.4 0-1.1 0.8-1.7 0.7-0.6 2.1-0.6 0.7 0 1.3 0.1 0.7 0.1 1.2 0.3z"/>
	<g id="Mask" clip-path="url(#cp1)">
		<path id="Path 11" class="s2" d="m314 87.1c6.9 0 12.4 6.2 12.4 13.9 0 7.7-5.5 13.9-12.4 13.9v-6.2c3.5 0 6.2-3.4 6.2-7.7 0-4.3-2.7-7.7-6.2-7.7z"/>
		<path id="Path 12" class="s2" d="m331.4 81.1c9.5 0 17.1 8.5 17.1 18.9 0 10.5-7.6 19-17.1 19v-8.5c4.7 0 8.6-4.7 8.6-10.5 0-5.7-3.9-10.4-8.6-10.4z"/>
	</g>
	<g id="Mask" clip-path="url(#cp2)">
		<path id="Path 15" class="s2" d="m352.2 73.9c12.3 0 22.2 11.1 22.2 24.8 0 13.7-9.9 24.9-22.2 24.9v-11.1c6.1 0 11.1-6.2 11.1-13.8 0-7.6-5-13.7-11.1-13.7z"/>
	</g>
	<path id="Path 17" class="s2" d="m162.8 143.5h182.8c-20.2 0-36.6 10.7-36.6 24 0 13.2 16.4 24 36.6 24h-182.8c-20.2 0-36.6-10.8-36.6-24 0-13.3 16.4-24 36.6-24z"/>
	<path id="sEMG windowing (80 ms at 1kHz)" class="s1" aria-label="sEMG windowing
(80 ms at 1kHz)"  d="m177.2 156.6v1.2q-0.5-0.3-1.1-0.5-0.6-0.1-1.2-0.1-0.9 0-1.4 0.3-0.5 0.3-0.5 0.9 0 0.4 0.4 0.7 0.3 0.2 1.3 0.4l0.4 0.1q1.4 0.3 1.9 0.8 0.6 0.6 0.6 1.5 0 1.1-0.8 1.7-0.9 0.6-2.4 0.6-0.6 0-1.2-0.1-0.7-0.1-1.4-0.4v-1.3q0.7 0.4 1.3 0.6 0.7 0.1 1.4 0.1 0.9 0 1.3-0.3 0.5-0.3 0.5-0.8 0-0.5-0.3-0.8-0.4-0.3-1.5-0.5l-0.5-0.1q-1.1-0.3-1.7-0.8-0.5-0.5-0.5-1.4 0-1.1 0.8-1.7 0.7-0.5 2.2-0.5 0.7 0 1.3 0.1 0.6 0.1 1.1 0.3zm2.5 7.4v-10.2h6.4v1.2h-5.1v3h4.9v1.1h-4.9v3.7h5.2v1.2zm8.9 0v-10.2h2l2.7 6.9 2.6-6.9h2v10.2h-1.3v-9l-2.7 7h-1.3l-2.7-7v9zm19.1-1.5v-2.7h-2.3v-1.1h3.6v4.3q-0.8 0.6-1.7 0.9-1 0.3-2.1 0.3-2.4 0-3.7-1.4-1.4-1.4-1.4-3.9 0-2.5 1.4-3.9 1.3-1.4 3.7-1.4 1 0 1.9 0.3 0.9 0.2 1.7 0.7v1.4q-0.8-0.6-1.7-0.9-0.8-0.4-1.8-0.4-1.8 0-2.8 1.1-0.9 1-0.9 3.1 0 2.1 0.9 3.1 1 1.1 2.8 1.1 0.8 0 1.3-0.2 0.6-0.1 1.1-0.4zm9.5 1.5l-2-7.7h1.3l1.6 6 1.5-6h1.5l1.6 6 1.5-6h1.3l-2 7.7h-1.5l-1.6-6.3-1.7 6.3zm10.2 0v-7.7h1.2v7.7zm0-9v-1.6h1.3v1.6zm10.3 4.4v4.6h-1.3v-4.6q0-1.1-0.4-1.6-0.4-0.5-1.3-0.5-1 0-1.6 0.6-0.6 0.7-0.6 1.8v4.3h-1.3v-7.7h1.3v1.2q0.5-0.7 1.1-1 0.6-0.3 1.4-0.3 1.3 0 2 0.8 0.7 0.8 0.7 2.4zm7.5-1.9v-4.1h1.3v10.6h-1.3v-1.1q-0.4 0.6-1 1-0.6 0.3-1.5 0.3-1.3 0-2.2-1.1-0.9-1.1-0.9-2.9 0-1.8 0.9-2.9 0.9-1.1 2.2-1.1 0.9 0 1.5 0.3 0.6 0.3 1 1zm-4.3 2.7q0 1.4 0.6 2.2 0.6 0.7 1.6 0.7 1 0 1.5-0.7 0.6-0.8 0.6-2.2 0-1.4-0.6-2.2-0.5-0.8-1.5-0.8-1 0-1.6 0.8-0.6 0.8-0.6 2.2zm11.1-3q-1 0-1.6 0.8-0.6 0.8-0.6 2.2 0 1.4 0.6 2.1 0.6 0.8 1.6 0.8 1 0 1.6-0.8 0.6-0.8 0.6-2.1 0-1.4-0.6-2.2-0.6-0.8-1.6-0.8zm0-1q1.7 0 2.6 1 0.9 1.1 0.9 3 0 1.9-0.9 2.9-0.9 1.1-2.6 1.1-1.6 0-2.6-1.1-0.9-1-0.9-2.9 0-1.9 0.9-3 1-1 2.6-1zm6.9 7.8l-2-7.7h1.2l1.6 6 1.6-6h1.5l1.5 6 1.6-6h1.3l-2 7.7h-1.5l-1.7-6.3-1.6 6.3zm10.2 0v-7.7h1.2v7.7zm0-9v-1.6h1.3v1.6zm10.2 4.4v4.6h-1.2v-4.6q0-1.1-0.5-1.6-0.4-0.5-1.2-0.5-1.1 0-1.6 0.6-0.6 0.7-0.6 1.8v4.3h-1.3v-7.7h1.3v1.2q0.4-0.7 1-1 0.6-0.3 1.4-0.3 1.4 0 2 0.8 0.7 0.8 0.7 2.4zm7.6 0.7q0-1.4-0.6-2.1-0.6-0.8-1.6-0.8-1 0-1.6 0.8-0.5 0.7-0.5 2.1 0 1.3 0.5 2.1 0.6 0.7 1.6 0.7 1 0 1.6-0.7 0.6-0.8 0.6-2.1zm1.2-3.8v6.7q0 2-0.8 3-0.9 0.9-2.7 0.9-0.7 0-1.3-0.1-0.5-0.1-1.1-0.3v-1.2q0.6 0.3 1.1 0.4 0.5 0.2 1.1 0.2 1.2 0 1.9-0.7 0.6-0.6 0.6-1.9v-0.6q-0.4 0.6-1 1-0.6 0.3-1.5 0.3-1.4 0-2.3-1.1-0.8-1-0.8-2.8 0-1.8 0.8-2.9 0.9-1 2.3-1 0.9 0 1.5 0.3 0.6 0.3 1 1v-1.2zm-107.8 14.1h1.1q-0.9 1.5-1.4 3.1-0.4 1.5-0.4 3.1 0 1.6 0.4 3.1 0.5 1.6 1.4 3.1h-1.1q-1-1.6-1.5-3.1-0.5-1.6-0.5-3.1 0-1.5 0.5-3.1 0.5-1.5 1.5-3.1zm6.7 5.8q-1 0-1.6 0.5-0.5 0.5-0.5 1.4 0 1 0.5 1.5 0.6 0.5 1.6 0.5 1 0 1.5-0.5 0.6-0.6 0.6-1.5 0-0.9-0.6-1.4-0.5-0.5-1.5-0.5zm-1.4-0.6q-0.9-0.3-1.4-0.9-0.5-0.6-0.5-1.4 0-1.3 0.9-2 0.9-0.7 2.4-0.7 1.5 0 2.4 0.7 0.8 0.7 0.8 2 0 0.8-0.5 1.4-0.5 0.6-1.3 0.9 1 0.2 1.5 0.9 0.6 0.7 0.6 1.6 0 1.5-0.9 2.3-0.9 0.8-2.6 0.8-1.7 0-2.6-0.8-0.9-0.8-0.9-2.3 0-0.9 0.5-1.6 0.6-0.7 1.6-0.9zm-0.5-2.2q0 0.8 0.5 1.2 0.5 0.5 1.4 0.5 0.9 0 1.4-0.5 0.5-0.4 0.5-1.2 0-0.8-0.5-1.3-0.5-0.4-1.4-0.4-0.9 0-1.4 0.4-0.5 0.5-0.5 1.3zm10.8-1.7q-1.1 0-1.6 1.1-0.6 1-0.6 3.1 0 2.1 0.6 3.2 0.5 1 1.6 1 1 0 1.6-1 0.5-1.1 0.5-3.2 0-2.1-0.5-3.1-0.6-1.1-1.6-1.1zm0-1.1q1.7 0 2.6 1.4 0.9 1.3 0.9 3.9 0 2.6-0.9 3.9-0.9 1.4-2.6 1.4-1.7 0-2.6-1.4-1-1.3-1-3.9 0-2.6 1-3.9 0.9-1.4 2.6-1.4zm16.2 4.2q0.4-0.8 1.1-1.2 0.6-0.4 1.5-0.4 1.2 0 1.9 0.8 0.6 0.8 0.6 2.4v4.6h-1.2v-4.6q0-1.1-0.4-1.6-0.4-0.5-1.2-0.5-1 0-1.6 0.6-0.5 0.7-0.5 1.8v4.3h-1.3v-4.6q0-1.1-0.4-1.6-0.4-0.5-1.2-0.5-0.9 0-1.5 0.6-0.6 0.7-0.6 1.8v4.3h-1.2v-7.7h1.2v1.2q0.4-0.7 1.1-1 0.6-0.3 1.4-0.3 0.8 0 1.4 0.4 0.6 0.4 0.9 1.2zm12.5-1.2v1.2q-0.5-0.3-1.1-0.5-0.5-0.1-1.2-0.1-0.9 0-1.4 0.3-0.4 0.3-0.4 0.9 0 0.4 0.3 0.7 0.3 0.2 1.3 0.4l0.5 0.1q1.3 0.3 1.9 0.8 0.5 0.6 0.5 1.5 0 1.1-0.8 1.7-0.8 0.6-2.3 0.6-0.6 0-1.3-0.1-0.7-0.1-1.4-0.4v-1.3q0.7 0.4 1.4 0.6 0.6 0.1 1.3 0.1 0.9 0 1.4-0.3 0.5-0.3 0.5-0.8 0-0.5-0.4-0.8-0.3-0.3-1.5-0.5l-0.4-0.1q-1.2-0.3-1.7-0.8-0.6-0.5-0.6-1.4 0-1.1 0.8-1.7 0.8-0.5 2.2-0.5 0.7 0 1.3 0.1 0.6 0.1 1.1 0.3zm11.8 3.6h-1.3q-1.5 0-2.1 0.3-0.6 0.3-0.6 1.2 0 0.7 0.5 1.1 0.4 0.3 1.2 0.3 1 0 1.7-0.7 0.6-0.7 0.6-2zm1.3-0.5v4.4h-1.3v-1.2q-0.4 0.7-1.1 1.1-0.6 0.3-1.5 0.3-1.2 0-1.9-0.7-0.7-0.6-0.7-1.7 0-1.3 0.8-2 0.9-0.7 2.6-0.7h1.8v-0.1q0-0.8-0.6-1.3-0.5-0.5-1.6-0.5-0.6 0-1.3 0.2-0.6 0.1-1.2 0.4v-1.1q0.7-0.3 1.4-0.4 0.6-0.2 1.3-0.2 1.6 0 2.4 0.9 0.9 0.9 0.9 2.6zm2.6-5.4h1.3v2.1h2.6v1h-2.6v4.2q0 0.9 0.2 1.2 0.3 0.2 1.1 0.2h1.3v1.1h-1.3q-1.5 0-2-0.6-0.6-0.5-0.6-1.9v-4.2h-0.9v-1h0.9zm10.6 9.9v-1.2h2.2v-7.8l-2.4 0.5v-1.3l2.4-0.5h1.4v9.1h2.2v1.2zm8.5 0v-10.7h1.2v6.3l3.8-3.3h1.6l-4.1 3.6 4.3 4.1h-1.7l-3.9-3.8v3.8zm8.2 0v-10.3h1.4v4.2h5v-4.2h1.4v10.3h-1.4v-4.9h-5v4.9zm10-6.7v-1h5.9v1.1l-4.7 5.5h4.7v1.1h-6.1v-1.2l4.7-5.5zm7.7-4h1.1q1 1.6 1.5 3.2 0.6 1.5 0.6 3.1 0 1.5-0.6 3-0.5 1.6-1.5 3.2h-1.1q0.9-1.6 1.4-3.1 0.4-1.6 0.4-3.1 0-1.6-0.4-3.2-0.5-1.5-1.4-3.1z"/>
	<path id="Path 19" class="s2" d="m174 217.9h107.3v46.3h-107.3z"/>
	<path id="Apply digital  filters" class="s1" aria-label="Apply digital 
filters"  d="m192.7 235.2l-1.9-5-1.9 5zm-6.5 3.8l3.9-10.2h1.5l3.9 10.2h-1.4l-1-2.6h-4.6l-0.9 2.6zm12-1.1v4h-1.2v-10.6h1.2v1.2q0.4-0.7 1-1 0.6-0.3 1.5-0.3 1.4 0 2.2 1.1 0.9 1.1 0.9 2.9 0 1.8-0.9 2.9-0.8 1.1-2.2 1.1-0.9 0-1.5-0.3-0.6-0.4-1-1zm4.3-2.7q0-1.4-0.6-2.2-0.5-0.8-1.5-0.8-1 0-1.6 0.8-0.6 0.8-0.6 2.2 0 1.4 0.6 2.2 0.6 0.7 1.6 0.7 1 0 1.5-0.7 0.6-0.8 0.6-2.2zm4.6 2.7v4h-1.3v-10.6h1.3v1.2q0.4-0.7 1-1 0.6-0.3 1.5-0.3 1.3 0 2.2 1.1 0.9 1.1 0.9 2.9 0 1.8-0.9 2.9-0.9 1.1-2.2 1.1-0.9 0-1.5-0.3-0.6-0.4-1-1zm4.3-2.7q0-1.4-0.6-2.2-0.6-0.8-1.6-0.8-1 0-1.5 0.8-0.6 0.8-0.6 2.2 0 1.4 0.6 2.2 0.5 0.7 1.5 0.7 1 0 1.6-0.7 0.6-0.8 0.6-2.2zm3.4 3.8v-10.6h1.2v10.6zm10.5-7.7l-3.4 8.4q-0.5 1.4-1 1.8-0.5 0.4-1.4 0.4h-1v-1h0.7q0.6 0 0.9-0.3 0.2-0.2 0.6-1.1l0.2-0.6-3.1-7.6h1.4l2.3 6 2.4-6zm11.3 1.2v-4.1h1.2v10.6h-1.2v-1.1q-0.4 0.6-1 1-0.6 0.3-1.5 0.3-1.4 0-2.3-1.1-0.8-1.1-0.8-2.9 0-1.8 0.8-2.9 0.9-1.1 2.3-1.1 0.9 0 1.5 0.3 0.6 0.3 1 1zm-4.3 2.7q0 1.4 0.5 2.2 0.6 0.7 1.6 0.7 1 0 1.6-0.7 0.6-0.8 0.6-2.2 0-1.4-0.6-2.2-0.6-0.8-1.6-0.8-1 0-1.6 0.8-0.5 0.8-0.5 2.2zm8.1 3.8v-7.7h1.3v7.7zm0-9v-1.6h1.2v1.6zm9 5.1q0-1.4-0.6-2.1-0.6-0.8-1.6-0.8-1 0-1.6 0.8-0.5 0.7-0.5 2.1 0 1.3 0.5 2.1 0.6 0.7 1.6 0.7 1 0 1.6-0.7 0.6-0.8 0.6-2.1zm1.2-3.8v6.7q0 2-0.9 3-0.8 0.9-2.6 0.9-0.7 0-1.3-0.1-0.6-0.1-1.1-0.3v-1.2q0.5 0.3 1.1 0.4 0.5 0.2 1.1 0.2 1.2 0 1.8-0.7 0.7-0.6 0.7-1.9v-0.6q-0.4 0.6-1 1-0.7 0.3-1.5 0.3-1.4 0-2.3-1.1-0.8-1-0.8-2.8 0-1.8 0.8-2.9 0.9-1 2.3-1 0.8 0 1.5 0.3 0.6 0.3 1 1v-1.2zm2.5 7.7v-7.7h1.3v7.7zm0-9v-1.6h1.3v1.6zm3.8-0.8h1.3v2.1h2.6v1h-2.6v4.2q0 0.9 0.2 1.2 0.3 0.2 1.1 0.2h1.3v1.1h-1.3q-1.5 0-2-0.5-0.6-0.6-0.6-2v-4.2h-0.9v-1h0.9zm10.3 6h-1.3q-1.5 0-2.1 0.4-0.6 0.3-0.6 1.2 0 0.6 0.5 1 0.4 0.4 1.2 0.4 1 0 1.6-0.7 0.7-0.8 0.7-2zm1.2-0.5v4.4h-1.2v-1.2q-0.5 0.7-1.1 1-0.6 0.4-1.6 0.4-1.2 0-1.8-0.7-0.7-0.7-0.7-1.8 0-1.3 0.8-1.9 0.9-0.7 2.6-0.7h1.8v-0.1q0-0.9-0.6-1.3-0.6-0.5-1.6-0.5-0.7 0-1.3 0.1-0.6 0.2-1.2 0.5v-1.2q0.7-0.2 1.4-0.3 0.6-0.2 1.2-0.2 1.7 0 2.5 0.9 0.8 0.8 0.8 2.6zm2.6 4.4v-10.7h1.3v10.7zm-60.2 9.3h4.8v7.7h-1.3v-6.7h-3.5v6.7h-1.2v-6.7h-1.2v-1h1.2v-0.5q0-1.3 0.6-1.9 0.6-0.6 1.8-0.6h1.3v1.1h-1.2q-0.7 0-1 0.2-0.3 0.3-0.3 1zm3.5-1.4v-1.5h1.3v1.5zm3.9 9.1v-10.7h1.2v10.7zm3.9-9.9h1.3v2.2h2.5v1h-2.5v4.2q0 0.9 0.2 1.2 0.3 0.2 1.1 0.2h1.2v1.1h-1.2q-1.5 0-2.1-0.6-0.5-0.5-0.5-1.9v-4.2h-0.9v-1h0.9zm12 5.7v0.6h-5.7q0 1.3 0.7 2 0.7 0.7 2 0.7 0.7 0 1.4-0.2 0.7-0.2 1.4-0.5v1.2q-0.7 0.2-1.4 0.4-0.7 0.1-1.5 0.1-1.8 0-2.9-1-1-1.1-1-2.9 0-1.9 1-3 1-1.1 2.7-1.1 1.5 0 2.4 1 0.9 1 0.9 2.7zm-5.7-0.4h4.5q0-1-0.6-1.6-0.6-0.6-1.5-0.6-1 0-1.7 0.6-0.6 0.6-0.7 1.6zm12.2-3.2v1.3q-0.2-0.2-0.4-0.2-0.3-0.1-0.6-0.1-1 0-1.6 0.7-0.6 0.7-0.6 2v4.1h-1.2v-7.7h1.2v1.2q0.4-0.7 1.1-1 0.6-0.4 1.5-0.4 0.1 0 0.3 0 0.1 0 0.3 0.1zm6.2 0.3v1.2q-0.5-0.3-1.1-0.4-0.5-0.1-1.1-0.1-1 0-1.5 0.3-0.4 0.2-0.4 0.8 0 0.4 0.3 0.7 0.3 0.2 1.4 0.5l0.4 0.1q1.3 0.3 1.9 0.8 0.6 0.5 0.6 1.4 0 1.1-0.9 1.7-0.8 0.6-2.3 0.6-0.6 0-1.3-0.1-0.7-0.1-1.4-0.3v-1.3q0.7 0.3 1.4 0.5 0.7 0.2 1.3 0.2 0.9 0 1.4-0.3 0.5-0.3 0.5-0.9 0-0.5-0.4-0.8-0.3-0.2-1.5-0.5l-0.4-0.1q-1.2-0.2-1.7-0.7-0.5-0.5-0.5-1.4 0-1.1 0.7-1.7 0.8-0.6 2.2-0.6 0.7 0 1.3 0.1 0.6 0.1 1.1 0.3z"/>
	<path id="Path 21" class="s2" d="m172.8 342.2h109v46.3h-109z"/>
	<path id="LDA  classification" class="s1" aria-label="LDA 
classification"  d="m215.4 363v-10.2h1.4v9h4.9v1.2zm10.9-9.1h-1.7v8h1.7q2.1 0 3.1-1 0.9-0.9 0.9-3 0-2.1-0.9-3-1-1-3.1-1zm-3.1 9.1v-10.2h2.9q2.9 0 4.3 1.2 1.4 1.3 1.4 3.9 0 2.6-1.4 3.9-1.4 1.2-4.3 1.2zm15.8-3.8l-1.9-5-1.9 5zm-6.5 3.8l3.9-10.2h1.5l3.9 10.2h-1.4l-0.9-2.6h-4.6l-1 2.6zm-37.6 9.6v1.2q-0.5-0.3-1.1-0.4-0.5-0.2-1-0.2-1.3 0-1.9 0.8-0.7 0.8-0.7 2.2 0 1.4 0.7 2.2 0.6 0.7 1.9 0.7 0.5 0 1-0.1 0.6-0.2 1.1-0.5v1.2q-0.5 0.3-1.1 0.4-0.5 0.1-1.2 0.1-1.7 0-2.7-1.1-1-1.1-1-2.9 0-1.9 1-3 1-1 2.8-1 0.6 0 1.1 0.1 0.6 0.1 1.1 0.3zm2.2 7.4v-10.6h1.3v10.6zm8.6-3.8h-1.3q-1.5 0-2.1 0.3-0.6 0.3-0.6 1.2 0 0.7 0.5 1.1 0.4 0.3 1.2 0.3 1 0 1.6-0.7 0.7-0.7 0.7-2zm1.2-0.5v4.4h-1.2v-1.2q-0.4 0.7-1.1 1.1-0.6 0.3-1.6 0.3-1.1 0-1.8-0.7-0.7-0.6-0.7-1.7 0-1.3 0.8-2 0.9-0.7 2.6-0.7h1.8v-0.1q0-0.8-0.6-1.3-0.6-0.5-1.6-0.5-0.6 0-1.3 0.2-0.6 0.1-1.2 0.4v-1.1q0.7-0.3 1.4-0.4 0.6-0.2 1.2-0.2 1.7 0 2.5 0.9 0.8 0.9 0.8 2.6zm7.5-3.1v1.2q-0.5-0.2-1.1-0.4-0.6-0.1-1.2-0.1-0.9 0-1.4 0.3-0.5 0.3-0.5 0.8 0 0.5 0.4 0.7 0.3 0.3 1.3 0.5l0.5 0.1q1.3 0.3 1.9 0.8 0.5 0.5 0.5 1.5 0 1-0.8 1.7-0.9 0.6-2.3 0.6-0.7 0-1.3-0.1-0.7-0.2-1.4-0.4v-1.3q0.7 0.4 1.3 0.5 0.7 0.2 1.4 0.2 0.9 0 1.4-0.3 0.4-0.3 0.4-0.8 0-0.5-0.3-0.8-0.4-0.3-1.5-0.5l-0.5-0.2q-1.1-0.2-1.7-0.7-0.5-0.5-0.5-1.4 0-1.1 0.8-1.7 0.8-0.6 2.2-0.6 0.7 0 1.3 0.1 0.6 0.1 1.1 0.3zm7.3 0v1.2q-0.5-0.2-1.1-0.4-0.6-0.1-1.2-0.1-0.9 0-1.4 0.3-0.5 0.3-0.5 0.8 0 0.5 0.4 0.7 0.3 0.3 1.3 0.5l0.5 0.1q1.3 0.3 1.9 0.8 0.5 0.5 0.5 1.5 0 1-0.8 1.7-0.9 0.6-2.3 0.6-0.7 0-1.3-0.1-0.7-0.2-1.4-0.4v-1.3q0.7 0.4 1.3 0.5 0.7 0.2 1.4 0.2 0.9 0 1.3-0.3 0.5-0.3 0.5-0.8 0-0.5-0.3-0.8-0.4-0.3-1.5-0.5l-0.5-0.2q-1.1-0.2-1.7-0.7-0.5-0.5-0.5-1.4 0-1.1 0.8-1.7 0.8-0.6 2.2-0.6 0.7 0 1.3 0.1 0.6 0.1 1.1 0.3zm2.4 7.5v-7.7h1.3v7.7zm0-9.1v-1.6h1.2v1.6zm5.4 1.4h4.7v7.7h-1.3v-6.7h-3.4v6.7h-1.3v-6.7h-1.2v-1h1.2v-0.5q0-1.3 0.6-1.9 0.6-0.6 1.8-0.6h1.3v1.1h-1.2q-0.7 0-0.9 0.3-0.3 0.2-0.3 0.9zm3.4-1.3v-1.6h1.3v1.6zm9.4 1.6v1.2q-0.5-0.3-1.1-0.4-0.5-0.2-1-0.2-1.3 0-1.9 0.8-0.7 0.8-0.7 2.2 0 1.4 0.7 2.2 0.6 0.7 1.9 0.7 0.5 0 1-0.1 0.6-0.2 1.1-0.5v1.2q-0.5 0.3-1.1 0.4-0.5 0.1-1.2 0.1-1.7 0-2.7-1.1-1-1.1-1-2.9 0-1.9 1-3 1-1 2.8-1 0.6 0 1.1 0.1 0.6 0.1 1.1 0.3zm6.9 3.6h-1.2q-1.5 0-2.1 0.3-0.6 0.4-0.6 1.2 0 0.7 0.4 1.1 0.5 0.3 1.2 0.3 1.1 0 1.7-0.7 0.6-0.7 0.6-2zm1.3-0.5v4.4h-1.3v-1.2q-0.4 0.7-1 1.1-0.7 0.3-1.6 0.3-1.2 0-1.9-0.7-0.7-0.6-0.7-1.7 0-1.3 0.9-2 0.9-0.6 2.6-0.6h1.7v-0.2q0-0.8-0.5-1.3-0.6-0.5-1.6-0.5-0.7 0-1.3 0.2-0.6 0.1-1.2 0.4v-1.1q0.7-0.3 1.3-0.4 0.7-0.2 1.3-0.2 1.7 0 2.5 0.9 0.8 0.9 0.8 2.6zm2.6-5.4h1.2v2.1h2.6v1h-2.6v4.2q0 0.9 0.3 1.2 0.2 0.2 1 0.2h1.3v1.1h-1.3q-1.4 0-2-0.6-0.5-0.5-0.5-1.9v-4.2h-1v-1h1zm5.5 9.9v-7.7h1.2v7.7zm0-9.1v-1.6h1.3v1.6zm6.8 2.3q-1 0-1.6 0.8-0.5 0.8-0.5 2.1 0 1.4 0.5 2.2 0.6 0.8 1.6 0.8 1.1 0 1.6-0.8 0.6-0.8 0.6-2.2 0-1.3-0.6-2.1-0.5-0.8-1.6-0.8zm0-1.1q1.7 0 2.6 1.1 1 1 1 2.9 0 1.9-1 3-0.9 1.1-2.6 1.1-1.6 0-2.5-1.1-1-1.1-1-3 0-1.9 1-2.9 0.9-1.1 2.5-1.1zm12 3.2v4.7h-1.2v-4.6q0-1.1-0.5-1.6-0.4-0.6-1.2-0.6-1.1 0-1.6 0.7-0.6 0.6-0.6 1.7v4.4h-1.3v-7.7h1.3v1.2q0.4-0.7 1-1 0.6-0.4 1.4-0.4 1.4 0 2 0.8 0.7 0.9 0.7 2.4z"/>
	<path id="Path 23" class="s2" d="m170.6 563h109.7v46.3h-109.7z"/>
	<path id="Send RH to RAS via BLE" class="s1" aria-label="Send RH to
RAS via BLE"  d="m195.2 572.1v1.4q-0.8-0.4-1.5-0.6-0.7-0.2-1.3-0.2-1.1 0-1.7 0.5-0.7 0.4-0.7 1.2 0 0.7 0.5 1 0.4 0.4 1.5 0.6l0.8 0.2q1.6 0.3 2.3 1 0.7 0.7 0.7 2 0 1.5-1 2.2-0.9 0.8-2.9 0.8-0.7 0-1.5-0.2-0.8-0.1-1.7-0.5v-1.4q0.8 0.5 1.6 0.7 0.9 0.3 1.6 0.3 1.2 0 1.9-0.5 0.6-0.5 0.6-1.3 0-0.8-0.5-1.2-0.4-0.4-1.5-0.6l-0.8-0.2q-1.6-0.3-2.2-1-0.7-0.6-0.7-1.8 0-1.3 0.9-2.1 1-0.8 2.6-0.8 0.8 0 1.5 0.1 0.8 0.2 1.5 0.4zm9.3 5.8v0.6h-5.8q0.1 1.3 0.8 2 0.7 0.6 1.9 0.6 0.8 0 1.4-0.1 0.7-0.2 1.4-0.6v1.2q-0.7 0.3-1.4 0.4-0.7 0.2-1.4 0.2-1.9 0-2.9-1.1-1.1-1-1.1-2.9 0-1.8 1-2.9 1-1.1 2.7-1.1 1.6 0 2.5 1 0.9 0.9 0.9 2.7zm-5.8-0.4h4.5q0-1-0.5-1.7-0.6-0.6-1.5-0.6-1.1 0-1.7 0.6-0.7 0.6-0.8 1.7zm14.2-0.1v4.6h-1.2v-4.6q0-1.1-0.5-1.6-0.4-0.5-1.2-0.5-1.1 0-1.6 0.6-0.6 0.7-0.6 1.8v4.3h-1.3v-7.7h1.3v1.2q0.4-0.7 1-1 0.6-0.3 1.4-0.3 1.4 0 2 0.8 0.7 0.8 0.7 2.4zm7.6-1.9v-4.1h1.2v10.6h-1.2v-1.1q-0.4 0.6-1 1-0.6 0.3-1.5 0.3-1.4 0-2.2-1.1-0.9-1.1-0.9-2.9 0-1.8 0.9-2.9 0.8-1.1 2.2-1.1 0.9 0 1.5 0.3 0.6 0.3 1 1zm-4.3 2.7q0 1.4 0.5 2.2 0.6 0.7 1.6 0.7 1 0 1.6-0.7 0.6-0.8 0.6-2.2 0-1.4-0.6-2.2-0.6-0.8-1.6-0.8-1 0-1.6 0.8-0.5 0.8-0.5 2.2zm17.5-1q0.4 0.2 0.8 0.7 0.4 0.4 0.9 1.3l1.4 2.8h-1.5l-1.3-2.6q-0.5-1-1-1.4-0.5-0.3-1.3-0.3h-1.5v4.3h-1.4v-10.2h3.1q1.8 0 2.6 0.7 0.9 0.8 0.9 2.2 0 1-0.4 1.6-0.5 0.7-1.3 0.9zm-1.8-4.3h-1.7v3.7h1.7q1 0 1.5-0.5 0.6-0.5 0.6-1.4 0-0.9-0.6-1.3-0.5-0.5-1.5-0.5zm6.6 9.1v-10.2h1.4v4.2h5v-4.2h1.4v10.2h-1.4v-4.9h-5v4.9zm14.9-9.8h1.3v2.1h2.6v1h-2.6v4.2q0 0.9 0.2 1.2 0.3 0.2 1.1 0.2h1.3v1.1h-1.3q-1.5 0-2-0.5-0.6-0.6-0.6-2v-4.2h-0.9v-1h0.9zm8.6 3.1q-1 0-1.6 0.8-0.6 0.8-0.6 2.2 0 1.3 0.6 2.1 0.5 0.8 1.6 0.8 1 0 1.6-0.8 0.5-0.8 0.5-2.1 0-1.4-0.5-2.2-0.6-0.8-1.6-0.8zm0-1.1q1.6 0 2.5 1.1 1 1.1 1 3 0 1.8-1 2.9-0.9 1.1-2.5 1.1-1.7 0-2.6-1.1-0.9-1.1-0.9-2.9 0-1.9 0.9-3 0.9-1.1 2.6-1.1zm-70.6 20.1q0.5 0.1 0.9 0.6 0.4 0.5 0.8 1.4l1.4 2.8h-1.4l-1.3-2.6q-0.6-1.1-1-1.4-0.5-0.3-1.3-0.3h-1.5v4.3h-1.4v-10.2h3.1q1.8 0 2.6 0.7 0.9 0.7 0.9 2.2 0 1-0.5 1.6-0.4 0.6-1.3 0.9zm-1.7-4.3h-1.7v3.6h1.7q1 0 1.5-0.4 0.5-0.5 0.5-1.4 0-0.9-0.5-1.3-0.5-0.5-1.5-0.5zm11.3 5.3l-1.8-5.1-1.9 5.1zm-6.6 3.8l3.9-10.2h1.6l3.9 10.2h-1.5l-0.9-2.6h-4.6l-0.9 2.6zm16.9-9.9v1.3q-0.7-0.3-1.4-0.5-0.7-0.2-1.4-0.2-1.1 0-1.7 0.4-0.6 0.5-0.6 1.3 0 0.7 0.4 1 0.4 0.4 1.5 0.6l0.8 0.1q1.6 0.3 2.3 1.1 0.8 0.7 0.8 2 0 1.4-1 2.2-1 0.8-2.9 0.8-0.8 0-1.6-0.2-0.8-0.2-1.7-0.5v-1.4q0.9 0.5 1.7 0.7 0.8 0.3 1.6 0.3 1.1 0 1.8-0.5 0.6-0.5 0.6-1.3 0-0.8-0.4-1.2-0.5-0.4-1.6-0.7l-0.8-0.1q-1.5-0.3-2.2-1-0.7-0.6-0.7-1.8 0-1.4 0.9-2.1 1-0.8 2.7-0.8 0.7 0 1.4 0.1 0.8 0.1 1.5 0.4zm9.2 9.9l-2.9-7.7h1.3l2.4 6.4 2.4-6.4h1.4l-2.9 7.7zm6.3 0v-7.7h1.3v7.7zm0-9.1v-1.6h1.2v1.6zm8.6 5.2h-1.2q-1.5 0-2.1 0.4-0.6 0.3-0.6 1.2 0 0.6 0.4 1 0.5 0.4 1.2 0.4 1.1 0 1.7-0.7 0.6-0.8 0.6-2zm1.3-0.5v4.4h-1.3v-1.2q-0.4 0.7-1 1-0.7 0.4-1.6 0.4-1.2 0-1.9-0.7-0.7-0.7-0.7-1.8 0-1.3 0.9-1.9 0.9-0.7 2.6-0.7h1.7v-0.1q0-0.9-0.5-1.3-0.6-0.5-1.6-0.5-0.7 0-1.3 0.1-0.6 0.2-1.2 0.5v-1.2q0.7-0.2 1.3-0.3 0.7-0.2 1.3-0.2 1.7 0 2.5 0.9 0.8 0.8 0.8 2.6zm10.7-0.5h-2.2v3.7h2.2q1.1 0 1.6-0.4 0.6-0.5 0.6-1.5 0-0.9-0.6-1.4-0.5-0.4-1.6-0.4zm-0.2-4.2h-2v3.1h2q1 0 1.5-0.4 0.5-0.4 0.5-1.2 0-0.8-0.5-1.1-0.5-0.4-1.5-0.4zm-3.4 9.1v-10.3h3.5q1.6 0 2.5 0.7 0.8 0.7 0.8 1.9 0 0.9-0.4 1.5-0.5 0.5-1.3 0.7 1 0.2 1.6 0.9 0.5 0.7 0.5 1.7 0 1.4-0.9 2.1-0.9 0.8-2.6 0.8zm9.6 0v-10.3h1.3v9.1h5v1.2zm7.8 0v-10.3h6.5v1.2h-5.1v3h4.9v1.2h-4.9v3.7h5.2v1.2z"/>
	<path id="Path 25" class="s3" d="m228.5 264.2l-0.1 14.3h-2l0.1-14.3zm4.9 12.4l-6.1 11.9-5.9-12zm-4.9-85.1v16.4h-2v-16.4zm5 14.4l-6 12-6-12zm-5 115.4l-0.2 10.9-2-0.1 0.2-10.8zm4.8 8.9l-6.3 11.9-5.7-12.1zm-5-207.7v10.8h-2v-10.8zm5 8.8l-6 12-6-12zm-5-76v10.8h-2v-10.8zm5 8.8l-6 12-6-12z"/>
	<path id="Path 26" class="s2" d="m194.2 408h82.8c-9.2 0-16.6 12.7-16.6 28.5 0 15.8 7.4 28.6 16.6 28.6h-82.8c-9.2 0-16.6-12.8-16.6-28.6 0-15.8 7.4-28.5 16.6-28.5z"/>
	<path id="Class  array" class="s1" aria-label="Class 
array"  d="m217 422.6v1.4q-0.7-0.6-1.5-0.9-0.8-0.4-1.6-0.4-1.8 0-2.7 1.1-1 1.1-1 3.1 0 2 1 3.1 0.9 1.1 2.7 1.1 0.8 0 1.6-0.4 0.8-0.3 1.5-0.9v1.4q-0.7 0.5-1.5 0.8-0.8 0.2-1.7 0.2-2.3 0-3.7-1.4-1.3-1.4-1.3-3.9 0-2.5 1.3-3.9 1.4-1.4 3.7-1.4 0.9 0 1.7 0.3 0.8 0.2 1.5 0.7zm2.1 9.4v-10.6h1.3v10.6zm8.6-3.8h-1.3q-1.5 0-2.1 0.3-0.6 0.3-0.6 1.2 0 0.7 0.5 1.1 0.4 0.3 1.2 0.3 1 0 1.6-0.7 0.7-0.7 0.7-2zm1.2-0.5v4.4h-1.2v-1.2q-0.5 0.7-1.1 1.1-0.6 0.3-1.6 0.3-1.1 0-1.8-0.7-0.7-0.6-0.7-1.7 0-1.3 0.8-2 0.9-0.7 2.6-0.7h1.8v-0.1q0-0.8-0.6-1.3-0.6-0.5-1.6-0.5-0.7 0-1.3 0.2-0.6 0.1-1.2 0.4v-1.1q0.7-0.3 1.4-0.4 0.6-0.2 1.2-0.2 1.7 0 2.5 0.9 0.8 0.9 0.8 2.6zm7.5-3.1v1.2q-0.5-0.2-1.1-0.4-0.6-0.1-1.2-0.1-0.9 0-1.4 0.3-0.5 0.3-0.5 0.8 0 0.5 0.4 0.7 0.3 0.3 1.3 0.5l0.4 0.1q1.4 0.3 1.9 0.8 0.6 0.5 0.6 1.5 0 1-0.8 1.7-0.9 0.6-2.4 0.6-0.6 0-1.2-0.1-0.7-0.2-1.4-0.4v-1.3q0.7 0.4 1.3 0.5 0.7 0.2 1.4 0.2 0.9 0 1.3-0.3 0.5-0.3 0.5-0.8 0-0.5-0.3-0.8-0.4-0.3-1.5-0.5l-0.5-0.2q-1.1-0.2-1.7-0.7-0.5-0.5-0.5-1.4 0-1.1 0.8-1.7 0.7-0.6 2.2-0.6 0.7 0 1.3 0.1 0.6 0.1 1.1 0.3zm7.3 0v1.2q-0.5-0.2-1.1-0.4-0.6-0.1-1.2-0.1-0.9 0-1.4 0.3-0.5 0.3-0.5 0.8 0 0.5 0.4 0.7 0.3 0.3 1.3 0.5l0.4 0.1q1.4 0.3 1.9 0.8 0.6 0.5 0.6 1.5 0 1-0.8 1.7-0.9 0.6-2.4 0.6-0.6 0-1.2-0.1-0.7-0.2-1.4-0.4v-1.3q0.7 0.4 1.3 0.5 0.7 0.2 1.4 0.2 0.9 0 1.3-0.3 0.5-0.3 0.5-0.8 0-0.5-0.3-0.8-0.4-0.3-1.5-0.5l-0.5-0.2q-1.2-0.2-1.7-0.7-0.5-0.5-0.5-1.4 0-1.1 0.8-1.7 0.7-0.6 2.1-0.6 0.7 0 1.4 0.1 0.6 0.1 1.1 0.3zm-29.7 20.6h-1.2q-1.6 0-2.2 0.4-0.5 0.3-0.5 1.2 0 0.6 0.4 1 0.4 0.4 1.2 0.4 1 0 1.7-0.7 0.6-0.8 0.6-2zm1.3-0.5v4.4h-1.3v-1.2q-0.4 0.7-1.1 1-0.6 0.4-1.5 0.4-1.2 0-1.9-0.7-0.7-0.7-0.7-1.8 0-1.3 0.9-1.9 0.8-0.7 2.5-0.7h1.8v-0.1q0-0.9-0.6-1.3-0.5-0.5-1.6-0.5-0.6 0-1.2 0.1-0.7 0.2-1.2 0.5v-1.1q0.6-0.3 1.3-0.4 0.6-0.2 1.3-0.2 1.6 0 2.4 0.9 0.9 0.8 0.9 2.6zm7-3.4v1.3q-0.2-0.1-0.5-0.2-0.2-0.1-0.5-0.1-1.1 0-1.7 0.7-0.5 0.7-0.5 2v4.1h-1.3v-7.7h1.3v1.2q0.4-0.7 1-1 0.6-0.4 1.6-0.4 0.1 0 0.2 0 0.2 0.1 0.4 0.1zm5.5 0v1.3q-0.2-0.1-0.5-0.2-0.2-0.1-0.5-0.1-1.1 0-1.6 0.7-0.6 0.7-0.6 2v4.1h-1.3v-7.7h1.3v1.2q0.4-0.7 1-1 0.7-0.4 1.6-0.4 0.1 0 0.2 0 0.2 0.1 0.4 0.1zm6.1 3.9h-1.3q-1.5 0-2.1 0.4-0.6 0.3-0.6 1.1 0 0.7 0.4 1.1 0.5 0.4 1.2 0.4 1.1 0 1.7-0.7 0.7-0.8 0.7-2zm1.2-0.5v4.3h-1.2v-1.1q-0.5 0.7-1.1 1-0.7 0.3-1.6 0.3-1.2 0-1.9-0.6-0.7-0.7-0.7-1.8 0-1.3 0.9-1.9 0.9-0.7 2.6-0.7h1.8v-0.1q0-0.9-0.6-1.4-0.6-0.4-1.6-0.4-0.7 0-1.3 0.1-0.6 0.2-1.2 0.5v-1.2q0.7-0.2 1.3-0.4 0.7-0.1 1.3-0.1 1.7 0 2.5 0.9 0.8 0.8 0.8 2.6zm9.1-3.3l-3.3 8.4q-0.5 1.3-1.1 1.7-0.5 0.5-1.3 0.5h-1v-1.1h0.7q0.5 0 0.8-0.2 0.3-0.3 0.7-1.2l0.2-0.6-3.1-7.5h1.3l2.4 6 2.4-6z"/>
	<path id="Path 28" fill-rule="evenodd" class="s3" d="m228.3 388.5v6.4h5l-6 12-6-12h5v-6.4zm-50.6 49h-11.9v5l-12-6 12-6v5h11.9zm-88.5-35.6v-235.4h25.1v2h-23.1v233.4zm25.1-235.4v-5l12 6-12 6v-5h2v-2zm-23.1 2v-1l-1 1zm0 302.8v5.6h135.1v7.6h5l-6 12-6-12h5v-5.6h-135.1v-7.6zm134.1 7.6l-1-1v1zm-135.1-2l1 1v-1z"/>
	<path id="Path 29" class="s2" d="m46.6 563h110.8v46.3h-110.8z"/>
	<path id="Send PP to RAS via BLE" class="s1" aria-label="Send PP to
RAS via BLE"  d="m72.6 572.1v1.4q-0.8-0.4-1.5-0.6-0.7-0.2-1.3-0.2-1.1 0-1.7 0.5-0.7 0.4-0.7 1.2 0 0.7 0.4 1 0.5 0.4 1.6 0.6l0.8 0.2q1.6 0.3 2.3 1 0.7 0.7 0.7 2 0 1.5-1 2.2-0.9 0.8-2.9 0.8-0.7 0-1.5-0.2-0.8-0.1-1.7-0.5v-1.4q0.8 0.5 1.6 0.7 0.9 0.3 1.6 0.3 1.2 0 1.9-0.5 0.6-0.5 0.6-1.3 0-0.8-0.5-1.2-0.4-0.4-1.5-0.6l-0.8-0.2q-1.6-0.3-2.3-1-0.6-0.6-0.6-1.8 0-1.3 0.9-2.1 1-0.8 2.6-0.8 0.8 0 1.5 0.1 0.7 0.2 1.5 0.4zm9.3 5.8v0.6h-5.8q0.1 1.3 0.8 2 0.7 0.6 1.9 0.6 0.8 0 1.4-0.1 0.7-0.2 1.4-0.6v1.2q-0.7 0.3-1.4 0.4-0.7 0.2-1.4 0.2-1.9 0-2.9-1.1-1.1-1-1.1-2.9 0-1.8 1-2.9 1-1.1 2.7-1.1 1.6 0 2.5 1 0.9 0.9 0.9 2.7zm-5.8-0.4h4.5q0-1-0.6-1.7-0.5-0.6-1.4-0.6-1.1 0-1.7 0.6-0.7 0.6-0.8 1.7zm14.2-0.1v4.6h-1.2v-4.6q0-1.1-0.5-1.6-0.4-0.5-1.2-0.5-1.1 0-1.6 0.6-0.6 0.7-0.6 1.8v4.3h-1.3v-7.7h1.3v1.2q0.4-0.7 1-1 0.6-0.3 1.4-0.3 1.4 0 2 0.8 0.7 0.8 0.7 2.4zm7.6-1.9v-4.1h1.2v10.6h-1.2v-1.1q-0.4 0.6-1 1-0.6 0.3-1.5 0.3-1.4 0-2.3-1.1-0.8-1.1-0.8-2.9 0-1.8 0.8-2.9 0.9-1.1 2.3-1.1 0.9 0 1.5 0.3 0.6 0.3 1 1zm-4.3 2.7q0 1.4 0.5 2.2 0.6 0.7 1.6 0.7 1 0 1.6-0.7 0.6-0.8 0.6-2.2 0-1.4-0.6-2.2-0.6-0.8-1.6-0.8-1 0-1.6 0.8-0.5 0.8-0.5 2.2zm15.6-5.3h-1.8v3.9h1.8q0.9 0 1.5-0.5 0.5-0.5 0.5-1.5 0-0.9-0.5-1.4-0.6-0.5-1.5-0.5zm-3.2 9.1v-10.2h3.2q1.7 0 2.6 0.8 0.8 0.7 0.8 2.2 0 1.6-0.8 2.3-0.9 0.8-2.6 0.8h-1.8v4.1zm11.5-9.1h-1.7v3.9h1.7q1 0 1.5-0.5 0.5-0.5 0.5-1.5 0-0.9-0.5-1.4-0.5-0.5-1.5-0.5zm-3.1 9.1v-10.2h3.1q1.7 0 2.6 0.8 0.9 0.7 0.9 2.2 0 1.6-0.9 2.3-0.9 0.8-2.6 0.8h-1.7v4.1zm12.6-9.8h1.3v2.1h2.6v1h-2.6v4.2q0 0.9 0.2 1.2 0.3 0.2 1.1 0.2h1.3v1.1h-1.3q-1.5 0-2-0.5-0.6-0.6-0.6-2v-4.2h-0.9v-1h0.9zm8.6 3.1q-1.1 0-1.6 0.8-0.6 0.8-0.6 2.2 0 1.3 0.5 2.1 0.6 0.8 1.7 0.8 1 0 1.5-0.8 0.6-0.8 0.6-2.1 0-1.4-0.6-2.2-0.5-0.8-1.5-0.8zm0-1.1q1.6 0 2.5 1.1 1 1.1 1 3 0 1.8-1 2.9-0.9 1.1-2.5 1.1-1.7 0-2.6-1.1-1-1.1-1-2.9 0-1.9 1-3 0.9-1.1 2.6-1.1zm-68.7 20.1q0.5 0.1 0.9 0.6 0.4 0.5 0.8 1.4l1.4 2.8h-1.5l-1.3-2.6q-0.5-1.1-1-1.4-0.4-0.3-1.2-0.3h-1.5v4.3h-1.4v-10.2h3.1q1.7 0 2.6 0.7 0.9 0.7 0.9 2.2 0 1-0.5 1.6-0.4 0.6-1.3 0.9zm-1.7-4.3h-1.7v3.6h1.7q1 0 1.5-0.4 0.5-0.5 0.5-1.4 0-0.9-0.5-1.3-0.5-0.5-1.5-0.5zm11.3 5.3l-1.9-5.1-1.8 5.1zm-6.6 3.8l3.9-10.2h1.6l3.9 10.2h-1.5l-0.9-2.6h-4.6l-0.9 2.6zm16.9-9.9v1.3q-0.8-0.3-1.5-0.5-0.7-0.2-1.3-0.2-1.1 0-1.7 0.4-0.7 0.5-0.7 1.3 0 0.7 0.5 1 0.4 0.4 1.5 0.6l0.8 0.1q1.6 0.3 2.3 1.1 0.7 0.7 0.7 2 0 1.4-1 2.2-0.9 0.8-2.9 0.8-0.7 0-1.5-0.2-0.8-0.2-1.7-0.5v-1.4q0.8 0.5 1.6 0.7 0.9 0.3 1.6 0.3 1.2 0 1.9-0.5 0.6-0.5 0.6-1.3 0-0.8-0.5-1.2-0.4-0.4-1.5-0.7l-0.8-0.1q-1.6-0.3-2.2-1-0.7-0.6-0.7-1.8 0-1.4 0.9-2.1 1-0.8 2.6-0.8 0.8 0 1.5 0.1 0.8 0.1 1.5 0.4zm9.2 9.9l-2.9-7.7h1.3l2.4 6.4 2.4-6.4h1.3l-2.8 7.7zm6.3 0v-7.7h1.2v7.7zm0-9.1v-1.6h1.3v1.6zm8.6 5.2h-1.2q-1.6 0-2.1 0.4-0.6 0.3-0.6 1.2 0 0.6 0.4 1 0.5 0.4 1.2 0.4 1.1 0 1.7-0.7 0.6-0.8 0.6-2zm1.3-0.5v4.4h-1.3v-1.2q-0.4 0.7-1 1-0.7 0.4-1.6 0.4-1.2 0-1.9-0.7-0.7-0.7-0.7-1.8 0-1.3 0.9-1.9 0.8-0.7 2.6-0.7h1.7v-0.1q0-0.9-0.6-1.3-0.5-0.5-1.5-0.5-0.7 0-1.3 0.1-0.7 0.2-1.2 0.5v-1.2q0.7-0.2 1.3-0.4 0.7-0.1 1.3-0.1 1.6 0 2.5 0.9 0.8 0.8 0.8 2.6zm10.7-0.5h-2.2v3.7h2.2q1.1 0 1.6-0.4 0.6-0.5 0.6-1.5 0-0.9-0.6-1.4-0.5-0.4-1.6-0.4zm-0.2-4.2h-2v3.1h2q1 0 1.5-0.4 0.5-0.4 0.5-1.2 0-0.8-0.5-1.1-0.5-0.4-1.5-0.4zm-3.4 9.1v-10.3h3.5q1.6 0 2.4 0.7 0.9 0.7 0.9 1.9 0 0.9-0.4 1.5-0.5 0.5-1.3 0.7 1 0.2 1.5 0.9 0.6 0.7 0.6 1.7 0 1.4-0.9 2.1-0.9 0.8-2.7 0.8zm9.6 0v-10.3h1.4v9.1h5v1.2zm7.8 0v-10.3h6.4v1.2h-5v3h4.8v1.2h-4.8v3.7h5.2v1.2z"/>
	<path id="Path 31" class="s2" d="m293.3 563h110.9v46.3h-110.9z"/>
	<path id="Send CG to RAS via BLE" class="s1" aria-label="Send CG to
RAS via BLE"  d="m317 572.1v1.4q-0.7-0.4-1.4-0.6-0.7-0.2-1.4-0.2-1.1 0-1.7 0.5-0.6 0.4-0.6 1.2 0 0.7 0.4 1 0.4 0.4 1.5 0.6l0.8 0.2q1.6 0.3 2.3 1 0.8 0.7 0.8 2 0 1.5-1 2.2-1 0.8-3 0.8-0.7 0-1.5-0.2-0.8-0.1-1.7-0.5v-1.4q0.9 0.5 1.7 0.7 0.8 0.3 1.5 0.3 1.2 0 1.9-0.5 0.6-0.5 0.6-1.3 0-0.8-0.4-1.2-0.5-0.4-1.6-0.6l-0.8-0.2q-1.5-0.3-2.2-1-0.7-0.6-0.7-1.8 0-1.3 0.9-2.1 1-0.8 2.7-0.8 0.7 0 1.4 0.1 0.8 0.2 1.5 0.4zm9.3 5.8v0.6h-5.8q0.1 1.3 0.8 2 0.7 0.6 2 0.6 0.7 0 1.4-0.1 0.6-0.2 1.3-0.6v1.2q-0.7 0.3-1.4 0.4-0.7 0.2-1.4 0.2-1.8 0-2.9-1.1-1.1-1-1.1-2.9 0-1.8 1-2.9 1-1.1 2.8-1.1 1.5 0 2.4 1 0.9 0.9 0.9 2.7zm-5.7-0.4h4.4q0-1-0.5-1.7-0.6-0.6-1.5-0.6-1.1 0-1.7 0.6-0.6 0.6-0.7 1.7zm14.1-0.1v4.6h-1.2v-4.6q0-1.1-0.4-1.6-0.5-0.5-1.3-0.5-1 0-1.6 0.6-0.6 0.7-0.6 1.8v4.3h-1.3v-7.7h1.3v1.2q0.4-0.7 1-1 0.7-0.3 1.5-0.3 1.3 0 2 0.8 0.6 0.8 0.6 2.4zm7.6-1.9v-4.1h1.2v10.6h-1.2v-1.1q-0.4 0.6-1 1-0.6 0.3-1.5 0.3-1.4 0-2.2-1.1-0.9-1.1-0.9-2.9 0-1.8 0.9-2.9 0.8-1.1 2.2-1.1 0.9 0 1.5 0.3 0.6 0.3 1 1zm-4.3 2.7q0 1.4 0.6 2.2 0.5 0.7 1.5 0.7 1 0 1.6-0.7 0.6-0.8 0.6-2.2 0-1.4-0.6-2.2-0.6-0.8-1.6-0.8-1 0-1.5 0.8-0.6 0.8-0.6 2.2zm20.3-5.6v1.4q-0.7-0.6-1.5-0.9-0.8-0.4-1.7-0.4-1.7 0-2.7 1.1-0.9 1.1-0.9 3.1 0 2 0.9 3.1 1 1.1 2.7 1.1 0.9 0 1.7-0.4 0.8-0.3 1.5-0.9v1.4q-0.7 0.5-1.6 0.8-0.8 0.2-1.7 0.2-2.3 0-3.6-1.4-1.4-1.4-1.4-3.9 0-2.5 1.4-3.9 1.3-1.4 3.6-1.4 0.9 0 1.8 0.3 0.8 0.2 1.5 0.7zm9.1 7.9v-2.7h-2.3v-1.1h3.6v4.3q-0.8 0.6-1.7 0.9-1 0.3-2.1 0.3-2.4 0-3.7-1.4-1.4-1.4-1.4-3.9 0-2.5 1.4-3.9 1.3-1.4 3.7-1.4 1 0 1.9 0.3 0.9 0.2 1.7 0.7v1.4q-0.8-0.6-1.7-0.9-0.8-0.4-1.8-0.4-1.8 0-2.8 1.1-0.9 1-0.9 3.1 0 2.1 0.9 3.1 1 1.1 2.8 1.1 0.8 0 1.3-0.2 0.6-0.1 1.1-0.4zm8.2-8.3h1.3v2.1h2.6v1h-2.6v4.2q0 0.9 0.3 1.2 0.2 0.2 1 0.2h1.3v1.1h-1.3q-1.5 0-2-0.5-0.6-0.6-0.6-2v-4.2h-0.9v-1h0.9zm8.6 3.1q-1 0-1.6 0.8-0.6 0.8-0.6 2.2 0 1.3 0.6 2.1 0.5 0.8 1.6 0.8 1 0 1.6-0.8 0.5-0.8 0.5-2.1 0-1.4-0.5-2.2-0.6-0.8-1.6-0.8zm0-1.1q1.6 0 2.5 1.1 1 1.1 1 3 0 1.8-1 2.9-0.9 1.1-2.5 1.1-1.7 0-2.6-1.1-0.9-1.1-0.9-2.9 0-1.9 0.9-3 0.9-1.1 2.6-1.1zm-70.8 20.1q0.5 0.1 0.9 0.6 0.4 0.5 0.9 1.4l1.4 2.8h-1.5l-1.3-2.6q-0.5-1.1-1-1.4-0.5-0.3-1.3-0.3h-1.5v4.3h-1.4v-10.2h3.1q1.8 0 2.6 0.7 0.9 0.7 0.9 2.2 0 1-0.5 1.6-0.4 0.6-1.3 0.9zm-1.7-4.3h-1.7v3.6h1.7q1 0 1.5-0.4 0.5-0.5 0.5-1.4 0-0.9-0.5-1.3-0.5-0.5-1.5-0.5zm11.4 5.3l-1.9-5.1-1.9 5.1zm-6.5 3.8l3.8-10.2h1.6l3.9 10.2h-1.4l-1-2.6h-4.6l-0.9 2.6zm17-9.9v1.3q-0.8-0.3-1.5-0.5-0.7-0.2-1.4-0.2-1.1 0-1.7 0.4-0.6 0.5-0.6 1.3 0 0.7 0.4 1 0.4 0.4 1.5 0.6l0.9 0.1q1.5 0.3 2.2 1.1 0.8 0.7 0.8 2 0 1.4-1 2.2-1 0.8-2.9 0.8-0.8 0-1.6-0.2-0.8-0.2-1.7-0.5v-1.4q0.9 0.5 1.7 0.7 0.8 0.3 1.6 0.3 1.2 0 1.8-0.5 0.6-0.5 0.6-1.3 0-0.8-0.4-1.2-0.5-0.4-1.5-0.7l-0.9-0.1q-1.5-0.3-2.2-1-0.7-0.6-0.7-1.8 0-1.4 0.9-2.1 1-0.8 2.7-0.8 0.7 0 1.4 0.1 0.8 0.1 1.6 0.4zm9.1 9.9l-2.9-7.7h1.4l2.4 6.4 2.3-6.4h1.4l-2.9 7.7zm6.3 0v-7.7h1.3v7.7zm0-9.1v-1.6h1.2v1.6zm8.7 5.2h-1.3q-1.5 0-2.1 0.4-0.6 0.3-0.6 1.2 0 0.6 0.4 1 0.5 0.4 1.3 0.4 1 0 1.6-0.7 0.7-0.8 0.7-2zm1.2-0.5v4.4h-1.2v-1.2q-0.5 0.7-1.1 1-0.7 0.4-1.6 0.4-1.2 0-1.9-0.7-0.6-0.7-0.6-1.8 0-1.3 0.8-1.9 0.9-0.7 2.6-0.7h1.8v-0.1q0-0.9-0.6-1.3-0.6-0.5-1.6-0.5-0.7 0-1.3 0.1-0.6 0.2-1.2 0.5v-1.2q0.7-0.2 1.4-0.4 0.6-0.1 1.2-0.1 1.7 0 2.5 0.9 0.8 0.8 0.8 2.6zm10.7-0.5h-2.2v3.7h2.2q1.1 0 1.7-0.4 0.5-0.5 0.5-1.5 0-0.9-0.5-1.4-0.6-0.4-1.7-0.4zm-0.2-4.2h-2v3.1h2q1.1 0 1.5-0.4 0.5-0.4 0.5-1.2 0-0.8-0.5-1.1-0.4-0.4-1.5-0.4zm-3.4 9.1v-10.3h3.5q1.6 0 2.5 0.7 0.8 0.7 0.8 1.9 0 0.9-0.4 1.5-0.4 0.5-1.3 0.7 1 0.2 1.6 0.9 0.6 0.7 0.6 1.7 0 1.4-1 2.1-0.9 0.8-2.6 0.8zm9.6 0v-10.3h1.4v9.1h4.9v1.2zm7.8 0v-10.3h6.5v1.2h-5.1v3h4.9v1.2h-4.9v3.7h5.2v1.2z"/>
	<path id="Path 33" class="s3" d="m295.7 518.6h54.1v34.4h-2v-33.4l1 1h-53.1zm59.1 32.4l-6 12-6-12zm-199.7-30.4h-53.1l1-1v33.4h-2v-34.4h54.1zm-47.1 30.4l-6 12-6-12z"/>
	<path id="Path 34" class="s2" d="m382.3 88.8c0-2.9 2.4-5.3 5.4-5.3h37.3c2.9 0 5.3 2.4 5.3 5.3v21.5c0 2.9-2.4 5.3-5.3 5.3h-37.3c-3 0-5.4-2.4-5.4-5.3z"/>
	<path id="RAS" class="s1" aria-label="RAS"  d="m400.3 100.2q0.5 0.2 0.9 0.7 0.4 0.4 0.8 1.3l1.4 2.8h-1.4l-1.3-2.6q-0.6-1-1-1.4-0.5-0.3-1.3-0.3h-1.5v4.3h-1.4v-10.2h3.1q1.8 0 2.6 0.7 0.9 0.8 0.9 2.2 0 1-0.5 1.6-0.4 0.7-1.3 0.9zm-1.7-4.3h-1.7v3.7h1.7q1 0 1.5-0.5 0.5-0.5 0.5-1.4 0-0.9-0.5-1.3-0.5-0.5-1.5-0.5zm11.3 5.3l-1.8-5-1.9 5zm-6.6 3.8l3.9-10.2h1.6l3.9 10.2h-1.4l-1-2.6h-4.6l-0.9 2.6zm17-9.9v1.4q-0.8-0.4-1.5-0.6-0.7-0.2-1.4-0.2-1.1 0-1.7 0.5-0.6 0.4-0.6 1.2 0 0.7 0.4 1 0.4 0.4 1.5 0.6l0.9 0.2q1.5 0.3 2.2 1 0.8 0.7 0.8 2 0 1.5-1 2.2-1 0.8-2.9 0.8-0.8 0-1.6-0.2-0.8-0.1-1.7-0.5v-1.4q0.9 0.5 1.7 0.7 0.8 0.3 1.6 0.3 1.1 0 1.8-0.5 0.6-0.5 0.6-1.3 0-0.8-0.4-1.2-0.5-0.4-1.6-0.6l-0.8-0.2q-1.5-0.3-2.2-1-0.7-0.6-0.7-1.8 0-1.3 0.9-2.1 1-0.8 2.7-0.8 0.7 0 1.4 0.1 0.8 0.2 1.6 0.4z"/>
	<path id="PP CG" class="s1" aria-label="PP
CG"  d="m137.8 505.2h-1.4v3.3h1.4q0.9 0 1.3-0.4 0.5-0.4 0.5-1.2 0-0.8-0.5-1.2-0.4-0.5-1.3-0.5zm-2.6 7.8v-8.7h2.6q1.5 0 2.3 0.6 0.7 0.7 0.7 2 0 1.3-0.7 1.9-0.8 0.7-2.3 0.7h-1.4v3.5zm9.9-7.8h-1.5v3.3h1.5q0.8 0 1.2-0.4 0.5-0.4 0.5-1.2 0-0.8-0.5-1.2-0.4-0.5-1.2-0.5zm-2.7 7.8v-8.7h2.7q1.4 0 2.2 0.6 0.7 0.7 0.7 2 0 1.3-0.7 1.9-0.8 0.7-2.2 0.7h-1.5v3.5zm163.6-6.1v1.3q-0.6-0.6-1.3-0.9-0.6-0.2-1.4-0.2-1.5 0-2.3 0.9-0.8 0.9-0.8 2.6 0 1.8 0.8 2.7 0.8 0.9 2.3 0.9 0.8 0 1.4-0.3 0.7-0.3 1.3-0.8v1.2q-0.6 0.4-1.3 0.7-0.7 0.2-1.5 0.2-2 0-3.1-1.2-1.1-1.3-1.1-3.4 0-2.1 1.1-3.3 1.1-1.2 3.1-1.2 0.8 0 1.5 0.2 0.7 0.2 1.3 0.6zm7.8 6.9v-2.4h-1.9v-1h3.1v3.8q-0.7 0.5-1.5 0.7-0.9 0.3-1.8 0.3-2 0-3.2-1.2-1.2-1.2-1.2-3.4 0-2.1 1.2-3.3 1.2-1.2 3.2-1.2 0.9 0 1.6 0.2 0.8 0.2 1.5 0.6v1.3q-0.7-0.6-1.4-0.9-0.8-0.2-1.6-0.2-1.6 0-2.4 0.9-0.8 0.9-0.8 2.6 0 1.8 0.8 2.7 0.8 0.9 2.4 0.9 0.6 0 1.1-0.1 0.5-0.1 0.9-0.3z"/>
	<path id="RH" class="s1" aria-label="RH"  d="m242.7 548.9q0.4 0.1 0.7 0.5 0.4 0.5 0.8 1.2l1.2 2.4h-1.3l-1.1-2.2q-0.5-0.9-0.9-1.2-0.4-0.3-1.1-0.3h-1.3v3.7h-1.2v-8.7h2.7q1.5 0 2.2 0.6 0.8 0.6 0.8 1.9 0 0.8-0.4 1.3-0.4 0.6-1.1 0.8zm-1.5-3.7h-1.5v3.1h1.5q0.9 0 1.3-0.4 0.4-0.4 0.4-1.1 0-0.8-0.4-1.2-0.4-0.4-1.3-0.4zm5.7 7.8v-8.7h1.2v3.5h4.3v-3.5h1.2v8.7h-1.2v-4.2h-4.3v4.2z"/>
	<path id="No" class="s1" aria-label="No"  d="m93.2 162v-8.7h1.6l3.9 7.3v-7.3h1.1v8.7h-1.6l-3.9-7.3v7.3zm11.5-5.8q-0.9 0-1.4 0.7-0.5 0.6-0.5 1.8 0 1.2 0.5 1.9 0.5 0.7 1.4 0.7 0.8 0 1.3-0.7 0.5-0.7 0.5-1.9 0-1.1-0.5-1.8-0.5-0.7-1.3-0.7zm0-0.9q1.4 0 2.2 0.9 0.8 0.9 0.8 2.5 0 1.6-0.8 2.6-0.8 0.9-2.2 0.9-1.5 0-2.3-0.9-0.8-1-0.8-2.6 0-1.6 0.8-2.5 0.8-0.9 2.3-0.9z"/>
	<path id="Yes" class="s1" aria-label="Yes"  d="m114.2 468.8l-3.1-4.5h1.3l2.4 3.5 2.4-3.5h1.3l-3.1 4.5v4.2h-1.2zm9.4 0.6v0.5h-5q0.1 1.2 0.7 1.7 0.6 0.6 1.7 0.6 0.6 0 1.2-0.1 0.6-0.2 1.1-0.5v1q-0.5 0.3-1.1 0.4-0.7 0.1-1.3 0.1-1.5 0-2.5-0.9-0.9-0.9-0.9-2.5 0-1.6 0.9-2.5 0.9-1 2.3-1 1.4 0 2.1 0.9 0.8 0.9 0.8 2.3zm-4.9-0.3h3.8q0-0.9-0.5-1.4-0.5-0.5-1.3-0.5-0.9 0-1.4 0.5-0.5 0.5-0.6 1.4zm10.9-2.5v1q-0.5-0.2-1-0.3-0.5-0.2-1-0.2-0.8 0-1.2 0.3-0.4 0.2-0.4 0.7 0 0.4 0.3 0.6 0.3 0.2 1.1 0.4l0.4 0.1q1.1 0.3 1.6 0.7 0.5 0.5 0.5 1.3 0 0.9-0.7 1.4-0.7 0.5-2 0.5-0.5 0-1.1-0.1-0.6-0.1-1.2-0.3v-1.1q0.6 0.3 1.2 0.5 0.5 0.1 1.1 0.1 0.8 0 1.2-0.2 0.4-0.3 0.4-0.8 0-0.4-0.3-0.6-0.3-0.3-1.3-0.5l-0.4-0.1q-1-0.2-1.4-0.6-0.5-0.5-0.5-1.2 0-0.9 0.7-1.5 0.6-0.5 1.9-0.5 0.6 0 1.1 0.1 0.5 0.1 1 0.3z"/>
	<path id="Path 40" class="s2" d="m175.7 630.7h99.3v46.3h-99.3z"/>
	<path id="Clear class  array" class="s1" aria-label="Clear class 
array"  d="m199 640.6v1.4q-0.7-0.6-1.5-0.9-0.8-0.4-1.6-0.4-1.8 0-2.7 1.1-1 1.1-1 3.1 0 2 1 3.1 0.9 1.1 2.7 1.1 0.8 0 1.6-0.4 0.8-0.3 1.5-0.9v1.4q-0.7 0.5-1.5 0.8-0.8 0.2-1.7 0.2-2.3 0-3.7-1.4-1.3-1.4-1.3-3.9 0-2.5 1.3-3.9 1.4-1.4 3.7-1.4 0.9 0 1.7 0.3 0.8 0.2 1.5 0.7zm2.1 9.4v-10.6h1.3v10.6zm10.4-4.1v0.6h-5.8q0.1 1.3 0.8 2 0.7 0.6 1.9 0.6 0.8 0 1.4-0.1 0.7-0.2 1.4-0.6v1.2q-0.7 0.3-1.4 0.4-0.7 0.2-1.4 0.2-1.9 0-2.9-1.1-1.1-1-1.1-2.9 0-1.8 1-2.9 1-1.1 2.7-1.1 1.6 0 2.5 1 0.9 0.9 0.9 2.7zm-5.8-0.4h4.5q0-1-0.5-1.7-0.6-0.6-1.5-0.6-1.1 0-1.7 0.6-0.7 0.6-0.8 1.7zm12.6 0.7h-1.3q-1.5 0-2.1 0.3-0.6 0.3-0.6 1.2 0 0.7 0.5 1.1 0.4 0.3 1.2 0.3 1 0 1.7-0.7 0.6-0.7 0.6-2zm1.2-0.5v4.4h-1.2v-1.2q-0.4 0.7-1.1 1.1-0.6 0.3-1.6 0.3-1.1 0-1.8-0.7-0.7-0.6-0.7-1.7 0-1.3 0.8-2 0.9-0.7 2.6-0.7h1.8v-0.1q0-0.8-0.6-1.3-0.6-0.5-1.6-0.5-0.6 0-1.3 0.2-0.6 0.1-1.2 0.4v-1.1q0.7-0.3 1.4-0.4 0.6-0.2 1.2-0.2 1.7 0 2.5 0.9 0.8 0.9 0.8 2.6zm7.1-3.4v1.3q-0.2-0.1-0.5-0.2-0.2 0-0.5 0-1.1 0-1.7 0.7-0.5 0.6-0.5 1.9v4.1h-1.3v-7.7h1.3v1.2q0.3-0.7 1-1 0.6-0.4 1.5-0.4 0.2 0 0.3 0.1 0.2 0 0.4 0zm11.3 0.4v1.2q-0.6-0.3-1.1-0.4-0.6-0.2-1.1-0.2-1.2 0-1.9 0.8-0.7 0.8-0.7 2.2 0 1.4 0.7 2.1 0.7 0.8 1.9 0.8 0.5 0 1.1-0.1 0.5-0.2 1.1-0.5v1.2q-0.6 0.2-1.1 0.4-0.6 0.1-1.2 0.1-1.8 0-2.8-1.1-1-1.1-1-2.9 0-1.9 1-3 1.1-1.1 2.8-1.1 0.6 0 1.2 0.2 0.5 0.1 1.1 0.3zm2.1 7.4v-10.7h1.3v10.7zm8.6-3.9h-1.2q-1.6 0-2.1 0.4-0.6 0.3-0.6 1.2 0 0.6 0.4 1 0.4 0.4 1.2 0.4 1.1 0 1.7-0.7 0.6-0.8 0.6-2zm1.3-0.5v4.4h-1.3v-1.2q-0.4 0.7-1.1 1-0.6 0.4-1.5 0.4-1.2 0-1.9-0.7-0.7-0.7-0.7-1.8 0-1.3 0.9-1.9 0.8-0.7 2.6-0.7h1.7v-0.1q0-0.9-0.6-1.3-0.5-0.5-1.6-0.5-0.6 0-1.2 0.1-0.7 0.2-1.2 0.5v-1.1q0.7-0.3 1.3-0.4 0.7-0.2 1.3-0.2 1.6 0 2.5 0.9 0.8 0.8 0.8 2.6zm7.4-3.1v1.2q-0.5-0.3-1.1-0.4-0.5-0.1-1.2-0.1-0.9 0-1.4 0.3-0.4 0.2-0.4 0.8 0 0.5 0.3 0.7 0.3 0.3 1.4 0.5l0.4 0.1q1.3 0.3 1.9 0.8 0.6 0.5 0.6 1.4 0 1.1-0.9 1.7-0.8 0.7-2.3 0.7-0.6 0-1.3-0.2-0.7-0.1-1.4-0.3v-1.3q0.7 0.3 1.4 0.5 0.7 0.2 1.3 0.2 0.9 0 1.4-0.3 0.5-0.3 0.5-0.9 0-0.5-0.4-0.7-0.3-0.3-1.5-0.6l-0.4-0.1q-1.2-0.2-1.7-0.7-0.5-0.5-0.5-1.4 0-1.1 0.7-1.7 0.8-0.6 2.2-0.6 0.7 0 1.3 0.1 0.6 0.1 1.1 0.3zm7.3 0v1.2q-0.5-0.3-1.1-0.4-0.5-0.1-1.2-0.1-0.9 0-1.4 0.3-0.4 0.2-0.4 0.8 0 0.5 0.3 0.7 0.3 0.3 1.4 0.5l0.4 0.1q1.3 0.3 1.9 0.8 0.5 0.5 0.5 1.4 0 1.1-0.8 1.7-0.8 0.7-2.3 0.7-0.6 0-1.3-0.2-0.7-0.1-1.4-0.3v-1.3q0.7 0.3 1.4 0.5 0.6 0.2 1.3 0.2 0.9 0 1.4-0.3 0.5-0.3 0.5-0.9 0-0.5-0.4-0.7-0.3-0.3-1.5-0.6l-0.4-0.1q-1.2-0.2-1.7-0.7-0.5-0.5-0.5-1.4 0-1.1 0.7-1.7 0.8-0.6 2.2-0.6 0.7 0 1.3 0.1 0.6 0.1 1.1 0.3zm-52.6 20.6h-1.3q-1.5 0-2.1 0.4-0.6 0.3-0.6 1.1 0 0.7 0.5 1.1 0.4 0.4 1.2 0.4 1 0 1.6-0.7 0.7-0.8 0.7-2zm1.2-0.5v4.3h-1.2v-1.1q-0.5 0.7-1.1 1-0.7 0.3-1.6 0.3-1.2 0-1.9-0.6-0.6-0.7-0.6-1.8 0-1.3 0.8-1.9 0.9-0.7 2.6-0.7h1.8v-0.1q0-0.9-0.6-1.4-0.6-0.4-1.6-0.4-0.7 0-1.3 0.1-0.6 0.2-1.2 0.5v-1.2q0.7-0.2 1.4-0.4 0.6-0.1 1.2-0.1 1.7 0 2.5 0.9 0.8 0.8 0.8 2.6zm7-3.4l0.1 1.3q-0.3-0.2-0.5-0.2-0.3-0.1-0.6-0.1-1 0-1.6 0.7-0.6 0.7-0.6 2v4h-1.2v-7.6h1.2v1.2q0.4-0.7 1.1-1.1 0.6-0.3 1.5-0.3 0.1 0 0.3 0 0.2 0 0.3 0.1zm5.6 0v1.3q-0.3-0.2-0.5-0.2-0.3-0.1-0.6-0.1-1 0-1.6 0.7-0.6 0.7-0.6 2v4h-1.2v-7.6h1.2v1.2q0.4-0.7 1.1-1.1 0.6-0.3 1.5-0.3 0.1 0 0.3 0 0.2 0 0.4 0.1zm6 3.9h-1.2q-1.6 0-2.2 0.3-0.5 0.4-0.5 1.2 0 0.7 0.4 1.1 0.4 0.4 1.2 0.4 1 0 1.7-0.8 0.6-0.7 0.6-1.9zm1.3-0.5v4.3h-1.3v-1.1q-0.4 0.7-1.1 1-0.6 0.3-1.5 0.3-1.2 0-1.9-0.6-0.7-0.7-0.7-1.8 0-1.3 0.9-2 0.8-0.6 2.5-0.6h1.8v-0.1q0-0.9-0.6-1.4-0.5-0.5-1.6-0.5-0.6 0-1.2 0.2-0.7 0.2-1.2 0.5v-1.2q0.7-0.3 1.3-0.4 0.7-0.1 1.3-0.1 1.6 0 2.4 0.8 0.9 0.9 0.9 2.7zm9.1-3.3l-3.4 8.3q-0.5 1.4-1 1.8-0.5 0.4-1.3 0.4h-1.1v-1h0.8q0.5 0 0.8-0.3 0.3-0.2 0.6-1.1l0.3-0.6-3.1-7.5h1.3l2.4 6 2.4-6z"/>
	<g id="Mask" clip-path="url(#cp3)">
		<path id="Path 43" class="s3" d="m103 609.3v44.6l-1-1h63.7v2h-64.7v-45.6zm60.7 38.6l12 6-12 6z"/>
	</g>
	<g id="Mask" clip-path="url(#cp4)">
		<path id="Path 46" fill-rule="evenodd" class="s3" d="m349.8 609.3v45.6h-62.8v-2h60.8v-43.6zm-64.8 45.6v-2h2v-5l-12 6 12 6v-5zm62.8-2v1l1-1z"/>
	</g>
	<path id="Path 48" fill-rule="evenodd" class="s3" d="m226.4 677v25.4h195.1v-533.9h-100.3v-2h102.3v537.9h-199.1v-27.4zm94.8-508.5v5l-12-6 12-6v5h-2v2zm-94.8 533.9h-1l1 1zm195.1 0v1l1-1zm0-533.9h1l-1-1zm-195.1 374.3v8.3h5l-6 12-6-12h5v-8.3zm0 66.5v9.4l5 0.1-6 11.9-6-12h5v-9.4z"/>
	<path id="Path 49" class="s2" d="m26.9 436.6l63.5-34.6 63.4 34.6-63.4 34.7z"/>
	<path id="Stored Classes = 3?" class="s1" aria-label="Stored
Classes = 3?"  d="m80.1 425.3q0 1.4-1.1 2.1-1 0.7-2.9 0.7-3.5 0-4.1-2.4l1.3-0.3q0.2 0.9 0.9 1.3 0.7 0.4 1.9 0.4 1.3 0 2-0.4 0.7-0.5 0.7-1.3 0-0.5-0.2-0.8-0.3-0.3-0.6-0.4-0.4-0.2-1-0.4-0.5-0.1-1.2-0.2-1.1-0.3-1.7-0.5-0.6-0.3-0.9-0.6-0.4-0.3-0.6-0.7-0.1-0.5-0.1-1 0-1.2 0.9-1.9 1-0.7 2.7-0.7 1.7 0 2.5 0.5 0.9 0.5 1.2 1.7l-1.2 0.3q-0.3-0.8-0.8-1.1-0.6-0.4-1.7-0.4-1.1 0-1.8 0.4-0.6 0.4-0.6 1.1 0 0.5 0.3 0.8 0.2 0.3 0.7 0.5 0.4 0.2 1.7 0.5 0.5 0.1 0.9 0.2 0.4 0.1 0.9 0.2 0.4 0.2 0.7 0.4 0.4 0.2 0.6 0.4 0.3 0.3 0.4 0.7 0.2 0.4 0.2 0.9zm4.4 1.7v0.9q-0.6 0.2-1.2 0.2-1.5 0-1.5-1.7v-4.9h-0.9v-0.9h0.9l0.4-1.7h0.8v1.7h1.4v0.9h-1.4v4.7q0 0.5 0.2 0.7 0.2 0.2 0.6 0.2 0.2 0 0.7-0.1zm7.3-2.7q0 1.9-0.9 2.9-0.8 0.9-2.4 0.9-1.7 0-2.5-0.9-0.8-1-0.8-2.9 0-3.8 3.3-3.8 1.7 0 2.5 0.9 0.8 0.9 0.8 2.9zm-1.3 0q0-1.5-0.4-2.2-0.5-0.7-1.6-0.7-1.1 0-1.5 0.7-0.5 0.7-0.5 2.2 0 1.5 0.5 2.2 0.4 0.7 1.5 0.7 1.1 0 1.5-0.7 0.5-0.7 0.5-2.2zm4.1 3.7h-1.2v-5.7q0-0.8-0.1-1.7h1.2q0 1.3 0 1.5h0.1q0.3-0.9 0.6-1.3 0.4-0.3 1.1-0.3 0.3 0 0.5 0v1.2q-0.2-0.1-0.6-0.1-0.8 0-1.2 0.7-0.4 0.6-0.4 1.8zm9.6-3.4h-5.3q0 1.3 0.6 2 0.5 0.7 1.5 0.7 0.8 0 1.3-0.4 0.5-0.3 0.6-0.8l1.1 0.3q-0.6 1.8-3 1.8-1.6 0-2.5-1-0.9-1-0.9-2.9 0-1.8 0.9-2.8 0.9-1 2.5-1 3.2 0 3.2 3.9zm-5.2-0.9h3.9q-0.1-1.2-0.6-1.7-0.4-0.5-1.4-0.5-0.9 0-1.4 0.6-0.5 0.6-0.5 1.6zm11.5 3.2q-0.4 0.7-1 1-0.5 0.3-1.4 0.3-1.4 0-2-0.9-0.7-1-0.7-2.9 0-3.9 2.7-3.9 0.9 0 1.4 0.4 0.6 0.3 1 0.9v-0.8-3.1h1.2v8.7q0 1.1 0 1.5h-1.2q0-0.1 0-0.5 0-0.4 0-0.7zm-3.8-2.5q0 1.5 0.4 2.2 0.4 0.7 1.4 0.7 1 0 1.5-0.8 0.5-0.7 0.5-2.2 0-1.5-0.5-2.2-0.5-0.6-1.5-0.6-1 0-1.4 0.6-0.4 0.7-0.4 2.3zm-52.3 12q-1.6 0-2.5 1-0.9 1-0.9 2.8 0 1.8 1 2.9 0.9 1 2.5 1 2 0 3-2l1.1 0.6q-0.6 1.2-1.7 1.9-1.1 0.6-2.5 0.6-1.4 0-2.5-0.6-1.1-0.6-1.6-1.7-0.6-1.1-0.6-2.7 0-2.3 1.3-3.6 1.2-1.3 3.4-1.3 1.5 0 2.6 0.6 1 0.6 1.5 1.8l-1.2 0.4q-0.4-0.8-1.1-1.3-0.8-0.4-1.8-0.4zm6.9 8.7h-1.2v-10.2h1.2zm3.8 0.2q-1.2 0-1.7-0.6-0.6-0.6-0.6-1.6 0-1.2 0.8-1.8 0.7-0.6 2.4-0.6l1.7-0.1v-0.4q0-0.9-0.4-1.3-0.4-0.4-1.2-0.4-0.8 0-1.2 0.3-0.4 0.3-0.5 0.9l-1.3-0.1q0.4-2 3-2 1.4 0 2.1 0.6 0.7 0.7 0.7 1.9v3.2q0 0.5 0.2 0.8 0.1 0.3 0.5 0.3 0.2 0 0.4-0.1v0.8q-0.5 0.1-0.9 0.1-0.7 0-1-0.4-0.3-0.3-0.4-1.1-0.5 0.9-1.1 1.2-0.7 0.4-1.5 0.4zm0.2-1q0.7 0 1.2-0.3 0.6-0.3 0.9-0.8 0.3-0.5 0.3-1.1v-0.6h-1.4q-0.8 0-1.3 0.2-0.4 0.2-0.7 0.5-0.2 0.3-0.2 0.9 0 0.6 0.3 0.9 0.3 0.3 0.9 0.3zm11.2-1.2q0 1-0.8 1.6-0.8 0.6-2.2 0.6-1.4 0-2.1-0.5-0.8-0.4-1-1.4l1.1-0.2q0.1 0.6 0.6 0.9 0.5 0.2 1.4 0.2 0.9 0 1.4-0.3 0.4-0.2 0.4-0.8 0-0.4-0.3-0.7-0.3-0.3-1-0.5l-0.8-0.2q-1.1-0.3-1.6-0.5-0.4-0.3-0.7-0.7-0.2-0.4-0.2-0.9 0-1 0.7-1.5 0.7-0.6 2.1-0.6 1.2 0 2 0.5 0.7 0.4 0.9 1.3l-1.1 0.2q-0.1-0.5-0.6-0.8-0.4-0.2-1.2-0.2-0.8 0-1.2 0.2-0.4 0.3-0.4 0.8 0 0.3 0.2 0.5 0.1 0.2 0.4 0.3 0.4 0.2 1.4 0.4 1 0.3 1.4 0.5 0.4 0.2 0.7 0.5 0.2 0.2 0.4 0.5 0.1 0.4 0.1 0.8zm7 0q0 1-0.8 1.6-0.8 0.6-2.2 0.6-1.4 0-2.1-0.5-0.8-0.4-1-1.4l1.1-0.2q0.1 0.6 0.6 0.9 0.5 0.2 1.4 0.2 0.9 0 1.4-0.3 0.4-0.2 0.4-0.8 0-0.4-0.3-0.7-0.3-0.3-1-0.5l-0.8-0.2q-1.1-0.3-1.6-0.5-0.4-0.3-0.7-0.7-0.2-0.4-0.2-0.9 0-1 0.7-1.5 0.7-0.6 2.1-0.6 1.2 0 2 0.5 0.7 0.4 0.9 1.3l-1.1 0.2q-0.1-0.5-0.6-0.8-0.4-0.2-1.2-0.2-0.8 0-1.2 0.2-0.4 0.3-0.4 0.8 0 0.3 0.2 0.5 0.1 0.2 0.4 0.3 0.4 0.2 1.4 0.4 1 0.3 1.4 0.5 0.4 0.2 0.7 0.5 0.2 0.2 0.4 0.5 0.1 0.4 0.1 0.8zm7.7-1.4h-5.3q0 1.3 0.5 2 0.5 0.6 1.6 0.6 0.8 0 1.2-0.3 0.5-0.3 0.7-0.8l1.1 0.3q-0.7 1.8-3 1.8-1.7 0-2.5-1-0.9-1-0.9-2.9 0-1.8 0.9-2.8 0.8-1 2.4-1 3.3 0 3.3 3.9zm-5.3-0.9h4q-0.1-1.2-0.6-1.7-0.5-0.6-1.4-0.6-0.9 0-1.4 0.6-0.6 0.6-0.6 1.7zm12.4 2.3q0 1.1-0.8 1.6-0.8 0.6-2.2 0.6-1.4 0-2.1-0.4-0.8-0.5-1-1.5l1.1-0.2q0.1 0.6 0.6 0.9 0.5 0.3 1.4 0.3 0.9 0 1.4-0.3 0.4-0.3 0.4-0.9 0-0.4-0.3-0.7-0.3-0.3-1-0.4l-0.9-0.3q-1-0.2-1.5-0.5-0.4-0.3-0.7-0.6-0.2-0.4-0.2-1 0-1 0.7-1.5 0.7-0.5 2.1-0.5 1.2 0 1.9 0.4 0.8 0.4 1 1.4l-1.2 0.1q-0.1-0.5-0.5-0.7-0.4-0.3-1.2-0.3-0.8 0-1.2 0.2-0.4 0.3-0.4 0.8 0 0.3 0.1 0.5 0.2 0.2 0.5 0.4 0.3 0.1 1.4 0.4 1 0.2 1.4 0.4 0.4 0.2 0.7 0.5 0.2 0.2 0.4 0.6 0.1 0.3 0.1 0.7zm11.9-3.8h-6.8v-1h6.8zm0 3.5h-6.8v-1h6.8zm11.7-0.3q0 1.3-0.8 2.1-0.9 0.7-2.4 0.7-1.5 0-2.4-0.7-0.9-0.6-1-1.9l1.3-0.1q0.2 1.7 2.1 1.7 0.9 0 1.4-0.5 0.5-0.4 0.5-1.4 0-0.7-0.6-1.2-0.6-0.4-1.7-0.4h-0.7v-1.1h0.7q1 0 1.5-0.4 0.6-0.5 0.6-1.2 0-0.8-0.5-1.3-0.4-0.4-1.3-0.4-0.8 0-1.3 0.4-0.5 0.4-0.6 1.2l-1.3-0.1q0.2-1.2 1-1.9 0.9-0.6 2.2-0.6 1.4 0 2.2 0.6 0.9 0.7 0.9 1.9 0 0.9-0.6 1.5-0.5 0.6-1.5 0.8 1.1 0.1 1.7 0.8 0.6 0.6 0.6 1.5zm7.9-4.4q0 0.5-0.1 0.9-0.2 0.4-0.5 0.8-0.3 0.3-0.9 0.8l-0.5 0.4q-0.5 0.3-0.8 0.7-0.2 0.4-0.2 0.9h-1.2q0-0.5 0.1-0.9 0.2-0.3 0.4-0.6 0.2-0.3 0.5-0.5 0.2-0.2 0.5-0.4 0.3-0.2 0.5-0.4 0.3-0.2 0.5-0.4 0.2-0.2 0.3-0.5 0.2-0.3 0.2-0.8 0-0.7-0.6-1.2-0.5-0.4-1.5-0.4-0.9 0-1.5 0.4-0.5 0.5-0.6 1.4l-1.3-0.1q0.2-1.4 1.1-2.1 0.9-0.7 2.3-0.7 1.6 0 2.4 0.7 0.9 0.7 0.9 2zm-2.9 7h-1.4v-1.3h1.4z"/>
</svg>